SplineFontDB: 3.2
FontName: Untitled1
FullName: Untitled1
FamilyName: Untitled1
Weight: Regular
Copyright: Copyright (c) 2024, Deepanshu
UComments: "2024-9-11: Created with FontForge (http://fontforge.org)"
Version: 001.000
ItalicAngle: 0
UnderlinePosition: -100
UnderlineWidth: 50
Ascent: 800
Descent: 200
InvalidEm: 0
LayerCount: 2
Layer: 0 0 "Back" 1
Layer: 1 0 "Fore" 0
XUID: [1021 333 -1458125543 9681]
StyleMap: 0x0000
FSType: 0
OS2Version: 0
OS2_WeightWidthSlopeOnly: 0
OS2_UseTypoMetrics: 1
CreationTime: 1726033415
ModificationTime: 1726037834
OS2TypoAscent: 0
OS2TypoAOffset: 1
OS2TypoDescent: 0
OS2TypoDOffset: 1
OS2TypoLinegap: 90
OS2WinAscent: 0
OS2WinAOffset: 1
OS2WinDescent: 0
OS2WinDOffset: 1
HheadAscent: 0
HheadAOffset: 1
HheadDescent: 0
HheadDOffset: 1
Lookup: 258 0 0 "'vchw' Vertical Contextual Half-width Spacing in Latin lookup 0" { "'vchw' Vertical Contextual Half-width Spacing in Latin lookup 0-1" [150,15,0] } ['vchw' ('DFLT' <'dflt' > 'latn' <'dflt' > ) ]
DEI: 91125
KernClass2: 1 1 "'vchw' Vertical Contextual Half-width Spacing in Latin lookup 0-1"
 0 {}
Encoding: ISO8859-1
UnicodeInterp: none
NameList: AGL For New Fonts
DisplaySize: -48
AntiAlias: 1
FitToEm: 0
WinInfo: 48 16 6
BeginChars: 256 62

StartChar: A
Encoding: 65 65 0
Width: 792
VWidth: 916
Flags: H
HStem: 703.728 20G<389.409 420.415>
VStem: 123.617 59.752<40.1142 156.244> 519.415 1.30566<150.093 157.36>
LayerCount: 2
Back
Fore
SplineSet
512.127929688 179.552734375 m 0
 511.969726562 187.275390625 513.487304688 184.557617188 515.043945312 174.331054688 c 0
 515.970703125 168.239257812 515.748046875 166.93359375 514.30078125 169.979492188 c 0
 513.181640625 172.336914062 512.186523438 176.724609375 512.127929688 179.552734375 c 0
389.408203125 706.3203125 m 2
 406.053710938 723.727539062 l 1
 420.4140625 722.512695312 l 2
 445.000976562 720.432617188 451.703125 719.185546875 461.538085938 714.85546875 c 0
 482.48046875 705.634765625 486.243164062 696.528320312 506.700195312 605.579101562 c 0
 512.1328125 581.428710938 518.938476562 553.786132812 521.80859375 544.221679688 c 0
 524.678710938 534.653320312 531.9375 510.060546875 537.927734375 489.608398438 c 0
 550.801757812 445.657226562 556.569335938 429.637695312 561.899414062 423.028320312 c 2
 565.759765625 418.241210938 l 1
 581.860351562 423.8515625 l 2
 602.749023438 431.12890625 612.966796875 433.033203125 611.314453125 429.337890625 c 0
 610.672851562 427.901367188 603.762695312 411.060546875 595.959960938 391.9140625 c 0
 578.404296875 348.833007812 577.943359375 342.671875 589.420898438 304.4453125 c 0
 596.284179688 281.5859375 627.926757812 184.557617188 651.579101562 113.84375 c 0
 662.567382812 80.98828125 668.139648438 57.0322265625 669.89453125 35.078125 c 2
 671.287109375 17.671875 l 1
 662.80078125 9.51171875 l 2
 655.236328125 2.23828125 653.3359375 1.435546875 645.286132812 2.115234375 c 0
 640.28125 2.537109375 633.928710938 4.4052734375 631.034179688 6.3046875 c 0
 623.5625 11.2119140625 609.7109375 15.537109375 562.278320312 27.7744140625 c 0
 523.331054688 37.8232421875 518.197265625 38.673828125 503.095703125 37.58203125 c 0
 491.12890625 36.71484375 485.477539062 37.166015625 482.643554688 39.2119140625 c 0
 479.049804688 41.80859375 479.706054688 42.6708984375 490.584960938 49.6572265625 c 0
 497.11328125 53.8486328125 506.356445312 58.5322265625 511.146484375 60.07421875 c 0
 527.084960938 65.20703125 528.016601562 67.0625 526.458007812 90.5634765625 c 0
 525.692382812 102.094726562 524.516601562 116.225585938 523.831054688 122.111328125 c 0
 521.950195312 138.26953125 526.221679688 129.508789062 529.34765625 110.796875 c 0
 531.928710938 95.349609375 536.572265625 87.9970703125 534.845703125 102.094726562 c 0
 534.383789062 105.865234375 533.466796875 113.84375 532.846679688 119.500976562 c 0
 531.76953125 129.291992188 524.984375 141.9453125 522.243164062 139.2734375 c 0
 521.6328125 138.677734375 520.486328125 142.12890625 519.631835938 147.133789062 c 0
 518.77734375 152.138671875 518.682617188 156.627929688 519.4140625 157.360351562 c 0
 520.161132812 158.106445312 520.719726562 156.70703125 520.719726562 154.096679688 c 0
 520.719726562 151.485351562 521.466796875 149.067382812 522.4609375 148.456054688 c 0
 525.76953125 146.419921875 518.204101562 185.428710938 510.903320312 208.056640625 c 0
 506.831054688 220.676757812 501.525390625 238.888671875 499.049804688 248.744140625 c 0
 493.420898438 271.155273438 490.727539062 277.208984375 485.689453125 278.784179688 c 0
 483.419921875 279.494140625 471.001953125 278.11328125 458.165039062 275.724609375 c 0
 445.271484375 273.326171875 414.7578125 268.395507812 390.169921875 264.736328125 c 0
 365.583984375 261.079101562 333.360351562 255.073242188 318.368164062 251.35546875 c 0
 303.35546875 247.6328125 280.448242188 242.369140625 267.236328125 239.606445312 c 0
 245.043945312 234.965820312 242.8671875 234.854492188 237.319335938 238.083007812 c 0
 233.619140625 240.234375 230.57421875 240.733398438 229.341796875 239.388671875 c 0
 226.344726562 236.119140625 217.010742188 205.4453125 207.229492188 166.71484375 c 0
 199.372070312 135.607421875 194.569335938 113.84375 183.368164062 58.5771484375 c 0
 179.08984375 37.4716796875 162.892578125 25.986328125 151.91796875 36.2744140625 c 0
 148.188476562 39.771484375 144.955078125 40.8310546875 140.603515625 39.982421875 c 0
 123.282226562 36.6015625 116.23828125 56.4013671875 123.616210938 87.7333984375 c 0
 130.198242188 115.68359375 168.654296875 228.508789062 183.685546875 263.974609375 c 0
 188.389648438 275.072265625 192.169921875 286.030273438 192.169921875 288.563476562 c 0
 192.169921875 291.08984375 189.870117188 297.701171875 187.022460938 303.357421875 c 0
 179.353515625 318.587890625 178.141601562 326.838867188 182.546875 333.819335938 c 0
 189.55078125 344.915039062 197.325195312 351.524414062 205.008789062 352.91015625 c 0
 221.59375 355.904296875 222.974609375 358.188476562 244.354492188 418.0234375 c 0
 251.1796875 437.125976562 265.84375 471.983398438 276.850585938 495.264648438 c 0
 307.809570312 560.7578125 357.543945312 660.409179688 365.5703125 673.03125 c 0
 369.581054688 679.33984375 372.764648438 685.35546875 372.764648438 686.62890625 c 0
 372.764648438 687.885742188 380.254882812 696.74609375 389.408203125 706.3203125 c 2
322.719726562 554.665039062 m 0
 342.063476562 593.831054688 357.52734375 626.5234375 356.990234375 627.120117188 c 0
 356.444335938 627.7265625 354.806640625 625.271484375 353.290039062 621.572265625 c 0
 351.775390625 617.873046875 349.84765625 614.936523438 348.938476562 614.936523438 c 0
 348.048828125 614.936523438 346.120117188 612.21484375 344.6953125 608.951171875 c 0
 343.267578125 605.676757812 336.770507812 593.612304688 330.341796875 582.298828125 c 0
 306.609375 540.522460938 250.439453125 416.54296875 253.74609375 413.236328125 c 0
 256.047851562 410.934570312 269.62109375 437.606445312 281.096679688 466.979492188 c 0
 284.594726562 475.935546875 303.376953125 515.500976562 322.719726562 554.665039062 c 0
384.338867188 600.357421875 m 0
 380.733398438 607.3203125 378.954101562 607.709960938 374.422851562 602.534179688 c 0
 362.955078125 589.426757812 308.174804688 480.904296875 289.8515625 434.995117188 c 0
 274.133789062 395.612304688 263.97265625 367.080078125 263.97265625 362.322265625 c 0
 263.97265625 357.786132812 270.283203125 356.775390625 276.810546875 360.267578125 c 0
 280.779296875 362.391601562 319.673828125 368.502929688 396.698242188 379.108398438 c 0
 419.979492188 382.315429688 442.5625 386.03125 446.743164062 387.34375 c 0
 453.487304688 389.463867188 454.272460938 390.483398438 453.609375 396.264648438 c 0
 452.284179688 407.833007812 391.887695312 585.779296875 384.338867188 600.357421875 c 0
EndSplineSet
EndChar

StartChar: B
Encoding: 66 66 1
Width: 792
VWidth: 884
Flags: HW
HStem: 30.4463 22.7588<278.654 298.649> 258.032 149.184<324.214 410.366> 287.619 7.93848<221.539 224.849>
VStem: 201.019 66<-5.33994 30.4441 69.3633 82.3284> 225.594 42.1084<99.367 346.7 347.059 406.413>
LayerCount: 2
Back
Fore
SplineSet
221.501953125 292.284179688 m 4xa0
 221.501953125 294.788085938 222.555664062 296.3046875 223.776367188 295.557617188 c 4
 226.735351562 293.747070312 226.735351562 287.619140625 223.776367188 287.619140625 c 4
 222.555664062 287.619140625 221.501953125 289.78125 221.501953125 292.284179688 c 4xa0
526.466796875 717.756835938 m 4
 530.828125 718.752929688 544.21875 719.649414062 556.053710938 719.73828125 c 4
 607.032226562 720.118164062 634.59375 711.091796875 657.99609375 686.348632812 c 4
 686.458007812 656.258789062 696.383789062 623.081054688 686.7265625 590.307617188 c 4
 682.255859375 575.133789062 671.348632812 553.2109375 653.323242188 523.169921875 c 4
 626.912109375 479.153320312 595.424804688 440.415039062 546.266601562 391.465820312 c 4
 512.583984375 357.92578125 509.993164062 353.826171875 522.370117188 353.666015625 c 4
 524.377929688 353.639648438 536.024414062 351.025390625 548.315429688 347.84375 c 4
 586.094726562 338.0625 616.939453125 322.728515625 650.2734375 297.158203125 c 4
 670.07421875 281.969726562 677.857421875 273.387695312 685.140625 258.715820312 c 4
 688.756835938 251.432617188 694.610351562 240.516601562 698.197265625 234.364257812 c 4
 718.958984375 198.758789062 697.944335938 126.032226562 653.284179688 78.9228515625 c 4
 625.4296875 49.541015625 590.190429688 28.642578125 540.8046875 12.2177734375 c 4
 453.866210938 -16.693359375 378.084960938 -14.5234375 298.653320312 19.15625 c 4
 284.086914062 25.33203125 270.892578125 30.4462890625 269.521484375 30.4462890625 c 4
 268.141601562 30.4462890625 267.018554688 27.48828125 267.018554688 23.845703125 c 4
 267.018554688 13.23046875 260.888671875 -10.51953125 250.8046875 -38.9677734375 c 4
 242.578125 -62.181640625 240.923828125 -65.1396484375 236.180664062 -65.1396484375 c 4
 232.309570312 -65.1396484375 228.633789062 -61.83984375 222.8671875 -53.1923828125 c 4
 218.489257812 -46.625 208.188476562 -34.6328125 199.994140625 -26.5634765625 c 4
 188.615234375 -15.3583984375 185.086914062 -10.376953125 185.086914062 -5.5126953125 c 4
 185.086914062 -1.98828125 188.6484375 11.8984375 193.052734375 25.552734375 c 4
 197.458007812 39.208984375 201.018554688 53.0947265625 201.018554688 56.619140625 c 4x90
 201.018554688 63.119140625 195.1015625 69.806640625 175.07421875 85.94140625 c 4
 158.459960938 99.326171875 152.384765625 116.9296875 164.376953125 116.9296875 c 4
 166.654296875 116.9296875 170.021484375 118.545898438 171.48828125 120.342773438 c 4
 176.000976562 125.870117188 179.846679688 124.439453125 184.950195312 115.3359375 c 4
 190.8203125 104.8671875 203.43359375 95.0615234375 205.735351562 99.177734375 c 4
 207.534179688 102.393554688 219.224609375 158.8046875 219.224609375 164.267578125 c 4
 219.224609375 166.219726562 221.229492188 170.069335938 223.549804688 172.57421875 c 4
 227.548828125 176.889648438 227.635742188 177.922851562 224.7109375 186.342773438 c 4
 221.07421875 196.811523438 220.610351562 206.2421875 223.583007812 209.329101562 c 4
 226.173828125 212.020507812 227.90625 251.205078125 225.59375 254.846679688 c 4x88
 224.723632812 256.217773438 225.137695312 265.998046875 226.5078125 276.467773438 c 4
 228.208007812 289.439453125 228.317382812 300.375976562 226.850585938 310.491210938 c 4
 224.770507812 324.829101562 224.896484375 325.5546875 230.149414062 329.494140625 c 4
 235.611328125 333.590820312 235.611328125 333.590820312 231.173828125 338.484375 c 4
 228.696289062 341.215820312 226.212890625 344.884765625 225.551757812 346.791015625 c 4
 223.580078125 352.48046875 227.721679688 360.446289062 232.65234375 360.446289062 c 4
 238.5703125 360.446289062 238.666015625 363.094726562 232.879882812 366.719726562 c 4
 225.857421875 371.119140625 224.333984375 382.067382812 225.576171875 419.163085938 c 4
 226.217773438 438.28125 225.971679688 453.756835938 225.030273438 453.756835938 c 4
 224.092773438 453.756835938 216.950195312 448.674804688 209.211914062 442.50390625 c 4
 188.045898438 425.625976562 186.737304688 425.291015625 167.334960938 431.798828125 c 4
 158.232421875 434.850585938 148.35546875 438.918945312 145.487304688 440.794921875 c 4
 135.637695312 447.237304688 114.11328125 474.01171875 110 484.935546875 c 4
 106.744140625 493.584960938 103.967773438 496.83203125 96.669921875 500.526367188 c 4
 91.6630859375 503.060546875 86.8291015625 505.814453125 86.0869140625 506.556640625 c 4
 84.15234375 508.491210938 91.322265625 522.032226562 94.2802734375 522.032226562 c 4
 95.646484375 522.032226562 94.5078125 523.89453125 91.7783203125 526.12890625 c 6
 86.7705078125 530.2265625 l 5
 99.7431640625 542.060546875 l 6
 106.818359375 548.515625 120.112304688 558.23828125 128.98828125 563.453125 c 4
 137.86328125 568.666992188 154.364257812 579.000976562 165.287109375 586.1875 c 4
 223.877929688 624.733398438 297.743164062 659.913085938 367.157226562 682.33203125 c 4
 412.901367188 697.10546875 468.681640625 710.631835938 495.743164062 713.512695312 c 4
 508.259765625 714.845703125 522.0859375 716.754882812 526.466796875 717.756835938 c 4
533.294921875 589.625976562 m 4
 533.294921875 603.682617188 427.239257812 575.405273438 375.350585938 547.513671875 c 4
 355.674804688 536.938476562 341.221679688 519.07421875 322.510742188 482.204101562 c 4
 315.463867188 468.322265625 308.994140625 456.65625 307.984375 456.016601562 c 4
 305.219726562 454.266601562 297.759765625 436.232421875 291.325195312 415.75 c 4
 284.6796875 394.594726562 274.836914062 341.330078125 271.431640625 308.1015625 c 4
 268.564453125 280.108398438 264.668945312 103.953125 266.463867188 83.4736328125 c 6
 267.702148438 69.36328125 l 5
 280.446289062 63.744140625 l 6
 301.356445312 54.5224609375 309.805664062 53.205078125 348.0390625 53.205078125 c 4
 438.391601562 53.205078125 529.677734375 78.7216796875 562.17578125 113.060546875 c 4
 605.25390625 158.578125 613.620117188 209.618164062 583.032226562 240.28125 c 4
 556.844726562 266.53125 501.88671875 281.209960938 443.169921875 277.638671875 c 4
 425.502929688 276.5625 413.469726562 274.1328125 391.166992188 267.135742188 c 4
 375.235351562 262.137695312 358.865234375 258.032226562 354.866210938 258.032226562 c 4
 347.111328125 258.032226562 315.495117188 272.525390625 299.791015625 283.27734375 c 4
 294.556640625 286.862304688 289.166992188 292.764648438 287.515625 296.72265625 c 4
 282.0390625 309.849609375 289.592773438 339.962890625 303.728515625 361.356445312 c 4
 313.053710938 375.467773438 336.536132812 399.13671875 341.211914062 399.13671875 c 4
 343.272460938 399.13671875 347.470703125 401.209960938 350.8828125 403.915039062 c 4
 355.96875 407.9453125 358.736328125 408.461914062 368.521484375 407.215820312 c 4xc8
 379.217773438 405.8515625 380.423828125 406.190429688 383.884765625 411.540039062 c 4
 386.092773438 414.953125 389.841796875 417.342773438 392.987304688 417.342773438 c 4
 395.9453125 417.342773438 400.267578125 419.478515625 402.66015625 422.122070312 c 4
 405.036132812 424.748046875 414.266601562 432.390625 423.143554688 439.081054688 c 4
 455.004882812 463.096679688 530.857421875 545.412109375 540.477539062 566.412109375 c 4
 549.895507812 586.970703125 543.995117188 585.073242188 531.280273438 563.453125 c 4
 523.516601562 550.252929688 496.881835938 520.471679688 496.881835938 524.990234375 c 4
 496.881835938 525.853515625 500.44140625 531.590820312 504.6484375 537.508789062 c 4
 513.388671875 549.797851562 533.294921875 586.014648438 533.294921875 589.625976562 c 4
EndSplineSet
EndChar

StartChar: C
Encoding: 67 67 2
Width: 792
VWidth: 884
Flags: H
HStem: -58.04 83.7471<254.89 416.323>
VStem: 555.777 2.48926<143.11 146.771> 631.949 15.957<294.405 302.247>
LayerCount: 2
Back
Fore
SplineSet
556.213867188 146.836914062 m 0
 558.525390625 150.536132812 559.853515625 149.631835938 558.265625 145.439453125 c 0
 557.559570312 143.575195312 556.397460938 142.489257812 555.776367188 143.110351562 c 0
 555.141601562 143.744140625 555.33984375 145.439453125 556.213867188 146.836914062 c 0
551.93359375 697.859375 m 0
 560.784179688 700.895507812 570.170898438 703.3984375 573.014648438 703.478515625 c 0
 581.553710938 703.723632812 586.584960938 693.782226562 594.306640625 661.403320312 c 0
 613.806640625 579.640625 608.7265625 529.471679688 579.537109375 515.528320312 c 0
 572.1171875 511.982421875 570.684570312 512.236328125 538.306640625 522.819335938 c 0
 460.50390625 548.249023438 426.840820312 548.526367188 376.87890625 524.142578125 c 0
 341.704101562 506.9765625 325.88671875 495.573242188 296.513671875 466.19921875 c 0
 277.922851562 447.608398438 263.256835938 430.09375 249.506835938 410.060546875 c 0
 221.256835938 368.904296875 213.119140625 351.825195312 201.782226562 309.89453125 c 0
 193.53515625 279.392578125 191.512695312 211.360351562 197.518554688 166.403320312 c 0
 208.098632812 87.203125 228.454101562 54.892578125 281.372070312 33.3095703125 c 0
 298.162109375 26.4599609375 302.336914062 25.70703125 323.53515625 25.70703125 c 0
 362.93359375 25.70703125 406.694335938 39.3369140625 457.708984375 67.4951171875 c 0
 484.264648438 82.1533203125 514.375 102.333984375 525.959960938 113.23828125 c 0
 529.919921875 116.965820312 534.71484375 119.5625 537.025390625 119.233398438 c 0
 539.586914062 118.866210938 541.102539062 120.034179688 541.102539062 122.377929688 c 0
 541.102539062 127.501953125 547.881835938 137.51953125 551.3515625 137.51953125 c 0
 555.51171875 137.51953125 564.473632812 147.768554688 577.828125 167.801757812 c 0
 599.311523438 200.024414062 605.729492188 216.252929688 612.282226562 254.920898438 c 0
 614.256835938 266.568359375 616.977539062 280.263671875 618.322265625 285.3203125 c 2
 620.767578125 294.521484375 l 1
 623.905273438 287.067382812 l 2
 627.142578125 279.379882812 631.948242188 277.013671875 631.948242188 283.106445312 c 0
 631.948242188 287.765625 644.080078125 312.224609375 646.390625 312.224609375 c 0
 651.37890625 312.224609375 653.620117188 300.578125 650.962890625 288.465820312 c 0
 649.462890625 281.626953125 648.099609375 265.985351562 647.905273438 253.407226562 c 0
 647.571289062 231.743164062 647.840820312 230.39453125 653.728515625 224.173828125 c 0
 657.03515625 220.678710938 659.90234375 216.244140625 659.90234375 214.622070312 c 0
 659.90234375 212.90625 662.42578125 208.565429688 665.724609375 204.606445312 c 0
 669.025390625 200.646484375 671.548828125 196.3046875 671.548828125 194.590820312 c 0
 671.548828125 192.927734375 675.24609375 186.203125 679.747070312 179.681640625 c 0
 692.390625 161.360351562 691.447265625 154.057617188 672.790039062 125.872070312 c 0
 656.485351562 101.23828125 635.209960938 81.056640625 587.689453125 45.150390625 c 0
 547.168945312 14.53125 477.508789062 -21.2421875 425.5625 -38.1083984375 c 0
 395.747070312 -47.7900390625 345.407226562 -58.0947265625 328.194335938 -58.0400390625 c 0
 302.522460938 -57.9599609375 270.889648438 -50.765625 234.083984375 -36.63671875 c 0
 216.381835938 -29.841796875 176.798828125 -1.41796875 162.837890625 14.5263671875 c 0
 138.153320312 42.7138671875 118.306640625 100.248046875 109.166015625 170.130859375 c 0
 101.763671875 226.717773438 101.984375 264.938476562 110.094726562 330.393554688 c 0
 114.766601562 368.107421875 141.286132812 437.081054688 165.802734375 475.283203125 c 0
 171.932617188 484.833984375 179.918945312 497.875976562 183.419921875 504.052734375 c 0
 186.9140625 510.21484375 198.720703125 526.4140625 209.39453125 539.692382812 c 0
 220.065429688 552.969726562 230.717773438 567.421875 232.827148438 571.48828125 c 0
 239.84375 585.014648438 274.383789062 615.868164062 296.046875 627.961914062 c 0
 307.228515625 634.203125 318.924804688 641.25390625 322.13671875 643.692382812 c 0
 329.823242188 649.522460938 342.461914062 654.647460938 349.159179688 654.647460938 c 0
 352.186523438 654.647460938 354.749023438 655.609375 354.749023438 656.745117188 c 0
 354.749023438 662.16796875 427.194335938 681.2734375 440.936523438 679.474609375 c 0
 445.420898438 678.888671875 459.572265625 679.98046875 472.383789062 681.901367188 c 0
 485.196289062 683.82421875 501.338867188 685.34375 508.256835938 685.280273438 c 0
 515.245117188 685.21484375 524.200195312 686.768554688 528.40625 688.7734375 c 0
 532.606445312 690.77734375 543.081054688 694.822265625 551.93359375 697.859375 c 0
EndSplineSet
EndChar

StartChar: D
Encoding: 68 68 3
Width: 792
VWidth: 884
Flags: H
VStem: 181.903 68.1504<-28.4039 29.8861> 209.059 63.7188<116.456 413.481> 596.214 89.4482<318.057 554.72>
LayerCount: 2
Back
Fore
SplineSet
463.110351562 698.1015625 m 0x60
 535.26953125 701.594726562 547.581054688 700.12890625 581.690429688 683.982421875 c 0
 613.962890625 668.703125 640.8515625 639.739257812 660.958984375 598.599609375 c 0
 682.680664062 554.153320312 687.340820312 523.360351562 685.662109375 435.360351562 c 0
 684.403320312 369.360351562 682.010742188 352.74609375 667.676757812 310.400390625 c 0
 663.581054688 298.30078125 660.676757812 287.607421875 661.220703125 286.640625 c 0
 661.813476562 285.583984375 661.374023438 284.3515625 660.120117188 283.559570312 c 0
 658.97265625 282.834960938 652.1796875 270.139648438 645.049804688 255.401367188 c 0
 637.932617188 240.680664062 621.836914062 213.16015625 609.41015625 194.458984375 c 0
 591.428710938 167.399414062 581.109375 154.682617188 559.428710938 132.860351562 c 0
 526.859375 100.080078125 513.602539062 89.078125 489.73046875 75.0244140625 c 0
 424.390625 36.55859375 347.047851562 18.3388671875 290.850585938 28.1728515625 c 0
 257.629882812 33.9873046875 250.680664062 32.369140625 250.053710938 18.6787109375 c 0
 249.750976562 12.080078125 250.537109375 10.9794921875 256.750976562 9.328125 c 0
 273.0703125 4.98828125 261.810546875 -11.935546875 232.990234375 -26.384765625 c 0
 214.510742188 -35.6494140625 203.037109375 -36.5849609375 193.169921875 -29.62890625 c 0
 181.821289062 -21.6298828125 180.405273438 -14.98046875 181.903320312 23.30078125 c 0xa0
 183.373046875 60.9208984375 184.6484375 57.35546875 165.010742188 70.5341796875 c 0
 150.7109375 80.1328125 150.462890625 80.4609375 148.703125 92.16015625 c 0
 146.3671875 107.700195312 148.0703125 109.357421875 164.791015625 107.806640625 c 0
 172.709960938 107.071289062 181.41015625 105.872070312 183.930664062 105.166015625 c 0
 189.969726562 103.474609375 190.473632812 105.139648438 193.376953125 136.380859375 c 0
 194.706054688 150.680664062 196.758789062 171.044921875 197.900390625 181.259765625 c 0
 199.05078125 191.545898438 201.525390625 225.701171875 203.401367188 257.16015625 c 0
 205.276367188 288.62109375 207.821289062 328.715820312 209.05859375 346.260742188 c 0
 211.567382812 381.900390625 211.959960938 419.29296875 209.92578125 429.200195312 c 0
 208.635742188 435.481445312 207.91015625 435.85546875 194.930664062 436.932617188 c 0
 169.849609375 439.015625 128.08203125 465.118164062 115.0703125 486.83984375 c 0
 99.94140625 512.09375 104.224609375 553.940429688 124.684570312 580.780273438 c 0
 147.912109375 611.251953125 272.58984375 664.821289062 364.110351562 683.650390625 c 0
 421.749023438 695.510742188 427.782226562 696.391601562 463.110351562 698.1015625 c 0x60
545.390625 574.581054688 m 0
 518.779296875 582.823242188 497.2109375 582.413085938 460.250976562 572.959960938 c 0
 413.389648438 560.9765625 332.633789062 521.880859375 322.346679688 506.200195312 c 0
 313.678710938 492.98828125 299.49609375 442.83984375 291.112304688 395.760742188 c 0
 277.791992188 320.959960938 274.625 297.20703125 272.77734375 258.258789062 c 0x60
 270.759765625 215.725585938 266.681640625 166.739257812 260.706054688 113.279296875 c 0
 258.763671875 95.8994140625 257.666015625 81.3271484375 258.252929688 80.720703125 c 0
 260.100585938 78.80859375 290.41015625 79.8916015625 304.7109375 82.3798828125 c 0
 324.75390625 85.8681640625 363.669921875 96.966796875 385.889648438 105.532226562 c 0
 438.690429688 125.885742188 477.526367188 155.892578125 515.219726562 205.4609375 c 0
 535.462890625 232.079101562 565.41015625 283.536132812 565.41015625 291.700195312 c 0
 565.41015625 293.02734375 567.864257812 300.280273438 570.844726562 307.758789062 c 0
 578.674804688 327.412109375 591.493164062 379.0390625 595.15234375 405.66015625 c 0
 598.793945312 432.141601562 599.19921875 469.020507812 596.213867188 502.01953125 c 0
 593.806640625 528.640625 588.224609375 541.090820312 570.76171875 558.779296875 c 0
 561.764648438 567.896484375 556.610351562 571.10546875 545.390625 574.581054688 c 0
270.940429688 316.229492188 m 0
 272.5625 319.08984375 272.530273438 321.020507812 270.830078125 322.720703125 c 0
 269.026367188 324.524414062 268.438476562 323.490234375 268.51953125 318.649414062 c 0
 268.616210938 312.9296875 268.904296875 312.643554688 270.940429688 316.229492188 c 0
EndSplineSet
EndChar

StartChar: E
Encoding: 69 69 4
Width: 792
VWidth: 884
Flags: H
HStem: -32.1768 121.838<166.014 340.816> 286.86 118.105<328.074 491.864> 425.001 10.377<569.147 589.244> 555.427 151.518<383.192 549.001>
VStem: 167.295 60.21<360.996 417.451>
LayerCount: 2
Back
Fore
SplineSet
539.209960938 720.838867188 m 0
 555.653320312 724.30859375 573.090820312 726.28515625 589.232421875 726.513671875 c 2
 614.010742188 726.860351562 l 1
 599.043945312 696.291992188 l 2
 584.212890625 666.00390625 580.020507812 652.5234375 574.705078125 618.018554688 c 0
 567.927734375 574.018554688 564.881835938 566.5546875 549.400390625 556.010742188 c 0
 540.793945312 550.149414062 538.052734375 550.108398438 510.7265625 555.426757812 c 0
 487.212890625 560.004882812 439.400390625 555.431640625 317.821289062 536.975585938 c 0
 277.7578125 530.895507812 279.336914062 531.61328125 285.255859375 522.14453125 c 0
 292.641601562 510.327148438 291.447265625 501.0703125 279.69921875 479.071289062 c 0
 251.499023438 426.270507812 227.504882812 373.041015625 227.504882812 363.280273438 c 0
 227.504882812 359.016601562 228.6640625 358.754882812 242.094726562 359.975585938 c 0
 255.7578125 361.21875 309.583984375 375.203125 318.28515625 379.772460938 c 0
 326.750976562 384.217773438 377.337890625 395.702148438 388.453125 395.702148438 c 0
 397.485351562 395.702148438 400.66796875 396.721679688 402.926757812 400.333984375 c 0
 404.825195312 403.37109375 408.252929688 404.965820312 412.884765625 404.965820312 c 0
 416.715820312 404.965820312 426.200195312 407.602539062 433.610351562 410.729492188 c 0
 459.336914062 421.58203125 477.37890625 425.442382812 543.146484375 434.154296875 c 0
 567 437.314453125 574.553710938 437.553710938 581.822265625 435.377929688 c 0
 593.631835938 431.84375 593.743164062 426.8671875 582.052734375 425.000976562 c 0
 563.641601562 422.061523438 553.728515625 407.744140625 550.544921875 379.4921875 c 0
 547.362304688 351.239257812 540.424804688 315.000976562 536.892578125 308.165039062 c 0
 534.963867188 304.43359375 529.716796875 298.20703125 525.084960938 294.154296875 c 0
 516.822265625 286.924804688 516.515625 286.860351562 490.810546875 286.860351562 c 0
 444.603515625 286.860351562 395.631835938 280.975585938 324.768554688 266.904296875 c 0
 276.13671875 257.249023438 260.657226562 252.732421875 238.622070312 241.766601562 c 0
 227.041992188 236.004882812 216.556640625 231.28125 215.348632812 231.28125 c 0
 214.135742188 231.28125 209.55859375 234.403320312 205.159179688 238.228515625 c 0
 200.7578125 242.0546875 196.232421875 245.17578125 195.084960938 245.17578125 c 0
 193.916992188 245.17578125 192.032226562 241.35546875 190.799804688 236.491210938 c 0
 189.58984375 231.715820312 185.4453125 215.302734375 181.588867188 200.017578125 c 0
 173.818359375 169.216796875 168.377929688 139.124023438 166.099609375 114.333984375 c 0
 163.866210938 90.041015625 164.515625 89.5576171875 199.25390625 89.6611328125 c 0
 225.4140625 89.7421875 268.7265625 94.490234375 318.979492188 102.787109375 c 0
 330.557617188 104.69921875 348.518554688 107.360351562 359.389648438 108.776367188 c 0
 370.041992188 110.163085938 379.696289062 111.745117188 380.579101562 112.25 c 0
 381.466796875 112.755859375 393.317382812 114.736328125 406.748046875 116.623046875 c 0
 435.232421875 120.622070312 510.92578125 136.555664062 535.04296875 143.627929688 c 0
 559.125976562 150.69140625 559.125976562 150.69140625 549.963867188 179.174804688 c 0
 548.565429688 183.524414062 548.821289062 183.580078125 554.147460938 180.102539062 c 0
 557.27734375 178.05859375 576.958007812 168.918945312 598.032226562 159.723632812 c 0
 619.10546875 150.52734375 640.500976562 140.573242188 645.737304688 137.529296875 c 0
 676.603515625 119.580078125 694.546875 81.9130859375 688.668945312 47.408203125 c 0
 686.540039062 34.90234375 685.041015625 32.1640625 675.611328125 23.5556640625 c 0
 669.821289062 18.26953125 661.045898438 12.7177734375 656.389648438 11.3974609375 c 0
 651.66796875 10.0556640625 624.431640625 8.96484375 595.715820312 8.96484375 c 0
 536.603515625 8.96484375 498.453125 6.642578125 425.504882812 -1.3974609375 c 0
 397.485351562 -4.4873046875 357.624023438 -8.62890625 336.926757812 -10.6025390625 c 0
 316.298828125 -12.5712890625 278.10546875 -18.4306640625 252.400390625 -23.572265625 c 0
 216.041992188 -30.84375 201.603515625 -32.7763671875 188.137695312 -32.1767578125 c 0
 146.610351562 -30.3251953125 116.255859375 -2.61328125 105.784179688 43.0078125 c 0
 103.466796875 53.0927734375 102.221679688 69.8701171875 102.221679688 90.9443359375 c 0
 102.221679688 125.44921875 105.162109375 145.209960938 115.352539062 179.174804688 c 0
 118.415039062 189.387695312 123.036132812 206.849609375 125.495117188 217.502929688 c 0
 127.98828125 228.3046875 133.6640625 250.0390625 138.166015625 266.018554688 c 0
 151.083984375 311.870117188 151.083984375 311.870117188 138.583007812 325.997070312 c 0
 128.337890625 337.575195312 128.056640625 338.288085938 131.2890625 344.5234375 c 0
 136.3359375 354.2578125 140.431640625 356.623046875 151.083984375 355.958007812 c 0
 162.200195312 355.263671875 167.294921875 359.67578125 167.294921875 369.997070312 c 0
 167.294921875 373.293945312 169.286132812 380.41796875 171.694335938 385.744140625 c 0
 174.10546875 391.0703125 175.5703125 397.618164062 174.9375 400.21875 c 0
 174.297851562 402.83984375 178.185546875 426.733398438 183.62109375 453.596679688 c 0
 191.307617188 491.575195312 192.854492188 502.9375 190.68359375 505.469726562 c 0
 189.145507812 507.265625 182.116210938 511.638671875 174.9375 515.267578125 c 0
 156.178710938 524.74609375 141.112304688 539.122070312 134.962890625 553.407226562 c 0
 130.0078125 564.916992188 129.845703125 567.301757812 131.283203125 607.366210938 c 0
 132.1171875 630.522460938 133.756835938 652.390625 134.951171875 656.227539062 c 0
 137.045898438 662.959960938 150.853515625 673.557617188 161.736328125 676.78515625 c 0
 164.626953125 677.643554688 173.083984375 675.69140625 182.579101562 671.9765625 c 0
 197.514648438 666.131835938 200.7578125 665.74609375 232.251953125 666.071289062 c 0
 256.569335938 666.321289062 275.229492188 668.061523438 299.294921875 672.323242188 c 0
 317.58984375 675.563476562 337.243164062 678.227539062 342.83203125 678.227539062 c 0
 348.51171875 678.227539062 359.2734375 679.868164062 367.147460938 681.93359375 c 0
 374.958984375 683.983398438 390.07421875 687.030273438 400.958007812 688.75 c 0
 427.359375 692.921875 472.491210938 702.529296875 480.62109375 705.708984375 c 0
 484.319335938 707.154296875 490.926757812 707.709960938 495.326171875 706.944335938 c 0
 501.579101562 705.856445312 504.474609375 706.63671875 508.641601562 710.534179688 c 0
 512.258789062 713.915039062 522.07421875 717.223632812 539.209960938 720.838867188 c 0
EndSplineSet
EndChar

StartChar: F
Encoding: 70 70 5
Width: 792
VWidth: 884
Flags: H
HStem: 266.979 2.33203<354.681 355.291> 547.974 145.886<470.956 587.614> 723.506 3.24414<652.737 654.871>
VStem: 163.288 63.4561<1.46254 113.695> 224.888 44<173.735 276.069>
LayerCount: 2
Back
Fore
SplineSet
630.567382812 718.208984375 m 0xe8
 633.427734375 720.967773438 635.56640625 720.919921875 637.341796875 718.059570312 c 0
 638.091796875 716.853515625 636.177734375 714.868164062 633.09765625 713.659179688 c 0
 630.016601562 712.452148438 627.48828125 710.021484375 627.48828125 708.26953125 c 0
 627.48828125 705.799804688 630.567382812 706.538085938 641.127929688 711.537109375 c 0
 665.767578125 723.203125 666.469726562 719.73046875 644.213867188 696.280273438 c 0
 635.234375 686.8203125 625.508789062 674.282226562 622.538085938 668.33984375 c 0
 619.333007812 661.931640625 613.844726562 641.500976562 609.002929688 617.959960938 c 0
 600.76953125 577.919921875 598.09765625 570.815429688 588.327148438 562.96875 c 0
 572.958984375 550.625976562 568.087890625 549.4140625 528.046875 547.973632812 c 0
 455.88671875 545.379882812 382.129882812 533.546875 346.768554688 518.892578125 c 0
 333.567382812 513.422851562 332.978515625 512.834960938 328.5078125 500.700195312 c 0
 325.971679688 493.815429688 319.422851562 470.450195312 313.987304688 448.889648438 c 0
 308.552734375 427.330078125 303.095703125 407.784179688 301.887695312 405.549804688 c 0
 300.69921875 403.349609375 299.6875 400.368164062 299.6875 399.059570312 c 0
 299.6875 393.858398438 355.126953125 398.868164062 399.788085938 408.106445312 c 0
 430.603515625 414.481445312 550.047851562 444.021484375 585.908203125 454.137695312 c 0
 602.407226562 458.791992188 624.858398438 463.634765625 635.516601562 464.840820312 c 0
 646.297851562 466.05859375 657.737304688 468.0625 661.147460938 469.33203125 c 0
 671.9140625 473.337890625 672.040039062 471.879882812 661.953125 460 c 0
 646.536132812 441.842773438 642.451171875 430.959960938 630.819335938 377.059570312 c 0
 617.337890625 314.580078125 616.28515625 313.662109375 555.107421875 310.958007812 c 0
 478.546875 307.572265625 421.34375 297.422851562 354.6875 275.400390625 c 0
 333.34765625 268.349609375 330.745117188 264.559570312 350.5078125 269.311523438 c 0
 364.147460938 272.591796875 367.833007812 270.536132812 354.6875 266.979492188 c 0
 348.086914062 265.193359375 346.091796875 263.887695312 348.086914062 262.66015625 c 0
 350.038085938 261.459960938 347.8671875 260.060546875 341.267578125 258.258789062 c 0
 335.890625 256.793945312 327.186523438 254.303710938 321.6875 252.65625 c 0
 300.346679688 246.267578125 294.774414062 247.784179688 280.071289062 263.98046875 c 2
 268.887695312 276.299804688 l 1
 268.887695312 268.379882812 l 2xe8
 268.887695312 260.022460938 255.526367188 190.719726562 249.759765625 169.159179688 c 0
 247.81640625 161.900390625 246.029296875 150.515625 245.788085938 143.860351562 c 0
 245.544921875 137.205078125 241.8359375 119.879882812 237.544921875 105.359375 c 0
 229.52734375 78.23046875 226.516601562 54.98046875 226.744140625 21.98046875 c 0
 226.8125 12.080078125 225.827148438 0.9326171875 224.528320312 -3.1005859375 c 0
 220.983398438 -14.099609375 208.912109375 -18.890625 206.231445312 -10.359375 c 0
 204.297851562 -4.2001953125 191.658203125 3.431640625 188.147460938 0.5595703125 c 0
 186.046875 -1.16015625 184.76171875 -0.3505859375 183.307617188 3.6103515625 c 0
 182.211914062 6.591796875 177.297851562 13.6201171875 172.307617188 19.3408203125 c 0
 167.317382812 25.0595703125 163.288085938 29.92578125 163.288085938 30.23046875 c 0xf0
 163.288085938 30.5283203125 162.234375 36.5 160.977539062 43.3203125 c 0
 158.870117188 54.759765625 159.083007812 56.4482421875 163.397460938 62.5703125 c 0
 166.036132812 66.3115234375 168.857421875 74.33984375 169.77734375 80.720703125 c 0
 170.8984375 88.4892578125 174.002929688 95.8994140625 179.458007812 103.819335938 c 0
 183.852539062 110.200195312 188.533203125 119.6640625 189.797851562 124.720703125 c 0
 191.068359375 129.801757812 195.918945312 147.8203125 200.578125 164.759765625 c 0
 205.237304688 181.700195312 209.69140625 201.005859375 210.477539062 207.66015625 c 0
 211.2578125 214.259765625 214.857421875 228.559570312 218.397460938 239.12109375 c 0
 221.9375 249.680664062 224.887695312 261.1796875 224.887695312 264.419921875 c 0
 224.887695312 267.6953125 229.47265625 288.62109375 235.108398438 311.060546875 c 0
 247.208984375 359.239257812 247.794921875 369.233398438 239.465820312 385.419921875 c 0
 236.184570312 391.799804688 234.014648438 397.977539062 234.677734375 399.059570312 c 0
 235.354492188 400.166015625 239.1875 400.505859375 243.368164062 399.829101562 c 0
 250.564453125 398.665039062 251.071289062 399.059570312 256.787109375 410.279296875 c 0
 260.0703125 416.724609375 265.56640625 433.161132812 269.07421875 447.021484375 c 0
 278.149414062 482.880859375 277.36328125 501.231445312 267.301757812 488.380859375 c 0
 261.780273438 481.326171875 248.647460938 474.9921875 225.98828125 468.452148438 c 0
 198.047851562 460.389648438 191.76171875 460.866210938 179.787109375 471.954101562 c 0
 172.604492188 478.603515625 169.002929688 484.19921875 166.666015625 492.33984375 c 0
 161.928710938 508.840820312 156.6875 540.967773438 156.6875 553.5 c 0
 156.6875 567.790039062 154.708007812 571.2109375 136.447265625 588.455078125 c 0
 122.587890625 601.545898438 121.290039062 603.461914062 123.467773438 607.620117188 c 0
 124.87109375 610.297851562 129.077148438 612.841796875 133.477539062 613.669921875 c 0
 137.658203125 614.458007812 141.598632812 616.483398438 142.252929688 618.1796875 c 0
 144.0078125 622.748046875 164.827148438 622.030273438 188.147460938 616.59765625 c 0
 213.751953125 610.6328125 235.887695312 611.895507812 272.1875 621.393554688 c 0
 286.70703125 625.192382812 305.517578125 629.586914062 313.987304688 631.161132812 c 0
 322.568359375 632.75390625 332.9921875 635.579101562 337.52734375 637.541015625 c 0
 342.015625 639.481445312 371.626953125 647.42578125 403.528320312 655.25 c 0
 435.427734375 663.073242188 480.537109375 674.91796875 504.067382812 681.650390625 c 0
 527.607421875 688.384765625 548.079101562 693.859375 549.717773438 693.859375 c 0
 551.344726562 693.859375 563.02734375 697.788085938 575.56640625 702.549804688 c 0
 588.107421875 707.313476562 605.258789062 712.3828125 613.517578125 713.770507812 c 0
 621.877929688 715.173828125 629.46875 717.150390625 630.567382812 718.208984375 c 0xe8
647.190429688 723.559570312 m 0
 648.717773438 725.40234375 652.017578125 726.8125 654.658203125 726.75 c 0
 659.27734375 726.642578125 659.290039062 726.56640625 655.208007812 723.505859375 c 0
 649.268554688 719.05078125 643.481445312 719.08984375 647.190429688 723.559570312 c 0
EndSplineSet
EndChar

StartChar: G
Encoding: 71 71 6
Width: 792
VWidth: 884
Flags: H
VStem: 89.8541 63.5107<136.184 376.3> 462.99 72.708<32.4849 120.742 163.81 257.936> 466.452 54.2646<-37.3715 9.83261 31.9856 120.041>
LayerCount: 2
Back
Fore
SplineSet
359.336914062 673.803710938 m 0xc0
 383.349609375 677.58984375 404.780273438 677.553710938 446.760742188 673.65234375 c 0
 552.14453125 663.857421875 566.340820312 654.610351562 570.704101562 592.912109375 c 0
 572.754882812 563.916015625 571.146484375 551.086914062 563.571289062 536.000976562 c 0
 555.721679688 520.369140625 527.259765625 502.82421875 506.052734375 500.546875 c 2
 495.666015625 499.430664062 l 1
 489.694335938 510.466796875 l 2
 482.858398438 523.098632812 464.721679688 537.619140625 442.6484375 548.129882812 c 0
 428.919921875 554.666992188 427.717773438 554.844726562 392.4453125 555.54296875 c 0
 334.01953125 556.700195312 309.728515625 549.763671875 271.69921875 521.0625 c 0
 224.525390625 485.462890625 197.77734375 451.392578125 184.21484375 409.626953125 c 0
 179.928710938 396.427734375 176.485351562 384.377929688 176.485351562 382.578125 c 0
 176.485351562 380.856445312 174.7578125 376.84375 172.806640625 374.030273438 c 0
 169.203125 368.837890625 169.216796875 368.807617188 173.456054688 372.515625 c 0
 177.186523438 375.780273438 176.956054688 374.572265625 171.793945312 363.752929688 c 0
 159.842773438 338.712890625 154.578125 313.548828125 153.365234375 275.6796875 c 0
 151.508789062 217.686523438 159.724609375 166.639648438 176.98046875 128.96484375 c 0
 184.6015625 112.323242188 193.796875 103.56640625 214.354492188 93.37109375 c 0
 252.224609375 74.591796875 277.704101562 71.9970703125 307.403320312 83.8984375 c 0
 356.958007812 103.755859375 458.586914062 169.080078125 465.383789062 185.444335938 c 0
 467.630859375 190.853515625 470.608398438 255.887695312 468.703125 257.935546875 c 0
 466.891601562 259.881835938 416.8984375 249.358398438 386.603515625 240.653320312 c 0
 376.637695312 237.790039062 355.768554688 230.005859375 340.403320312 223.420898438 c 2
 312.380859375 211.412109375 l 1
 290.090820312 222.231445312 l 1
 267.803710938 233.05078125 l 1
 266.288085938 267.997070312 l 2
 264.966796875 298.508789062 264.142578125 304.139648438 259.796875 312.358398438 c 2
 254.819335938 321.771484375 l 1
 268.127929688 327.396484375 l 2
 278.161132812 331.638671875 284.8984375 332.948242188 295.501953125 332.716796875 c 0
 310.7109375 332.3828125 313.029296875 332.88671875 392.877929688 353.90625 c 0
 422.091796875 361.59765625 464.354492188 372.575195312 487.009765625 378.359375 c 0
 509.731445312 384.159179688 534.900390625 391.459960938 543.272460938 394.6796875 c 0
 558.236328125 400.434570312 663.587890625 427.904296875 687.82421875 432.370117188 c 0
 707.298828125 435.958007812 708.712890625 434.04296875 696.311523438 420.879882812 c 0
 679.033203125 402.540039062 669.412109375 378.68359375 661.404296875 334.323242188 c 0
 657.067382812 310.302734375 653.006835938 301.483398438 640.6484375 289.243164062 c 0
 633.928710938 282.587890625 632.859375 282.358398438 622.47265625 285.337890625 c 0
 614.25 287.698242188 566.862304688 282.466796875 562.314453125 278.697265625 c 0
 560.854492188 277.487304688 559.102539062 273.515625 558.3125 269.62109375 c 0
 557.5390625 265.811523438 554.672851562 254.90625 551.944335938 245.384765625 c 0
 545.620117188 223.313476562 535.698242188 170.5859375 535.698242188 159.043945312 c 0xc0
 535.698242188 154.138671875 533.715820312 133.725585938 531.262695312 113.384765625 c 0
 528.827148438 93.19140625 525.947265625 53.66015625 524.87890625 25.744140625 c 0
 523.809570312 -2.169921875 521.93359375 -27.7421875 520.716796875 -30.9501953125 c 0
 517.6015625 -39.1728515625 509.69921875 -45.6650390625 502.805664062 -45.6650390625 c 0
 498.305664062 -45.6650390625 492.8515625 -41.9921875 481.600585938 -31.3828125 c 0
 473.16015625 -23.42578125 466.452148438 -16.1416015625 466.452148438 -14.9375 c 0xa0
 466.452148438 -9.5859375 443.08203125 13.6591796875 430.315429688 21.005859375 c 0
 411.616210938 31.765625 412.137695312 35.037109375 432.262695312 33.2255859375 c 2
 448.059570312 31.8046875 l 1
 452.819335938 43.380859375 l 2
 456.67578125 52.7587890625 457.559570312 59.0703125 457.471679688 76.59765625 c 0
 457.401367188 90.6630859375 458.5390625 101.986328125 460.71875 108.948242188 c 0
 462.546875 114.791015625 463.581054688 120.151367188 462.990234375 120.7421875 c 0
 461.950195312 121.782226562 460.393554688 120.501953125 422.741210938 87.6376953125 c 0
 377.514648438 48.1630859375 329.779296875 19.1943359375 297.666015625 11.734375 c 0
 253.3046875 1.431640625 205.856445312 13.7109375 168.479492188 45.1689453125 c 0
 143.41015625 66.2685546875 126.2265625 92.8271484375 113.841796875 129.61328125 c 0
 111.657226562 136.106445312 107.721679688 146.237304688 105.18359375 151.90234375 c 0
 102.645507812 157.568359375 99.646484375 169.86328125 98.583984375 178.951171875 c 0
 97.5205078125 188.040039062 94.6142578125 202.892578125 92.1875 211.626953125 c 0
 87.0830078125 230.005859375 86.34765625 258.3671875 89.8544921875 301.647460938 c 0
 97.69140625 398.375 116.930664062 461.291015625 162.181640625 538.165039062 c 0
 168.935546875 549.637695312 198.774414062 582.93359375 227.987304688 611.592773438 c 0
 237.66796875 621.088867188 256.334960938 633.622070312 279.705078125 646.315429688 c 0
 310.447265625 663.010742188 326.87890625 668.682617188 359.336914062 673.803710938 c 0xc0
EndSplineSet
EndChar

StartChar: H
Encoding: 72 72 7
Width: 792
VWidth: 884
Flags: H
VStem: 155.562 91.1006<74.2017 304.757> 525.027 70.1846<81.5498 337.172>
LayerCount: 2
Back
Fore
SplineSet
583.762695312 701.291992188 m 0
 606.330078125 708.778320312 624.34765625 704.006835938 641.5703125 685.981445312 c 0
 662.79296875 663.771484375 663.936523438 650.426757812 648.784179688 601.885742188 c 0
 626.984375 532.053710938 613.91796875 478.43359375 608.422851562 436.24609375 c 0
 602.762695312 392.814453125 599.694335938 356.953125 598.692382812 322.557617188 c 0
 598.090820312 301.905273438 596.529296875 274.57421875 595.211914062 261.666992188 c 0
 592.713867188 237.168945312 595.6171875 130.092773438 600.00390625 84.95703125 c 0
 601.14453125 73.2109375 602.548828125 49.8271484375 603.13671875 32.7958984375 c 2
 604.200195312 1.9248046875 l 1
 591.321289062 -13.9365234375 l 2
 584.231445312 -22.666015625 578.440429688 -30.6591796875 578.440429688 -31.7138671875 c 0
 578.440429688 -36.787109375 555.446289062 -27.560546875 545.866210938 -18.6435546875 c 0
 532.666015625 -6.3603515625 446.439453125 129.646484375 446.439453125 138.182617188 c 0
 446.439453125 139.123046875 453.359375 133.30078125 461.875976562 125.1953125 c 0
 470.364257812 117.115234375 484.975585938 103.943359375 494.34375 95.921875 c 2
 511.375976562 81.3369140625 l 1
 512.727539062 94.9638671875 l 2
 514.012695312 107.903320312 514.883789062 123.279296875 522.119140625 260.602539062 c 0
 523.935546875 295.092773438 524.8515625 326.528320312 524.149414062 330.329101562 c 2
 522.873046875 337.24609375 l 1
 506.478515625 337.24609375 l 2
 488.5 337.24609375 427.065429688 331.967773438 407.052734375 328.702148438 c 0
 382.35546875 324.673828125 315.268554688 316.079101562 291.020507812 313.838867188 c 0
 259.72265625 310.946289062 258.543945312 310.658203125 255.146484375 305.098632812 c 0
 251.15625 298.571289062 248.454101562 243.357421875 246.662109375 131.795898438 c 0
 245.002929688 28.32421875 245.263671875 30.3740234375 232.897460938 23.1845703125 c 0
 228.319335938 20.5234375 224.275390625 19.9521484375 217.249023438 20.9794921875 c 0
 209.274414062 22.14453125 203.73046875 25.7685546875 182.228515625 43.8671875 c 0
 168.174804688 55.693359375 154.1875 69.1064453125 151.142578125 73.6728515625 c 0
 143.634765625 84.9365234375 142.950195312 97.3046875 148.2109375 126.686523438 c 0
 153.662109375 157.131835938 157.231445312 196.83203125 155.561523438 208.440429688 c 0
 154.642578125 214.827148438 154.920898438 216.159179688 156.678710938 213.763671875 c 0
 158.499023438 211.280273438 159.020507812 212.69921875 159.020507812 220.149414062 c 0
 159.020507812 225.44140625 161.545898438 247.508789062 164.663085938 269.4375 c 0
 167.779296875 291.3671875 169.732421875 310.62109375 169.02734375 312.443359375 c 0
 168.334960938 314.231445312 163.06640625 318.125 157.530273438 320.940429688 c 0
 138.58203125 330.575195312 131.1015625 343.35546875 133.405273438 362.157226562 c 0
 134.899414062 374.344726562 139.43359375 378.90625 151.78125 380.640625 c 0
 169.87890625 383.180664062 173.512695312 384.267578125 174.721679688 387.493164062 c 0
 175.334960938 389.125976562 178.37109375 410.486328125 181.439453125 434.756835938 c 0
 187.3359375 481.3828125 190.609375 544.538085938 188.833007812 577.40234375 c 0
 187.7734375 596.989257812 187.677734375 597.275390625 179.991210938 604.014648438 c 0
 175.733398438 607.748046875 171.6875 612.752929688 171.041015625 615.0859375 c 0
 169.18359375 621.791992188 175.75390625 633.608398438 192.942382812 654.47265625 c 0
 212.495117188 678.209960938 216.504882812 679.93359375 243.96875 676.409179688 c 0
 253.975585938 675.125976562 267.684570312 672.029296875 274.201171875 669.581054688 c 0
 292.936523438 662.544921875 314.552734375 646.162109375 327.000976562 629.563476562 c 0
 345.84375 604.440429688 345.642578125 596.125976562 325.723632812 576.65234375 c 0
 307.75 559.080078125 296.634765625 534.608398438 281.7734375 479.892578125 c 0
 275.239257812 455.833984375 264.236328125 393.111328125 266.19921875 391.112304688 c 0
 267.546875 389.740234375 384.272460938 409.392578125 428.342773438 418.41015625 c 0
 487.956054688 430.608398438 512.576171875 437.563476562 518.618164062 443.911132812 c 0
 521.196289062 446.62109375 523.720703125 453.91796875 525.02734375 462.434570312 c 0
 528.693359375 486.342773438 532.58984375 553.556640625 532.51953125 591.666015625 c 0
 532.461914062 622.962890625 531.862304688 629.443359375 528.088867188 639.5703125 c 0
 525.70703125 645.956054688 524.303710938 652.875976562 525.000976562 654.79296875 c 0
 525.69921875 656.711914062 531.588867188 666.077148438 537.989257812 675.443359375 c 0
 549.189453125 691.836914062 550.161132812 692.6796875 560.342773438 694.818359375 c 0
 566.197265625 696.048828125 576.736328125 698.959960938 583.762695312 701.291992188 c 0
EndSplineSet
EndChar

StartChar: I
Encoding: 73 73 8
Width: 554
VWidth: 884
Flags: HW
VStem: 200.886 91.8682<7.96171 234.713> 206.005 79.2217<4.45888 73.7529> 230.527 116.454<559.055 671.185>
LayerCount: 2
Back
Fore
SplineSet
276.466796875 685.534179688 m 0x20
 283.880859375 689.951171875 302.440429688 687.741210938 313.938476562 681.07421875 c 0
 324.498046875 674.948242188 339.91796875 657.666992188 346.981445312 644.040039062 c 0x20
 354.092773438 630.321289062 355.220703125 600.821289062 349.309570312 583.150390625 c 0
 344.517578125 568.825195312 333.065429688 522.686523438 322.358398438 474.569335938 c 0
 309.970703125 418.897460938 303.444335938 371.3125 298.85546875 303.182617188 c 0
 297.078125 276.783203125 294.671875 246.295898438 293.5 235.266601562 c 0
 292.264648438 223.6640625 291.951171875 198.43359375 292.75390625 175.227539062 c 0x80
 293.80078125 144.94921875 293.255859375 125.1953125 290.518554688 94.1123046875 c 0
 288.53125 71.5439453125 286.14453125 43.80859375 285.2265625 32.58203125 c 0
 283.169921875 7.4609375 276.142578125 -9.8251953125 265.822265625 -15.1435546875 c 0
 257.092773438 -19.642578125 253.000976562 -18.607421875 248.822265625 -10.849609375 c 0
 246.705078125 -6.9189453125 241.125 -2.392578125 234.3125 0.9169921875 c 0
 220.685546875 7.5380859375 212.508789062 15.39453125 206.004882812 28.111328125 c 0x40
 201.178710938 37.546875 200.885742188 40.24609375 200.885742188 75.3759765625 c 0x80
 200.885742188 95.8193359375 201.620117188 131.369140625 202.509765625 154.151367188 c 0
 204.049804688 193.52734375 205.119140625 208.440429688 210.37890625 264.008789062 c 0
 211.608398438 276.99609375 212.595703125 294.302734375 212.595703125 302.86328125 c 0
 212.595703125 311.419921875 213.484375 327.02734375 214.590820312 337.885742188 c 0
 217.602539062 367.479492188 220.854492188 409.796875 222.23046875 437.310546875 c 0
 222.900390625 450.724609375 223.88671875 463.720703125 224.412109375 466.053710938 c 0
 224.938476562 468.396484375 225.658203125 508.633789062 226.009765625 555.47265625 c 0
 226.58984375 632.969726562 226.99609375 641.303710938 230.52734375 648.086914062 c 0
 235.338867188 657.328125 251.130859375 672.083007812 262.415039062 677.87890625 c 0
 267.311523438 680.395507812 273.48046875 683.754882812 276.466796875 685.534179688 c 0x20
EndSplineSet
EndChar

StartChar: J
Encoding: 74 74 9
Width: 633
VWidth: 884
Flags: HW
VStem: 378.577 70.3057<133.01 517.184>
LayerCount: 2
Back
Fore
SplineSet
410.196289062 699.040039062 m 0
 428.236328125 706.536132812 488.131835938 672.276367188 501.89453125 646.58984375 c 0
 509.725585938 631.971679688 509.474609375 623.685546875 500.721679688 608.060546875 c 0
 488.405273438 586.073242188 475.357421875 545.985351562 468.604492188 509.380859375 c 0
 463.688476562 482.740234375 456.9921875 422.26171875 455.473632812 390.795898438 c 0
 454.70703125 374.956054688 453.159179688 357.690429688 452.043945312 352.586914062 c 0
 450.918945312 347.435546875 449.505859375 329.790039062 448.8828125 313.09375 c 0
 443.075195312 157.690429688 438.287109375 95.0166015625 428.982421875 52.58984375 c 0
 420.766601562 15.1298828125 411.982421875 -0.4560546875 394.998046875 -7.7119140625 c 0
 382.434570312 -13.080078125 360.750976562 -13.0126953125 346.408203125 -7.560546875 c 0
 340.474609375 -5.3046875 325.216796875 -0.16796875 312.159179688 3.9697265625 c 0
 283.763671875 12.9697265625 243.021484375 32.501953125 205.774414062 54.970703125 c 0
 156.756835938 84.54296875 135.565429688 101.526367188 135.565429688 111.240234375 c 0
 135.565429688 114.237304688 136.109375 116.805664062 136.743164062 116.805664062 c 0
 137.399414062 116.805664062 142.84375 113.065429688 149.05078125 108.3515625 c 0
 155.258789062 103.635742188 160.62890625 100.370117188 161.192382812 100.965820312 c 0
 162.765625 102.630859375 153.33203125 110.133789062 137.70703125 119.64453125 c 0
 130.428710938 124.075195312 124.91796875 128.206054688 125.504882812 128.793945312 c 0
 126.49609375 129.783203125 169.598632812 112.799804688 181.586914062 106.6953125 c 0
 185.029296875 104.942382812 198.283203125 100.618164062 211.340820312 96.98828125 c 0
 236.970703125 89.8623046875 245.16015625 89.3291015625 306.59375 90.7724609375 c 2
 339.55859375 91.5478515625 l 1
 347.478515625 99.4677734375 l 2
 356.512695312 108.501953125 363.540039062 127.293945312 371.170898438 162.827148438 c 0
 377.012695312 190.032226562 380.236328125 279.915039062 378.577148438 369.389648438 c 0
 377.955078125 402.989257812 376.958007812 461.646484375 376.358398438 499.962890625 c 0
 374.872070312 595.002929688 372.653320312 638.624023438 368.95703125 645.51953125 c 0
 364.336914062 654.138671875 366.473632812 659.861328125 379.103515625 672.705078125 c 0
 394.47265625 688.330078125 404.151367188 696.529296875 410.196289062 699.040039062 c 0
EndSplineSet
EndChar

StartChar: K
Encoding: 75 75 10
Width: 792
VWidth: 884
Flags: H
VStem: 185.219 71.8955<38.0397 118.642> 487.025 125.913<542.974 605.005> 547.674 1.95898<184.323 186.529>
LayerCount: 2
Back
Fore
SplineSet
241.352539062 651.41796875 m 0xa0
 250.359375 658.600585938 256.346679688 659.201171875 274.993164062 654.79296875 c 0
 298.444335938 649.25 348.869140625 623.706054688 367.840820312 607.755859375 c 0
 374.471679688 602.18359375 374.563476562 601.909179688 374.163085938 588.836914062 c 0
 373.598632812 570.381835938 370.6640625 559.02734375 362.14453125 542.315429688 c 0
 345.58203125 509.828125 329.774414062 467.59765625 324.443359375 441.586914062 c 0
 320.029296875 420.056640625 322.137695312 419.578125 341.311523438 437.759765625 c 0
 357.776367188 453.372070312 406.288085938 493.373046875 427.817382812 509.08984375 c 0
 440.311523438 518.211914062 487.025390625 562.9296875 487.025390625 565.768554688 c 0
 487.025390625 566.614257812 474.915039062 556.493164062 460.112304688 543.278320312 c 0
 445.311523438 530.060546875 432.767578125 519.248046875 432.239257812 519.248046875 c 0
 429.798828125 519.248046875 435.849609375 527.129882812 452.75 545.96875 c 0
 462.581054688 556.926757812 472.857421875 568.654296875 475.4921875 571.920898438 c 0
 478.138671875 575.202148438 483.104492188 580.859375 486.543945312 584.510742188 c 0
 489.986328125 588.165039062 492.79296875 592.1796875 492.79296875 593.451171875 c 0
 492.79296875 596.549804688 513.74609375 624.352539062 522.01171875 632.220703125 c 2
 528.739257812 638.624023438 l 1
 540.466796875 634.685546875 l 2
 561.997070312 627.450195312 581.124023438 617.086914062 588.546875 608.63671875 c 0
 592.4140625 604.233398438 599.569335938 591.912109375 604.288085938 581.532226562 c 0
 611.802734375 565 612.938476562 560.796875 612.938476562 549.524414062 c 0xc0
 612.938476562 537.4140625 612.553710938 536.229492188 607.170898438 531.750976562 c 0
 598.610351562 524.626953125 565.649414062 502.779296875 552.768554688 495.693359375 c 0
 546.529296875 492.258789062 509.516601562 468.177734375 470.493164062 442.163085938 c 0
 431.469726562 416.147460938 389.528320312 388.7109375 377.260742188 381.17578125 c 0
 348.041015625 363.2265625 345.86328125 361.416015625 347.4921875 356.426757812 c 0
 348.213867188 354.21484375 357.19140625 343.354492188 367.35546875 332.397460938 c 0
 391.184570312 306.709960938 414.374023438 279.7265625 437.234375 251.083007812 c 0
 471.603515625 208.0234375 515.99609375 160.380859375 530.85546875 150.608398438 c 0
 536.9609375 146.59375 538.51953125 148.815429688 541.864257812 166.30859375 c 0
 543.408203125 174.381835938 546.049804688 183.469726562 547.674804688 186.30078125 c 0
 550.514648438 191.247070312 550.606445312 190.723632812 549.633789062 175.151367188 c 0
 548.576171875 158.234375 549.655273438 149.456054688 552.576171875 151.2265625 c 0
 553.53125 151.805664062 554.306640625 159.29296875 554.306640625 167.942382812 c 0
 554.306640625 176.977539062 555.040039062 182.836914062 556.037109375 181.783203125 c 0
 556.989257812 180.779296875 560.588867188 171.306640625 564.037109375 160.734375 c 0
 572.690429688 134.206054688 584.703125 105.959960938 595.108398438 87.685546875 c 0
 605.395507812 69.615234375 608.1328125 60.9326171875 608.1328125 46.3544921875 c 0
 608.1328125 36.9365234375 607.555664062 35.4267578125 602.846679688 32.513671875 c 0
 599.962890625 30.732421875 595.288085938 27.384765625 592.561523438 25.15234375 c 0
 586.146484375 19.8955078125 569.493164062 19.5791015625 552.384765625 24.388671875 c 0
 540.536132812 27.71875 538.736328125 29.0498046875 517.590820312 50.1181640625 c 0
 492.889648438 74.728515625 477.998046875 92.298828125 435.567382812 146.892578125 c 0
 397.618164062 195.720703125 355.93359375 253.36328125 328.520507812 294.912109375 c 0
 309.243164062 324.1328125 305.543945312 328.73046875 300.3671875 329.907226562 c 0
 291.525390625 331.91796875 288.90625 328.16796875 286.798828125 310.483398438 c 0
 285.802734375 302.130859375 283.171875 283.186523438 280.952148438 268.383789062 c 0
 278.731445312 253.58203125 276.22265625 234.551757812 275.375976562 226.092773438 c 0
 274.53125 217.634765625 272.067382812 200.333984375 269.90234375 187.646484375 c 0
 266.270507812 166.361328125 264.65234375 153.813476562 259.85546875 109.79296875 c 0
 258.876953125 100.802734375 257.643554688 80.0927734375 257.115234375 63.7529296875 c 0
 256.231445312 36.455078125 255.811523438 33.7099609375 251.92578125 29.8232421875 c 0
 249.6171875 27.515625 246.561523438 24.1962890625 245.200195312 22.5185546875 c 0
 240.743164062 17.0244140625 234.047851562 19.17578125 215.78515625 31.9677734375 c 0
 205.7890625 38.9697265625 194.923828125 45.87109375 191.466796875 47.412109375 c 0
 186.086914062 49.8134765625 185.219726562 51.1611328125 185.219726562 57.12109375 c 0
 185.219726562 60.916015625 183.77734375 69.423828125 182.026367188 75.958984375 c 0
 178.008789062 90.953125 178.0859375 111.165039062 182.192382812 119.01953125 c 0
 186.311523438 126.900390625 188.819335938 128.125 192.043945312 123.82421875 c 0
 194.53515625 120.50390625 194.646484375 120.556640625 194.827148438 125.169921875 c 0
 195.086914062 131.869140625 197.59375 153.428710938 202.42578125 190.530273438 c 0
 204.705078125 208.0234375 206.90234375 226.127929688 207.326171875 230.8984375 c 0
 207.74609375 235.6171875 208.966796875 244.354492188 210.013671875 250.123046875 c 0
 213.849609375 271.267578125 216.475585938 287.725585938 217.373046875 296.258789062 c 0
 218.263671875 304.715820312 218.200195312 304.83203125 214.53515625 301.448242188 c 0
 211.459960938 298.609375 210.407226562 298.436523438 208.671875 300.487304688 c 0
 207.149414062 302.286132812 207.607421875 304.33203125 210.306640625 307.79296875 c 0
 213.3046875 311.63671875 214.0546875 315.866210938 214.0546875 328.938476562 c 0
 214.0546875 337.923828125 215.849609375 355.659179688 218.043945312 368.345703125 c 0
 222.448242188 393.802734375 226.165039062 469.653320312 225.948242188 529.62890625 c 0
 225.791015625 573.266601562 225.278320312 576.168945312 217.129882812 579.6171875 c 0
 213.669921875 581.081054688 208.93359375 584.659179688 206.708984375 587.491210938 c 0
 202.479492188 592.874023438 200.959960938 603.831054688 204.442382812 603.831054688 c 0
 205.529296875 603.831054688 206.365234375 605.752929688 206.365234375 608.252929688 c 0
 206.365234375 610.728515625 207.821289062 614.788085938 209.671875 617.479492188 c 0
 215.491210938 625.938476562 233.231445312 644.943359375 241.352539062 651.41796875 c 0xa0
EndSplineSet
EndChar

StartChar: L
Encoding: 76 76 11
Width: 792
VWidth: 884
Flags: H
HStem: 50.5908 101.308<349.951 500.936>
VStem: 214.597 44.5537<120.908 225.719>
LayerCount: 2
Back
Fore
SplineSet
287.421875 651.373046875 m 0
 288.861328125 653.131835938 292.086914062 654.514648438 294.750976562 654.514648438 c 0
 304.137695312 654.514648438 334.733398438 642.590820312 359.86328125 629.139648438 c 0
 382.900390625 616.809570312 385.715820312 614.74609375 388.896484375 607.870117188 c 0
 390.870117188 603.60546875 392.418945312 596.06640625 392.418945312 590.735351562 c 0
 392.418945312 580.903320312 391.357421875 577.978515625 368.081054688 523.719726562 c 0
 347.111328125 474.837890625 326.375 411.012695312 311.669921875 350.08984375 c 0
 309.049804688 339.237304688 306.171875 329.500976562 305.223632812 328.290039062 c 0
 304.276367188 327.080078125 302.913085938 321.627929688 302.17578125 316.104492188 c 0
 301.452148438 310.66796875 299.23828125 300.68359375 297.321289062 294.2109375 c 0
 295.380859375 287.649414062 290.254882812 266.510742188 285.899414062 247.090820312 c 0
 281.54296875 227.671875 276.2890625 205.036132812 274.190429688 196.639648438 c 0
 272.096679688 188.262695312 269.654296875 176.266601562 268.763671875 169.985351562 c 0
 267.879882812 163.741210938 265.333984375 152.08984375 263.149414062 144.282226562 c 0
 260.962890625 136.477539062 259.150390625 127.630859375 259.150390625 124.768554688 c 0
 259.150390625 119.8828125 259.721679688 119.532226562 267.716796875 119.532226562 c 0
 275.073242188 119.532226562 321.215820312 125.21875 338.159179688 128.213867188 c 0
 388.80078125 137.163085938 435.934570312 144.568359375 451.62890625 146.041015625 c 0
 462.48046875 147.059570312 476.075195312 148.803710938 481.708984375 149.899414062 c 0
 487.420898438 151.010742188 495.62890625 151.8984375 500.17578125 151.8984375 c 0
 511.568359375 151.8984375 511.028320312 154.99609375 497.51171875 167.217773438 c 0
 487.991210938 175.825195312 487.536132812 176.549804688 493.799804688 173.127929688 c 0
 497.796875 170.94140625 500.9375 169.600585938 500.9375 170.079101562 c 0
 500.9375 170.549804688 497.407226562 174.553710938 493.1328125 178.932617188 c 0
 488.858398438 183.3125 486.102539062 187.190429688 487.041015625 187.5078125 c 0
 490.651367188 188.727539062 540.538085938 172.232421875 557.483398438 164.215820312 c 0
 574.045898438 156.37890625 591.754882812 142.76953125 596.297851562 134.3828125 c 0
 598.796875 129.766601562 605.015625 91.35546875 606.40625 71.9375 c 0
 607.715820312 53.66015625 605.177734375 45.8115234375 595.75 38.9736328125 c 0
 590.819335938 35.3974609375 590.704101562 35.4091796875 567.287109375 41.5703125 c 0
 554.340820312 44.9775390625 537.358398438 49.03125 529.49609375 50.5908203125 c 0
 500.390625 56.3642578125 369.3828125 53.5966796875 321.787109375 46.2021484375 c 0
 292.466796875 41.6474609375 280.0703125 36.2021484375 259.150390625 18.68359375 c 0
 251.534179688 12.306640625 243.918945312 7.2060546875 242.015625 7.2060546875 c 0
 240.126953125 7.2060546875 233.162109375 9.76953125 226.499023438 12.9169921875 c 0
 219.836914062 16.0654296875 213.469726562 18.62890625 212.315429688 18.62890625 c 0
 209.057617188 18.62890625 202.637695312 26.81640625 200.370117188 33.8603515625 c 0
 199.200195312 37.5009765625 196.930664062 49.3779296875 195.37109375 60.0380859375 c 0
 193.811523438 70.7001953125 190.817382812 84.04296875 188.774414062 89.453125 c 0
 183.880859375 102.3984375 183.986328125 104.779296875 189.908203125 114.96484375 c 0
 194.654296875 123.127929688 201.16015625 144.665039062 206.702148438 170.555664062 c 0
 208.12890625 177.219726562 210.70703125 184.158203125 212.505859375 186.166992188 c 0
 214.209960938 188.071289062 215.19921875 191.228515625 214.596679688 192.831054688 c 0
 213.235351562 196.448242188 218.263671875 209.014648438 221.07421875 209.014648438 c 0
 222.254882812 209.014648438 222.724609375 214.25 222.311523438 222.81640625 c 0
 221.795898438 233.478515625 222.489257812 238.309570312 225.356445312 244.044921875 c 0
 227.92578125 249.185546875 228.6875 253.4609375 227.83203125 257.942382812 c 0
 226.921875 262.703125 227.624023438 266.079101562 230.487304688 270.698242188 c 0
 236.032226562 279.646484375 241.08203125 300.189453125 238.399414062 302.873046875 c 0
 235.286132812 305.986328125 235.923828125 309.916992188 239.541015625 309.916992188 c 0
 242.485351562 309.916992188 242.954101562 311.727539062 242.872070312 322.768554688 c 0
 242.8203125 329.8125 241.659179688 337.641601562 240.30078125 340.09375 c 0
 238.874023438 342.67578125 238.374023438 346.662109375 239.12109375 349.516601562 c 0
 244.109375 368.59765625 245.486328125 393.6875 245.650390625 468.5078125 c 2
 245.82421875 548.08984375 l 1
 240.30078125 556.084960938 l 2
 237.278320312 560.46484375 232.541992188 566.165039062 229.830078125 568.6875 c 0
 223.510742188 574.568359375 223.470703125 581.977539062 229.685546875 595.303710938 c 0
 235.548828125 607.876953125 255.913085938 629.189453125 272.475585938 640.087890625 c 0
 279.330078125 644.598632812 285.999023438 649.633789062 287.421875 651.373046875 c 0
EndSplineSet
EndChar

StartChar: M
Encoding: 77 77 12
Width: 792
VWidth: 884
Flags: H
HStem: 433.828 20G<464.247 465.958>
VStem: 81.3384 103.164<32.8157 194.263> 604.391 73.7598<145.842 539.354> 628.552 62.835<-8.7888 31.2997>
LayerCount: 2
Back
Fore
SplineSet
633.655273438 699.912109375 m 0xe0
 640.5625 703.416992188 644.4921875 703.966796875 656.581054688 703.118164062 c 0
 677.630859375 701.640625 701.390625 691.46484375 701.390625 683.924804688 c 0
 701.390625 682.232421875 702.897460938 678.506835938 704.676757812 675.796875 c 0
 713.421875 662.478515625 712.498046875 617.23046875 702.46875 567.8359375 c 0
 696.162109375 536.767578125 688.297851562 474.87890625 683.744140625 420.481445312 c 0
 681.875976562 398.180664062 679.354492188 369.493164062 678.151367188 356.912109375 c 0xe0
 676.9453125 344.275390625 675.514648438 295.63671875 674.962890625 248.533203125 c 0
 673.897460938 157.453125 676.552734375 101.413085938 684.137695312 54.9111328125 c 0
 686.994140625 37.4033203125 687.270507812 32.001953125 685.342773438 31.359375 c 0
 681.590820312 30.1083984375 682.005859375 27.3984375 686.999023438 20.521484375 c 0
 690.498046875 15.701171875 691.387695312 11.3505859375 691.387695312 -0.947265625 c 0
 691.387695312 -17.203125 688.5390625 -27.6240234375 684.092773438 -27.6240234375 c 0
 678.046875 -27.6240234375 655.741210938 -16.185546875 654.830078125 -12.6181640625 c 0
 654.203125 -10.1650390625 651.995117188 -8.8671875 648.452148438 -8.8671875 c 0
 640.369140625 -8.8671875 634.0078125 -0.73828125 628.552734375 16.560546875 c 0xd0
 618.823242188 47.408203125 617.861328125 49.4716796875 611.770507812 52.568359375 c 0
 608.578125 54.1923828125 596.963867188 67.6240234375 586.135742188 82.2138671875 c 0
 575.307617188 96.8037109375 558.684570312 116.825195312 549.452148438 126.3984375 c 0
 540.20703125 135.986328125 532.5703125 144.66015625 532.5703125 145.57421875 c 0
 532.5703125 150.459960938 539.447265625 145.365234375 564.041992188 122.265625 c 0
 578.83984375 108.366210938 590.927734375 98.0419921875 590.927734375 99.3046875 c 0
 590.927734375 100.579101562 586.899414062 105.764648438 581.862304688 110.975585938 c 0
 572.998046875 120.147460938 572.916015625 120.35546875 578.21484375 120.35546875 c 0
 592.387695312 120.35546875 593.01171875 120.708007812 593.01171875 128.692382812 c 0
 593.01171875 132.78515625 593.930664062 141.404296875 595.033203125 147.657226562 c 0
 597.827148438 163.517578125 603.045898438 296.471679688 604.391601562 386.092773438 c 0
 605.010742188 427.359375 606.126953125 479.177734375 606.872070312 501.244140625 c 0
 607.673828125 525.004882812 607.462890625 541.364257812 606.3515625 541.364257812 c 0
 604.326171875 541.364257812 556.362304688 454.036132812 539.958007812 420.481445312 c 0
 534.66015625 409.643554688 527.0234375 394.548828125 523.086914062 387.1328125 c 0
 519.151367188 379.717773438 512.029296875 364.624023438 507.3515625 353.787109375 c 0
 502.631835938 342.849609375 493.838867188 324.19140625 487.709960938 312.1015625 c 0
 476.67578125 290.338867188 463.666992188 259.1640625 456.490234375 237.279296875 c 0
 451.364257812 221.647460938 431.702148438 180.243164062 424.224609375 169.333007812 c 0
 419.841796875 162.940429688 414.5 158.5546875 406.579101562 154.84765625 c 0
 400.328125 151.922851562 394.284179688 149.533203125 393.13671875 149.533203125 c 0
 388.365234375 149.533203125 375.405273438 163.706054688 362.833007812 182.672851562 c 0
 336.58203125 222.272460938 309.76171875 282.297851562 279.388671875 369.41796875 c 0
 271.759765625 391.301757812 262.3671875 417.083984375 258.392578125 427.046875 c 0
 254.40234375 437.05078125 250.599609375 447.997070312 249.84765625 451.639648438 c 0
 249.115234375 455.18359375 247.4375 457.874023438 246.200195312 457.485351562 c 0
 241.294921875 455.947265625 229.12890625 410.684570312 216.646484375 347.533203125 c 0
 201.244140625 269.62109375 189.028320312 167.041015625 184.502929688 77.6279296875 c 0
 182.045898438 29.06640625 179.560546875 13.1845703125 172.828125 3.013671875 c 0
 165.081054688 -8.69140625 154.703125 -6.880859375 134.486328125 9.7021484375 c 0
 129.328125 13.9326171875 119.479492188 21.2001953125 112.6015625 25.8505859375 c 0
 83.55078125 45.494140625 81.3388671875 50.1162109375 81.3388671875 91.17578125 c 0
 81.3388671875 119.104492188 85.9970703125 170.842773438 90.1572265625 189.1328125 c 2
 91.3427734375 194.344726562 l 1
 93.115234375 189.1328125 l 2
 94.373046875 185.432617188 94.6748046875 187.153320312 94.15625 195.07421875 c 0
 93.6650390625 202.577148438 94.2802734375 206.53125 96.0322265625 207.162109375 c 0
 98.099609375 207.90625 98.01171875 209.350585938 95.615234375 214.14453125 c 0
 92.0712890625 221.23046875 93.634765625 226.079101562 98.220703125 222.224609375 c 0
 99.8876953125 220.823242188 101.674804688 220.307617188 102.389648438 221.022460938 c 0
 104.700195312 223.333007812 107.671875 257.079101562 106.501953125 267.708007812 c 0
 105.3984375 277.711914062 105.66796875 278.594726562 109.99609375 279.171875 c 0
 114.126953125 279.721679688 114.84765625 281.463867188 116.041015625 293.760742188 c 0
 116.7890625 301.47265625 117.919921875 308.565429688 118.568359375 309.6015625 c 0
 120.1796875 312.1796875 125.106445312 346.075195312 129.231445312 382.96484375 c 0
 131.095703125 399.639648438 134.852539062 422.997070312 137.612304688 435.071289062 c 0
 140.375976562 447.159179688 143.173828125 463.018554688 143.865234375 470.501953125 c 0
 145.077148438 483.6328125 145.013671875 483.873046875 141.78125 478.318359375 c 0
 139.952148438 475.173828125 137.505859375 464.353515625 136.362304688 454.349609375 c 0
 135.217773438 444.344726562 132.537109375 430.9375 130.421875 424.649414062 c 0
 128.30078125 418.345703125 125.045898438 400.055664062 123.1875 384.0078125 c 0
 117.901367188 338.36328125 113.083007812 314.186523438 109.267578125 314.186523438 c 0
 106.249023438 314.186523438 106.9453125 334.612304688 110.41015625 347.7421875 c 0
 112.068359375 354.022460938 114.895507812 369.522460938 116.666015625 382.02734375 c 0
 118.436523438 394.533203125 121.357421875 412.38671875 123.127929688 421.5234375 c 0
 124.904296875 430.693359375 126.263671875 441.291992188 126.149414062 445.075195312 c 0
 126.034179688 448.852539062 129.322265625 465.29296875 133.444335938 481.547851562 c 0
 140.359375 508.826171875 141.094726562 514.688476562 142.823242188 556.372070312 c 0
 144.189453125 589.301757812 145.537109375 603.185546875 147.783203125 607.435546875 c 0
 152.627929688 616.604492188 184 651.365234375 192.427734375 656.900390625 c 0
 201.180664062 662.650390625 214.727539062 666.268554688 227.858398438 666.364257812 c 0
 246.708984375 666.502929688 273.874023438 645.575195312 285.1484375 622.232421875 c 0
 292.979492188 606.015625 299.859375 579.297851562 308.650390625 530.944335938 c 0
 317.70703125 481.131835938 334.505859375 407.385742188 344.2109375 374.836914062 c 0
 358.940429688 325.44140625 372.237304688 287.467773438 375.211914062 286.303710938 c 0
 379.311523438 284.69921875 381.591796875 288.55078125 411.099609375 346.908203125 c 0
 433.546875 391.301757812 436.227539062 395.6640625 442.32421875 397.715820312 c 0
 451.495117188 400.802734375 453.759765625 405.501953125 448.576171875 410.684570312 c 0
 446.4921875 412.76953125 445.186523438 416.125976562 445.819335938 417.771484375 c 0
 447.983398438 423.3984375 456.228515625 432.760742188 460.247070312 434.154296875 c 0
 464.833984375 435.743164062 469.446289062 445.993164062 466.083984375 447.120117188 c 0
 463.583007812 447.959960938 463.036132812 453.828125 465.458007812 453.828125 c 0
 466.458984375 453.828125 467.959960938 452.99609375 469.2109375 451.744140625 c 0
 470.599609375 450.353515625 471.294921875 451.952148438 471.294921875 456.538085938 c 0
 471.294921875 463.626953125 487.310546875 497.180664062 503.827148438 524.692382812 c 0
 530.104492188 568.459960938 544.002929688 590.786132812 549.107421875 597.430664062 c 0
 552.270507812 601.548828125 565.557617188 620.357421875 578.553710938 639.115234375 c 0
 603.249023438 674.754882812 619.57421875 692.768554688 633.655273438 699.912109375 c 0xe0
EndSplineSet
EndChar

StartChar: N
Encoding: 78 78 13
Width: 792
VWidth: 884
Flags: H
HStem: 671.384 20G<616.871 639.785>
VStem: 132.41 2.06152<223.85 227.756> 137.971 74.0508<143.611 278.162> 553.262 76.3135<131.868 315.419>
LayerCount: 2
Back
Fore
SplineSet
616.87109375 679.834960938 m 2
 624.212890625 691.383789062 l 1
 639.78515625 690.663085938 l 2
 654.840820312 689.96484375 655.586914062 689.681640625 662.330078125 682.102539062 c 0
 673.092773438 670.006835938 681.1875 650.9609375 682.491210938 634.666992188 c 0
 683.430664062 622.913085938 682.41015625 615.896484375 676.180664062 591.354492188 c 0
 659.470703125 525.502929688 649.458007812 465.3359375 642.958984375 391.704101562 c 0
 641.157226562 371.286132812 638.352539062 346.875976562 636.7265625 337.458984375 c 0
 628.85546875 291.868164062 624.529296875 131.829101562 629.576171875 73.0478515625 c 0
 634.359375 17.3603515625 634.59375 4.357421875 630.946289062 -2.6455078125 c 0
 627.079101562 -10.0712890625 611.161132812 -23.890625 606.475585938 -23.890625 c 0
 602.338867188 -23.890625 560.481445312 5.287109375 550.375976562 15.21484375 c 0
 537.25 28.1103515625 502.635742188 80.4736328125 489.650390625 107.079101562 c 0
 483.005859375 120.692382812 469.000976562 146.6796875 458.529296875 164.828125 c 0
 434.5390625 206.404296875 386.678710938 303.016601562 368.614257812 346.329101562 c 0
 361.00390625 364.576171875 347.658203125 395.002929688 338.762695312 414.391601562 c 0
 329.8671875 433.779296875 318.848632812 458.3515625 314.116210938 469.357421875 c 0
 309.415039062 480.288085938 304.34765625 490.887695312 302.875976562 492.870117188 c 0
 300.379882812 496.23046875 299.91015625 496.06640625 296.069335938 490.498046875 c 0
 293.772460938 487.168945312 289.794921875 479.2578125 287.09765625 472.65625 c 0
 284.400390625 466.057617188 281.563476562 460.797851562 280.703125 460.797851562 c 0
 279.859375 460.797851562 279.719726562 459.250976562 280.393554688 457.39453125 c 0
 281.219726562 455.125976562 280.875976562 454.47265625 279.36328125 455.435546875 c 0
 277.930664062 456.346679688 276.561523438 453.991210938 275.650390625 449.041992188 c 0
 274.852539062 444.709960938 272.94921875 439.266601562 271.3984375 436.873046875 c 0
 266.8046875 429.787109375 253.225585938 382.627929688 244.733398438 344.265625 c 0
 233.583007812 293.895507812 231.081054688 280.123046875 223.006835938 224.641601562 c 0
 215.321289062 171.841796875 214.37890625 160.704101562 212.022460938 94.7041015625 c 0
 209.791015625 32.2109375 208.946289062 21.546875 205.731445312 15.2978515625 c 0
 203.716796875 11.3779296875 200.981445312 7.3955078125 199.75 6.5869140625 c 0
 195.212890625 3.6015625 180.61328125 4.724609375 177.681640625 8.2841796875 c 0
 176.0859375 10.2216796875 169.947265625 14.9306640625 163.965820312 18.802734375 c 0
 157.99609375 22.669921875 147.16796875 33.0341796875 139.834960938 41.904296875 c 0
 132.5 50.7734375 122.645507812 60.6748046875 117.869140625 63.9716796875 c 2
 109.20703125 69.9541015625 l 1
 110.650390625 97.693359375 l 2
 111.444335938 112.958007812 113.903320312 133.83203125 116.116210938 144.099609375 c 0
 118.337890625 154.4140625 121.522460938 170.611328125 123.231445312 180.296875 c 0
 124.94140625 189.9921875 127.33984375 200.271484375 128.59375 203.294921875 c 0
 129.850585938 206.3203125 131.552734375 216.907226562 132.41015625 227.012695312 c 0
 133.7734375 243.099609375 134.017578125 243.919921875 134.471679688 233.922851562 c 0
 134.75390625 227.735351562 135.83203125 220.235351562 136.84375 217.421875 c 0
 138.069335938 214.018554688 138.453125 219.278320312 137.971679688 232.890625 c 0
 137.201171875 254.75390625 139.19140625 264.860351562 144.268554688 264.860351562 c 0
 146.606445312 264.860351562 147.009765625 265.993164062 145.918945312 269.500976562 c 0
 145.1484375 271.9765625 144.041992188 276.06640625 143.547851562 278.266601562 c 0
 143.038085938 280.534179688 146.342773438 300.129882812 150.887695312 321.786132812 c 0
 160.979492188 369.86328125 167.70703125 409.234375 176.999023438 474.6171875 c 0
 185.499023438 534.428710938 185.935546875 551.619140625 179.409179688 569.698242188 c 2
 174.793945312 582.484375 l 1
 179.741210938 596.510742188 l 2
 186.215820312 614.866210938 200.326171875 642.010742188 204.494140625 644.126953125 c 0
 206.30859375 645.049804688 211.505859375 646.454101562 216.043945312 647.248046875 c 0
 220.590820312 648.04296875 234.708984375 653.737304688 247.497070312 659.932617188 c 0
 260.284179688 666.126953125 272.737304688 671.155273438 275.237304688 671.133789062 c 0
 284.375 671.056640625 308.03125 661.154296875 319.168945312 652.745117188 c 0
 333.069335938 642.248046875 336.821289062 635.078125 344.711914062 603.935546875 c 0
 348.110351562 590.528320312 352.428710938 575.1796875 354.231445312 570.109375 c 0
 356.041015625 565.020507812 364.9375 537.213867188 373.927734375 508.543945312 c 0
 382.918945312 479.875976562 392.094726562 451.927734375 394.244140625 446.668945312 c 0
 396.39453125 441.40625 405.340820312 418.9296875 414.0703125 396.859375 c 0
 430.3046875 355.817382812 463.504882812 281.840820312 475.625 259.704101562 c 0
 496.178710938 222.166992188 524.9609375 172.7734375 531.270507812 164.208984375 c 0
 535.2109375 158.861328125 540.81640625 149.154296875 543.775390625 142.552734375 c 0
 546.826171875 135.747070312 550.02734375 131.125 551.200195312 131.829101562 c 0
 552.366210938 132.528320312 553.262695312 141.315429688 553.262695312 152.041992188 c 0
 553.262695312 162.44140625 554.147460938 183.59765625 555.221679688 198.859375 c 0
 556.30078125 214.197265625 559.1015625 254.9609375 561.456054688 289.610351562 c 0
 568.23828125 389.434570312 571.055664062 417.778320312 578.772460938 463.891601562 c 0
 588.78125 523.703125 597.892578125 585.440429688 602.7265625 626.2109375 c 0
 607.3984375 665.604492188 607.096679688 664.45703125 616.87109375 679.834960938 c 2
EndSplineSet
EndChar

StartChar: O
Encoding: 79 79 14
Width: 792
VWidth: 884
Flags: H
VStem: 570.745 12.3359<380.326 394.658 405.04 409.301>
LayerCount: 2
Back
Fore
SplineSet
319.961914062 678.490234375 m 0
 336.37109375 683.815429688 361.98046875 682.702148438 380.6796875 675.853515625 c 0
 387.297851562 673.428710938 399.161132812 669.974609375 406.860351562 668.23046875 c 0
 419.62109375 665.338867188 421.888671875 665.412109375 431.061523438 669 c 0
 438.548828125 671.930664062 446.901367188 672.883789062 463.180664062 672.666992188 c 0
 504.321289062 672.118164062 539.028320312 656.552734375 571.640625 624.025390625 c 0
 596.5703125 599.162109375 613.771484375 570.220703125 628.076171875 529.079101562 c 0
 642.736328125 486.911132812 648.080078125 457.360351562 653.380859375 389.16015625 c 0
 658.133789062 328 658.544921875 297.806640625 654.926757812 275.860351562 c 0
 646.110351562 222.399414062 618.0703125 149.30078125 591.212890625 109.758789062 c 0
 552.807617188 53.2197265625 512.530273438 14.90625 457.680664062 -17.2607421875 c 0
 422.797851562 -37.716796875 402.459960938 -43.5498046875 366.379882812 -43.4423828125 c 0
 339.8515625 -43.36328125 337.560546875 -42.7705078125 301.479492188 -26.66796875 c 0
 238.560546875 1.412109375 210.217773438 26.04296875 176.635742188 81.8193359375 c 0
 146.8671875 131.264648438 127.342773438 263.759765625 137.278320312 348.900390625 c 0
 150.26953125 460.219726562 187.799804688 546.2578125 262.3203125 635.560546875 c 0
 282.330078125 659.540039062 298.36328125 671.481445312 319.961914062 678.490234375 c 0
482.760742188 638.723632812 m 0
 476.8203125 639.889648438 467.140625 641.482421875 461.201171875 642.270507812 c 2
 450.420898438 643.700195312 l 1
 451.727539062 635.33984375 l 2
 454.860351562 615.321289062 455.893554688 601.43359375 454.643554688 596.180664062 c 0
 453.723632812 592.317382812 447.78125 586.780273438 436.340820312 579.124023438 c 0
 393.66015625 550.561523438 350.817382812 510.26171875 325.3671875 474.741210938 c 0
 291.680664062 427.719726562 269.823242188 368.700195312 264.34375 309.959960938 c 0
 256.50390625 225.919921875 256.536132812 223.87890625 266.375 177.9609375 c 0
 275.520507812 135.280273438 293.36328125 102.013671875 315.120117188 87.0693359375 c 0
 340.420898438 69.6943359375 371.830078125 62.84765625 393.440429688 69.998046875 c 0
 407.919921875 74.7880859375 433.701171875 92.0283203125 459.440429688 114.130859375 c 0
 496.401367188 145.868164062 498.09375 147.200195312 496.690429688 143.419921875 c 0
 495.921875 141.353515625 494.611328125 135.940429688 493.760742188 131.319335938 c 2
 492.221679688 122.959960938 l 1
 497.060546875 127.282226562 l 2
 517.860351562 145.8515625 548.275390625 221.740234375 563.6640625 293.458984375 c 2
 570.98046875 327.559570312 l 1
 570.745117188 390.260742188 l 2
 570.427734375 474.741210938 566.002929688 516.693359375 553.25 556.139648438 c 0
 545.283203125 580.780273438 536.43359375 598.012695312 523.30859375 614.440429688 c 0
 511.368164062 629.384765625 502.122070312 634.922851562 482.760742188 638.723632812 c 0
584.620117188 405.110351562 m 0
 585.237304688 406.650390625 585.237304688 409.0703125 584.620117188 410.610351562 c 0
 584.004882812 412.150390625 583.520507812 410.940429688 583.520507812 407.860351562 c 0
 583.520507812 404.779296875 584.004882812 403.569335938 584.620117188 405.110351562 c 0
587.481445312 388.169921875 m 0
 587.481445312 391.690429688 586.473632812 394.66015625 585.28125 394.66015625 c 0
 584.041015625 394.66015625 583.081054688 391.25 583.081054688 386.850585938 c 0
 583.081054688 382.229492188 583.979492188 379.579101562 585.28125 380.360351562 c 0
 586.473632812 381.077148438 587.481445312 384.650390625 587.481445312 388.169921875 c 0
255.440429688 182.579101562 m 0
 249.416992188 218.219726562 246.481445312 230.3359375 246.481445312 219.540039062 c 0
 246.481445312 193.580078125 261.091796875 128.651367188 270.885742188 111.080078125 c 0
 273.338867188 106.680664062 274.634765625 105.115234375 273.798828125 107.560546875 c 0
 264.8984375 133.6484375 261.053710938 149.359375 255.440429688 182.579101562 c 0
EndSplineSet
EndChar

StartChar: P
Encoding: 80 80 15
Width: 792
VWidth: 884
Flags: H
VStem: 203.708 73.7236<40.1437 100.93>
LayerCount: 2
Back
Fore
SplineSet
391.807617188 691.095703125 m 0
 427.1953125 696.596679688 497.739257812 695.567382812 528.932617188 689.094726562 c 0
 558.6328125 682.931640625 579.3828125 675.568359375 598.444335938 664.4296875 c 0
 646.826171875 636.158203125 668.259765625 590.365234375 658.548828125 536.021484375 c 0
 647.114257812 472.034179688 604.973632812 401.356445312 540.307617188 337.711914062 c 0
 523.287109375 320.959960938 515.03125 315.015625 477.327148438 292.360351562 c 0
 430.775390625 264.388671875 416.115234375 258.00390625 379.590820312 249.790039062 c 0
 348.205078125 242.732421875 327.092773438 242.776367188 310.081054688 249.935546875 c 0
 293.440429688 256.936523438 291.798828125 257.009765625 289.922851562 250.818359375 c 0
 274.657226562 200.424804688 270.677734375 184.044921875 259.317382812 124.856445312 c 0
 252.767578125 90.732421875 253.686523438 85.4091796875 264.37109375 95.5771484375 c 0
 269.848632812 100.788085938 277.431640625 103.235351562 277.431640625 99.7900390625 c 0
 277.431640625 99.099609375 273.651367188 90.3115234375 269.095703125 80.412109375 c 0
 258.642578125 57.6962890625 254.981445312 43.7607421875 253.15625 19.7470703125 c 2
 251.732421875 1.0009765625 l 1
 242.88671875 -2.5810546875 l 2
 234.333984375 -6.0419921875 233.618164062 -6.0166015625 221.401367188 -1.83203125 c 0
 198.86328125 5.88671875 180.499023438 21.3271484375 180.453125 32.5966796875 c 0
 180.419921875 40.6005859375 194.689453125 81.689453125 199.837890625 88.416015625 c 0
 201.93359375 91.154296875 203.708007812 95.59375 203.708007812 98.1044921875 c 0
 203.708007812 100.6328125 205.575195312 104.415039062 207.814453125 106.424804688 c 0
 210.107421875 108.482421875 212.249023438 112.112304688 212.659179688 114.639648438 c 0
 213.379882812 119.064453125 213.436523438 119.0703125 215.08203125 114.956054688 c 0
 216.008789062 112.638671875 217.241210938 109.321289062 217.821289062 107.583007812 c 0
 218.663085938 105.056640625 219.221679688 105.265625 220.6171875 108.63671875 c 0
 223.405273438 115.376953125 222.897460938 117.194335938 217.400390625 120.147460938 c 0
 211.711914062 123.202148438 210.040039062 127.23046875 215.29296875 125.221679688 c 0
 217.189453125 124.497070312 218.453125 125.27734375 218.453125 127.172851562 c 0
 218.453125 128.858398438 219.681640625 130.774414062 221.084960938 131.280273438 c 0
 222.965820312 131.95703125 223.056640625 133.0703125 221.401367188 135.176757812 c 0
 218.963867188 138.279296875 220.926757812 243.0234375 223.78125 262.192382812 c 0
 225.155273438 271.418945312 224.89453125 271.987304688 213.922851562 283.571289062 c 0
 207.741210938 290.1015625 198.51953125 298.32421875 193.4921875 301.791992188 c 0
 187.450195312 305.958007812 182.89453125 311.375976562 180.116210938 317.6953125 c 0
 176.041992188 326.963867188 176.028320312 327.373046875 179.6953125 330.109375 c 0
 186.98046875 335.544921875 198.442382812 332.877929688 218.663085938 321.0390625 c 0
 225.192382812 317.215820312 231.005859375 314.008789062 231.40625 314.008789062 c 0
 231.80859375 314.008789062 231.80859375 323.8046875 231.40625 335.599609375 c 0
 231.004882812 347.395507812 231.719726562 363.400390625 232.986328125 370.881835938 c 0
 234.26953125 378.46484375 235.5859375 393.735351562 235.935546875 405.110351562 c 2
 236.567382812 425.646484375 l 1
 226.666992188 424.345703125 l 2
 205.524414062 421.567382812 176.92578125 437.654296875 154.330078125 465.037109375 c 0
 136.42578125 486.732421875 131.067382812 499.061523438 131.166015625 518.327148438 c 0
 131.239257812 532.453125 132.174804688 536.021484375 140.002929688 552.030273438 c 0
 153.485351562 579.603515625 173.165039062 600.711914062 205.604492188 622.391601562 c 0
 252.772460938 653.918945312 325.666992188 680.815429688 391.807617188 691.095703125 c 0
527.038085938 589.455078125 m 0
 518.1328125 592.766601562 483.646484375 594.137695312 464.900390625 591.92578125 c 0
 426.142578125 587.352539062 379.879882812 570.330078125 345.256835938 547.903320312 c 0
 329.880859375 537.944335938 328.983398438 534.125976562 338.4140625 518.749023438 c 0
 346.1640625 506.111328125 349.862304688 492.37109375 348.110351562 482.73046875 c 0
 347.357421875 478.583984375 342.053710938 467.985351562 336.413085938 459.349609375 c 0
 326.5078125 444.182617188 318.4453125 426.129882812 320.612304688 423.961914062 c 0
 321.186523438 423.387695312 319.702148438 419.749023438 317.34765625 415.958984375 c 0
 314.51953125 411.405273438 312.375 402.79296875 311.1328125 390.997070312 c 0
 310.091796875 381.096679688 308.668945312 372.040039062 307.973632812 370.881835938 c 0
 307.279296875 369.72265625 304.861328125 354.977539062 302.603515625 338.126953125 c 0
 299.666992188 316.220703125 299.125976562 306.307617188 300.706054688 303.372070312 c 0
 302.674804688 299.716796875 305.446289062 299.264648438 325.877929688 299.264648438 c 0
 353.139648438 299.264648438 378.116210938 303.997070312 414.767578125 316.104492188 c 0
 446.78515625 326.682617188 465.928710938 337.887695312 484.959960938 357.189453125 c 0
 520.154296875 392.8828125 555.359375 460.192382812 564.836914062 509.90234375 c 0
 570.017578125 537.07421875 569.348632812 545.37890625 560.852539062 559.40234375 c 0
 556.896484375 565.932617188 553.307617188 571.984375 552.986328125 572.672851562 c 0
 551.8203125 575.1640625 533.356445312 587.10546875 527.038085938 589.455078125 c 0
EndSplineSet
EndChar

StartChar: Q
Encoding: 81 81 16
Width: 792
VWidth: 884
HStem: 179.01 45.1484<376.916 445.476> 676.426 22.332<360.633 436.629>
VStem: 128.123 96.4209<181.208 254.384> 561.629 83.6729<236.869 482.712>
LayerCount: 2
Back
Fore
SplineSet
391.076171875 698.7578125 m 0
 411.610351562 703.06640625 449.32421875 701.42578125 466.504882812 695.475585938 c 0
 503.610351562 682.629882812 534 654.78515625 571.741210938 599.05078125 c 0
 601.818359375 554.634765625 612.69921875 528.232421875 629.680664062 458.459960938 c 0
 640.440429688 414.25 645.39453125 374.446289062 645.301757812 332.955078125 c 0
 645.23828125 304.669921875 644.390625 296.559570312 638.73046875 270.09765625 c 0
 630.34375 230.90234375 617.494140625 200.1171875 591.5 156.955078125 c 2
 582.162109375 141.451171875 l 1
 589.512695312 132.440429688 l 2
 599.42578125 120.288085938 612.163085938 110.365234375 616.733398438 111.233398438 c 0
 619.0078125 111.663085938 621.315429688 115.469726562 623.118164062 121.755859375 c 0
 626.120117188 132.232421875 629.905273438 135.088867188 630.057617188 126.994140625 c 0
 630.10546875 124.444335938 633.421875 130.345703125 637.4765625 140.193359375 c 0
 641.53125 150.041015625 647.10546875 160.813476562 649.942382812 164.288085938 c 2
 655.076171875 170.575195312 l 1
 655.076171875 164.288085938 l 2
 655.076171875 160.768554688 653.647460938 153.392578125 651.829101562 147.526367188 c 0
 649.901367188 141.307617188 648.0703125 125.002929688 647.32421875 107.403320312 c 2
 646.067382812 77.7548828125 l 1
 654.1328125 59.212890625 l 2
 660.87890625 43.7080078125 662.338867188 37.7333984375 663.0390625 22.755859375 c 2
 663.876953125 4.8408203125 l 1
 656.857421875 -0.3974609375 l 2
 653.0859375 -3.2119140625 646.639648438 -6.9443359375 642.923828125 -8.4638671875 c 0
 636.637695312 -11.03515625 635.45703125 -10.884765625 629.934570312 -6.8056640625 c 0
 622.391601562 -1.236328125 622.391601562 -1.236328125 615.895507812 -6.3662109375 c 0
 606.407226562 -13.8623046875 594.943359375 -10.873046875 582.543945312 2.3271484375 c 0
 574.711914062 10.6630859375 547.66796875 46.955078125 538.200195312 61.83203125 c 0
 525.80078125 81.3173828125 525.80078125 81.3173828125 507.571289062 66.4560546875 c 0
 475.921875 40.654296875 456.447265625 31.244140625 410.561523438 19.576171875 c 0
 386.466796875 13.4482421875 378.752929688 12.3837890625 358.495117188 12.3837890625 c 0
 342.572265625 12.3837890625 331.564453125 13.4560546875 325.181640625 15.6318359375 c 0
 319.900390625 17.4296875 308.734375 20.6474609375 300.142578125 22.845703125 c 0
 269.134765625 30.7802734375 224.240234375 56.5380859375 198.943359375 80.908203125 c 0
 172.827148438 106.06640625 142.485351562 164.498046875 137.693359375 198.859375 c 0
 136.8046875 205.232421875 134.305664062 218.346679688 132.104492188 228.192382812 c 0
 128.78515625 243.045898438 128.123046875 255.221679688 128.123046875 301.52734375 c 0
 128.123046875 357.888671875 129.608398438 375.806640625 137.758789062 417.811523438 c 0
 142.596679688 442.745117188 154.065429688 478.974609375 161.302734375 492.193359375 c 0
 164.125976562 497.34765625 169.153320312 508.74609375 172.393554688 517.336914062 c 0
 179.268554688 535.564453125 212.526367188 595.008789062 221.041015625 604.2890625 c 0
 224.227539062 607.760742188 231.732421875 616.860351562 237.8046875 624.61328125 c 0
 252.083007812 642.840820312 268.427734375 657.30078125 283.171875 664.745117188 c 0
 297.7109375 672.086914062 308.524414062 671.6796875 327.171875 663.08984375 c 0
 334.0859375 659.904296875 343.703125 655.58203125 348.543945312 653.485351562 c 0
 367.073242188 645.455078125 381.68359375 627.3359375 389.2265625 603.030273438 c 0
 396.639648438 579.146484375 393.170898438 563.455078125 378.294921875 553.590820312 c 0
 356.40625 539.07421875 324.265625 504.345703125 302.27734375 471.451171875 c 0
 275.427734375 431.28125 257.74609375 388.8984375 250.798828125 348.041015625 c 0
 241.961914062 296.079101562 241.490234375 200.983398438 249.923828125 171.622070312 c 0
 260.447265625 134.984375 285.057617188 114.41796875 325.077148438 108.818359375 c 0
 350.188476562 105.302734375 387.724609375 106.278320312 413.076171875 111.103515625 c 0
 438.009765625 115.849609375 444.040039062 118.23046875 451.72265625 126.365234375 c 0
 455.0859375 129.926757812 457.338867188 131.014648438 458.229492188 129.5078125 c 0
 459.037109375 128.138671875 460.970703125 129.926757812 462.989257812 133.907226562 c 0
 467.255859375 142.326171875 466.923828125 142.784179688 446.391601562 156.7890625 c 0
 426.696289062 170.220703125 418.127929688 174.588867188 402.809570312 179.009765625 c 0
 396.10546875 180.9453125 389.249023438 184.208007812 387.514648438 186.288085938 c 0
 385.719726562 188.444335938 382.698242188 191.9453125 380.466796875 194.458984375 c 0
 364.732421875 212.193359375 395.266601562 228.80078125 435.076171875 224.158203125 c 0
 447.584960938 222.700195312 457.180664062 219.484375 482.114257812 208.392578125 c 0
 499.294921875 200.750976562 515.377929688 194.744140625 517.733398438 195.088867188 c 0
 520.405273438 195.479492188 522.265625 197.498046875 522.657226562 200.431640625 c 0
 522.9921875 202.946289062 525.095703125 206.124023438 527.162109375 207.240234375 c 0
 529.30859375 208.401367188 531.692382812 212.374023438 532.504882812 216.145507812 c 0
 533.317382812 219.916992188 534.719726562 223.889648438 535.647460938 225.05078125 c 0
 536.5546875 226.185546875 538.4296875 231.232421875 539.733398438 236.049804688 c 0
 541.151367188 241.288085938 543.350585938 244.955078125 545.076171875 244.955078125 c 0
 548.3515625 244.955078125 552.41015625 256.897460938 552.41015625 266.536132812 c 0
 552.41015625 271.564453125 552.93359375 272.197265625 555.447265625 270.203125 c 0
 557.986328125 268.190429688 558.848632812 269.155273438 560.685546875 276.069335938 c 0
 561.912109375 280.6796875 562.329101562 285.831054688 561.62890625 287.698242188 c 0
 560.94921875 289.510742188 562.108398438 294.611328125 564.150390625 298.802734375 c 0
 569.329101562 309.428710938 569.415039062 348.041015625 564.376953125 400.002929688 c 0
 560.252929688 442.536132812 553.913085938 474.342773438 543.2421875 506.022460938 c 0
 535.409179688 529.279296875 514.7578125 580.48046875 507.41015625 594.859375 c 0
 502.60546875 604.264648438 461.895507812 645.701171875 439.4765625 664.008789062 c 0
 426.469726562 674.62890625 419.571289062 676.189453125 384.581054688 676.42578125 c 0
 368.448242188 676.534179688 361.491210938 677.412109375 358.495117188 679.716796875 c 0
 354.41015625 682.860351562 354.41015625 682.860351562 358.600585938 686.225585938 c 0
 364.966796875 691.337890625 375.990234375 695.591796875 391.076171875 698.7578125 c 0
231 196.241210938 m 0
 230.193359375 205.171875 228.212890625 221.907226562 226.599609375 233.431640625 c 2
 223.666992188 254.383789062 l 1
 224.543945312 226.098632812 l 2
 225.549804688 193.623046875 227.272460938 180.002929688 230.37109375 180.002929688 c 0
 231.723632812 180.002929688 231.946289062 185.765625 231 196.241210938 c 0
418.314453125 177.698242188 m 0
 418.314453125 178.858398438 415.276367188 181.3828125 411.505859375 183.356445312 c 0
 405.009765625 186.752929688 404.833007812 186.752929688 407.663085938 183.356445312 c 0
 411.6796875 178.536132812 418.314453125 175.012695312 418.314453125 177.698242188 c 0
EndSplineSet
Validated: 524321
EndChar

StartChar: R
Encoding: 82 82 17
Width: 792
VWidth: 884
Flags: H
VStem: 534.122 86.1875<468.361 575.245> 571.166 23.374<137.459 191.24> 588.411 5.96191<200.432 229.73>
LayerCount: 2
Back
Fore
SplineSet
415.747070312 692.657226562 m 0x40
 439.8046875 695.2421875 445.109375 695.180664062 463.862304688 692.087890625 c 0
 492.817382812 687.314453125 546.483398438 658.89453125 571.591796875 635.037109375 c 0
 577.018554688 629.880859375 585.943359375 618.705078125 591.604492188 609.9765625 c 0
 597.266601562 601.247070312 603.533203125 592.51171875 605.657226562 590.388671875 c 0
 612.650390625 583.39453125 620.426757812 549.724609375 620.309570312 526.943359375 c 0x80
 620.059570312 478.40234375 597.490234375 429.145507812 556.90234375 388.556640625 c 0
 533.057617188 364.711914062 487.903320312 330.795898438 465.353515625 319.791992188 c 0
 455.772460938 315.116210938 447.89453125 310.552734375 447.89453125 309.676757812 c 0
 447.89453125 308.791992188 452.5 301.053710938 458.221679688 292.325195312 c 0
 463.943359375 283.595703125 470.252929688 273.24609375 472.372070312 269.118164062 c 0
 488.658203125 237.395507812 556.56640625 142.815429688 567.12109375 137.157226562 c 0
 570.791992188 135.190429688 571.166015625 136.053710938 571.166015625 146.486328125 c 0x40
 571.166015625 153.680664062 573.27734375 163.837890625 576.807617188 173.630859375 c 0
 579.896484375 182.196289062 585.149414062 198.43359375 588.411132812 209.505859375 c 2
 594.373046875 229.73046875 l 1x20
 594.540039062 216.95703125 l 2
 594.87890625 190.981445312 599.423828125 143.87109375 603.556640625 123.4921875 c 0
 605.947265625 111.697265625 612.967773438 89.5341796875 619.708007812 72.501953125 c 0
 627.627929688 52.4892578125 631.953125 38.302734375 632.588867188 30.240234375 c 2
 633.546875 18.10546875 l 1
 622.370117188 6.2890625 l 2
 611.494140625 -5.2080078125 610.887695312 -5.52734375 599.908203125 -5.52734375 c 0
 577.127929688 -5.52734375 552.235351562 7.7431640625 536.415039062 28.32421875 c 0
 508.943359375 64.0625 456.015625 164.370117188 405.654296875 276.14453125 c 0
 398.028320312 293.068359375 398.2890625 293.013671875 363.798828125 284.869140625 c 0
 350.810546875 281.80078125 336.111328125 278.388671875 330.797851562 277.208007812 c 0
 325.512695312 276.034179688 314.298828125 275.126953125 305.783203125 275.186523438 c 0
 293.220703125 275.272460938 290 274.6171875 288.487304688 271.672851562 c 0
 285.290039062 265.454101562 269.485351562 203.331054688 265.0859375 179.698242188 c 0
 256.370117188 132.860351562 248.111328125 48.556640625 249.383789062 19.3828125 c 0
 250.413085938 -4.2490234375 249.551757812 -7.541015625 241.166992188 -12.0029296875 c 0
 238.243164062 -13.5595703125 231.373046875 -11.0634765625 212.2109375 -1.482421875 c 0
 198.373046875 5.4384765625 183.024414062 14.0439453125 178.041015625 17.6796875 c 2
 168.9921875 24.279296875 l 1
 168.9921875 50.6787109375 l 2
 168.9921875 79.080078125 169.380859375 80.6982421875 183.78125 112.208984375 c 0
 189.619140625 124.982421875 190.828125 126.440429688 193.049804688 123.38671875 c 0
 195.366210938 120.201171875 196.083984375 120.510742188 200.71484375 126.686523438 c 0
 205.026367188 132.434570312 205.424804688 134.1484375 203.268554688 137.650390625 c 0
 201.303710938 140.84375 201.279296875 142.490234375 203.163085938 144.783203125 c 0
 205.092773438 147.130859375 205.000976562 148.508789062 202.737304688 151.27734375 c 0
 200.124023438 154.469726562 200.2890625 154.653320312 204.546875 153.291992188 c 0
 210.08203125 151.5234375 213.51953125 156.674804688 209.80859375 161.176757812 c 0
 208.564453125 162.686523438 208.059570312 166.073242188 208.69921875 168.627929688 c 0
 209.602539062 172.248046875 209.095703125 173.022460938 206.461914062 172.034179688 c 0
 203.365234375 170.872070312 203.384765625 171.501953125 206.674804688 178.954101562 c 0
 208.84765625 183.87109375 210.46484375 193.963867188 210.721679688 204.182617188 c 0
 210.955078125 213.55078125 212.201171875 227.442382812 213.489257812 235.053710938 c 0
 214.78515625 242.71875 215.830078125 249.65234375 215.830078125 250.595703125 c 0
 215.830078125 251.525390625 216.895507812 251.622070312 218.172851562 250.80859375 c 0
 219.784179688 249.782226562 220.083007812 251.341796875 219.131835938 255.811523438 c 0
 217.951171875 261.34765625 218.422851562 262.524414062 222.32421875 263.795898438 c 0
 226.053710938 265.008789062 226.661132812 266.350585938 225.59765625 271.034179688 c 0
 221.39453125 289.556640625 221.443359375 290.844726562 226.474609375 294.724609375 c 2
 231.373046875 298.498046875 l 1
 223.6015625 309.143554688 l 2
 219.25 315.10546875 214.424804688 323.115234375 212.637695312 327.346679688 c 2
 209.444335938 334.905273438 l 1
 218.4921875 335.543945312 l 2
 226.583007812 336.114257812 227.934570312 336.994140625 231.26953125 343.846679688 c 0
 237.615234375 356.890625 239.340820312 370.88671875 240.696289062 420.279296875 c 2
 242.017578125 468.396484375 l 1
 230.415039062 468.396484375 l 2
 221.47265625 468.396484375 216.41796875 469.78515625 208.379882812 474.454101562 c 0
 194.751953125 482.369140625 168.819335938 508.18359375 162.918945312 519.705078125 c 0
 154.734375 535.689453125 157.955078125 562.711914062 171.293945312 589.963867188 c 0
 179.57421875 606.879882812 194.327148438 620.262695312 211.78515625 626.694335938 c 0
 218.950195312 629.333984375 235.842773438 637.120117188 249.469726562 644.061523438 c 0
 292.395507812 665.930664062 365.2890625 687.235351562 415.747070312 692.657226562 c 0x40
490.901367188 588.702148438 m 0
 481.655273438 592.258789062 473.443359375 593.515625 456.411132812 593.981445312 c 0
 431.739257812 594.658203125 432.56640625 594.791015625 406.379882812 585.92578125 c 0
 386.366210938 579.15234375 359.971679688 565.09375 356.795898438 559.518554688 c 0
 355.651367188 557.505859375 355.724609375 552.279296875 356.98046875 546.743164062 c 0
 359.403320312 536.065429688 358.609375 533.118164062 342.172851562 491.814453125 c 0
 330.456054688 462.37109375 324.25 438.802734375 316.32421875 393.666015625 c 0
 307.166015625 341.504882812 307.166015625 341.504882812 310.78515625 340.122070312 c 0
 323.493164062 335.265625 402.759765625 369.719726562 448.958984375 400.178710938 c 0
 478.922851562 419.934570312 505.919921875 451.7890625 526.440429688 491.6015625 c 0
 533.635742188 505.564453125 534.122070312 507.78125 534.122070312 526.73046875 c 0
 534.122070312 545.25390625 533.609375 547.818359375 528.041992188 557.176757812 c 0
 519.970703125 570.748046875 505.379882812 583.133789062 490.901367188 588.702148438 c 0
218.280273438 234.521484375 m 0
 219.483398438 235.724609375 220.12109375 238.034179688 219.663085938 239.524414062 c 0
 219.192382812 241.055664062 218.192382812 240.056640625 217.427734375 237.288085938 c 0
 216.42578125 233.669921875 216.662109375 232.904296875 218.280273438 234.521484375 c 0
215.830078125 165.008789062 m 0
 215.830078125 166.158203125 215.149414062 166.923828125 214.126953125 166.923828125 c 0
 211.359375 166.923828125 209.474609375 164.458007812 210.7109375 162.454101562 c 0
 212.116210938 160.173828125 215.830078125 162.028320312 215.830078125 165.008789062 c 0
EndSplineSet
EndChar

StartChar: S
Encoding: 83 83 18
Width: 792
VWidth: 884
HStem: -26.5957 80.6631<239.81 293.575> 23.0996 81.7822<430.542 468.636>
LayerCount: 2
Back
Fore
SplineSet
389.650390625 678.651367188 m 0x40
 397.041992188 680.006835938 416.552734375 680.708984375 435.27734375 680.293945312 c 0
 469.534179688 679.536132812 471.864257812 679.047851562 514.477539062 663.70703125 c 0
 532.770507812 657.12109375 545.095703125 658.150390625 543.9765625 666.16796875 c 0
 543.416015625 670.186523438 544.391601562 670.952148438 550.418945312 671.2265625 c 0
 554.291992188 671.40234375 560.455078125 671.711914062 563.977539062 671.908203125 c 0
 576.889648438 672.625 576.889648438 672.625 576.108398438 648.520507812 c 2
 575.3828125 626.138671875 l 1
 584.20703125 608.060546875 l 2
 589.0390625 598.16015625 593.03125 588.375976562 593.03125 586.430664062 c 0
 593.03125 584.493164062 593.912109375 582.342773438 594.96875 581.698242188 c 0
 598.124023438 579.774414062 603.5703125 551.028320312 605.021484375 528.645507812 c 2
 606.375 507.768554688 l 1
 584.530273438 486.032226562 l 2
 572.477539062 474.0390625 561.478515625 464.294921875 559.995117188 464.294921875 c 0
 558.489257812 464.294921875 556.168945312 463.158203125 554.72265625 461.711914062 c 0
 553.288085938 460.27734375 550.418945312 458.732421875 548.266601562 458.236328125 c 0
 521.705078125 452.106445312 507.497070312 460.635742188 490.852539062 492.704101562 c 0
 470.185546875 532.518554688 460.493164062 542.85546875 432.693359375 554.72265625 c 0
 417.198242188 561.338867188 403.873046875 562.37890625 390.296875 558.03515625 c 0
 374.80078125 553.076171875 367.052734375 549.665039062 367.052734375 547.799804688 c 0
 367.052734375 546.881835938 365.546875 546.078125 363.825195312 546.078125 c 0
 357.837890625 546.078125 328.384765625 513.364257812 321.196289062 498.728515625 c 0
 314.682617188 485.470703125 314.331054688 483.450195312 314.432617188 459.991210938 c 0
 314.528320312 437.823242188 315.181640625 433.668945312 320.68359375 420.174804688 c 0
 327.572265625 403.28515625 337.783203125 391.91796875 357.15234375 379.580078125 c 0
 375.146484375 368.1171875 421.288085938 346.2109375 456.583007812 332.372070312 c 0
 519.857421875 307.564453125 544.177734375 293.524414062 569.173828125 267.37109375 c 0
 591.4296875 244.0859375 597.71875 228.631835938 597.55078125 197.640625 c 0
 597.41796875 173.10546875 594.022460938 153.19921875 588.705078125 145.7734375 c 0
 586.538085938 142.74609375 584.217773438 137.37890625 583.403320312 133.505859375 c 0
 581.766601562 125.73046875 563.557617188 98.640625 550.854492188 85.08203125 c 0
 534.92578125 68.0791015625 504.900390625 43.810546875 490.802734375 36.54296875 c 0
 487.262695312 34.7177734375 481.333007812 30.9306640625 477.674804688 28.1572265625 c 0
 474.016601562 25.3837890625 469.93359375 23.099609375 468.635742188 23.099609375 c 0x40
 467.360351562 23.099609375 464.977539062 21.8076171875 463.469726562 20.3017578125 c 0
 460.2421875 17.0732421875 420.857421875 -3.017578125 420.857421875 -1.435546875 c 0
 420.857421875 -0.859375 418.059570312 -1.859375 414.831054688 -3.58984375 c 0
 408.805664062 -6.8203125 391.92578125 -13.4111328125 386.422851562 -14.6796875 c 0
 384.669921875 -15.083984375 379.750976562 -16.498046875 375.661132812 -17.7724609375 c 0
 352.147460938 -25.103515625 336.922851562 -26.7861328125 295.81640625 -26.595703125 c 0
 265.469726562 -26.455078125 250.2734375 -25.4775390625 240.935546875 -23.0673828125 c 0
 226.30078125 -19.287109375 205.34375 -9.9228515625 193.587890625 -1.9130859375 c 2
 185.625 3.5146484375 l 1
 186.055664062 19.224609375 l 2
 186.291015625 27.833984375 187.565429688 38.3408203125 188.875 42.46875 c 0
 192.630859375 54.3056640625 208.868164062 72.78515625 221.350585938 79.4287109375 c 0
 234.693359375 86.5302734375 248.013671875 97.484375 249.684570312 102.728515625 c 0
 250.8515625 106.388671875 261.024414062 110.403320312 263.318359375 108.110351562 c 0
 263.921875 107.5078125 259.961914062 102.299804688 254.319335938 96.2734375 c 0
 243.239257812 84.4365234375 235.923828125 70.642578125 235.830078125 61.408203125 c 0
 235.775390625 56.091796875 236.631835938 55.4677734375 245.885742188 54.0673828125 c 0x80
 257.506835938 52.30859375 291.794921875 54.3330078125 293.6875 56.888671875 c 0
 295.165039062 58.8818359375 298.3984375 59.79296875 307.868164062 60.8818359375 c 0
 311.454101562 61.29296875 318.62890625 62.626953125 324.009765625 63.8828125 c 0
 329.318359375 65.12109375 340.2578125 67.5537109375 348.221679688 69.263671875 c 0
 356.184570312 70.974609375 364.887695312 73.890625 367.483398438 75.7197265625 c 0
 370.06640625 77.5390625 374.322265625 79.0556640625 376.844726562 79.0556640625 c 0
 379.427734375 79.0556640625 382.137695312 79.720703125 382.979492188 80.5615234375 c 0
 383.83984375 81.4228515625 385.77734375 82.2529296875 387.498046875 82.5 c 0
 389.11328125 82.7294921875 393.309570312 84.8232421875 396.538085938 87.005859375 c 0
 402.963867188 91.353515625 409.020507812 94.2587890625 420.427734375 98.466796875 c 0
 424.30078125 99.896484375 427.314453125 101.85546875 427.314453125 102.9453125 c 0
 427.314453125 103.977539062 428.8203125 104.881835938 430.541992188 104.881835938 c 0
 432.264648438 104.881835938 433.770507812 105.8359375 433.770507812 106.926757812 c 0
 433.770507812 108.0625 435.4921875 109.538085938 437.643554688 110.24609375 c 0
 443.387695312 112.13671875 465.443359375 133.936523438 476.853515625 149.001953125 c 0
 496.577148438 175.04296875 500.96875 199.025390625 490.571289062 223.896484375 c 0
 487.33203125 231.645507812 481.743164062 240.266601562 477.243164062 244.45703125 c 0
 469.782226562 251.40625 430.756835938 271.50390625 395.03125 286.797851562 c 0
 367.268554688 298.681640625 325.859375 322.038085938 305.500976562 337.296875 c 0
 260.108398438 371.31640625 234.174804688 411.56640625 224.916992188 462.358398438 c 0
 219.291992188 493.221679688 228.318359375 545.001953125 244.950195312 577.284179688 c 0
 253.296875 593.482421875 281.611328125 626.469726562 300.3359375 641.807617188 c 0
 309.805664062 649.565429688 326.815429688 660.142578125 329.8203125 660.142578125 c 0
 331.327148438 660.142578125 332.618164062 661.134765625 332.618164062 662.294921875 c 0
 332.618164062 663.5859375 333.264648438 664.318359375 334.232421875 664.125 c 0
 335.147460938 663.94140625 338.643554688 664.946289062 342.302734375 666.442382812 c 0
 349.325195312 669.314453125 351.341796875 669.81640625 363.825195312 671.793945312 c 0
 368.12890625 672.475585938 372.924804688 673.796875 374.262695312 674.669921875 c 0
 375.623046875 675.557617188 382.548828125 677.349609375 389.650390625 678.651367188 c 0x40
EndSplineSet
Validated: 524321
EndChar

StartChar: T
Encoding: 84 84 19
Width: 792
VWidth: 884
Flags: H
HStem: 521.679 166.118<482.673 616.481>
LayerCount: 2
Back
Fore
SplineSet
587.75 687.796875 m 0
 612.41796875 690.0703125 691.84765625 689.165039062 691.717773438 686.611328125 c 0
 691.663085938 685.533203125 680.798828125 677.879882812 667.381835938 669.470703125 c 0
 631.028320312 646.681640625 633.755859375 651.771484375 631.93359375 603.299804688 c 2
 630.379882812 561.96875 l 1
 623.58984375 551.365234375 l 2
 614.447265625 537.083007812 599.63671875 524.426757812 588.831054688 521.6640625 c 0
 582.458007812 520.033203125 571.627929688 520.083007812 552.584960938 521.827148438 c 0
 532.108398438 523.703125 515.474609375 523.66796875 484.962890625 521.678710938 c 0
 435.625976562 518.462890625 418.678710938 515.767578125 417.174804688 510.899414062 c 0
 415.534179688 505.58203125 412.11328125 481.252929688 410.573242188 463.942382812 c 0
 409.825195312 455.541992188 407.875 438.19140625 406.196289062 424.991210938 c 0
 404.515625 411.791015625 402.587890625 394.440429688 401.868164062 386.040039062 c 0
 401.14453125 377.600585938 399.706054688 365.142578125 398.622070312 357.909179688 c 0
 397.5546875 350.796875 396.138671875 333.673828125 395.491210938 320.041015625 c 0
 393.495117188 278.059570312 387.890625 185.560546875 386.508789062 171.811523438 c 0
 385.7890625 164.630859375 384.286132812 142.380859375 383.149414062 122.041015625 c 0
 382.012695312 101.69921875 380.26953125 71.2275390625 379.248046875 53.876953125 c 0
 377.54296875 24.8798828125 374.2890625 -2.3203125 371.40625 -11.6904296875 c 0
 370.765625 -13.7724609375 367.786132812 -15.9794921875 364.540039062 -16.7763671875 c 0
 361.293945312 -17.5712890625 357.302734375 -20.013671875 355.34375 -22.40234375 c 0
 351.916015625 -26.5791015625 351.772460938 -26.5673828125 341.169921875 -21.103515625 c 0
 335.326171875 -18.09375 327.408203125 -14.486328125 323.75 -13.16796875 c 0
 315.526367188 -10.2041015625 308.37890625 2.1591796875 300.625976562 26.8271484375 c 0
 297.643554688 36.3203125 289.59375 59.2861328125 282.802734375 77.6796875 c 0
 270.98046875 109.706054688 268.642578125 119.481445312 272.03125 122.745117188 c 0
 272.887695312 123.5703125 274.995117188 122.041015625 276.87890625 119.227539062 c 0
 281.080078125 112.951171875 299.693359375 99.318359375 304.057617188 99.318359375 c 0
 312.567382812 99.318359375 319.7109375 156.015625 327.096679688 282.171875 c 0
 328.349609375 303.59375 330.350585938 328.42578125 331.540039062 337.3515625 c 0
 332.733398438 346.302734375 334.739257812 369.594726562 336.01171875 389.286132812 c 0
 339.047851562 436.244140625 341.46484375 462.237304688 344.82421875 484.06640625 c 0
 346.321289062 493.8046875 346.91796875 502.396484375 346.145507812 503.109375 c 0
 345.376953125 503.8203125 339.545898438 502.888671875 333.271484375 501.052734375 c 0
 326.962890625 499.208984375 312.064453125 495.606445312 300.162109375 493.047851562 c 0
 269.217773438 486.39453125 245.6015625 477.262695312 223.775390625 463.509765625 c 0
 190.884765625 442.786132812 182.294921875 439.657226562 153.014648438 437.737304688 c 0
 133.756835938 436.474609375 133.42578125 436.536132812 123.260742188 443.384765625 c 0
 117.41796875 447.3203125 110.504882812 454.510742188 107.2421875 460.046875 c 0
 99.498046875 473.182617188 98.2529296875 495.750976562 103.327148438 531.0234375 c 0
 109.333007812 572.788085938 109.40234375 574.314453125 105.619140625 581.661132812 c 2
 102.162109375 588.368164062 l 1
 115.146484375 598.430664062 l 2
 124.883789062 605.977539062 127.822265625 609.466796875 126.900390625 612.387695312 c 0
 124.577148438 619.744140625 128.62109375 621.612304688 131.586914062 614.55078125 c 2
 134.40625 607.84375 l 1
 153.448242188 607.84375 l 2
 187.990234375 607.84375 251.689453125 615.208984375 302.327148438 625.05859375 c 0
 314.228515625 627.373046875 332.73046875 630.344726562 343.442382812 631.662109375 c 0
 363.666015625 634.149414062 397.540039062 641.25 423.506835938 648.440429688 c 0
 431.946289062 650.778320312 443.829101562 653.8828125 450.33984375 655.450195312 c 0
 456.80859375 657.008789062 467.434570312 660.4375 474.143554688 663.131835938 c 0
 480.86328125 665.83203125 496.865234375 670.122070312 510.064453125 672.76171875 c 0
 523.264648438 675.401367188 541.435546875 679.40234375 550.854492188 681.7421875 c 0
 560.271484375 684.081054688 576.713867188 686.779296875 587.75 687.796875 c 0
EndSplineSet
EndChar

StartChar: U
Encoding: 85 85 20
Width: 792
VWidth: 884
Flags: H
HStem: -25.6143 95.9199<258.134 477.348>
VStem: 137.563 96.7832<114.999 379.5> 566.99 104.115<550.464 686.318> 566.99 2.46777<576.691 576.88> 567.516 69.2393<198.228 594.015>
LayerCount: 2
Back
Fore
SplineSet
596.377929688 699.017578125 m 0xd0
 621.739257812 705.166015625 633.344726562 702.28515625 650.66015625 685.54296875 c 0
 662.823242188 673.78515625 669.637695312 660.5625 671.10546875 645.880859375 c 0xe0
 672.024414062 636.694335938 670.71484375 630.084960938 664.229492188 611.174804688 c 0
 655.138671875 584.670898438 653.081054688 576.024414062 648.458007812 544.877929688 c 0
 645.518554688 525.077148438 637.030273438 443.268554688 636.754882812 432.084960938 c 0
 636.693359375 429.625976562 634.0078125 408.725585938 630.749023438 385.366210938 c 0
 626.885742188 357.665039062 624.1640625 325.075195312 622.8515625 290.815429688 c 0
 620.680664062 234.084960938 615.911132812 178.475585938 610.622070312 148.2109375 c 0
 606.112304688 122.404296875 592.172851562 74.935546875 587.494140625 69.455078125 c 0
 585.399414062 67.0009765625 582.26171875 62.11328125 580.495117188 58.5537109375 c 0
 575.469726562 48.4296875 545.430664062 19.37890625 527.857421875 7.646484375 c 0
 492.995117188 -15.626953125 473.795898438 -21.2919921875 415.5078125 -25.5068359375 c 0
 386.626953125 -27.595703125 368.12109375 -27.6201171875 334.083984375 -25.6142578125 c 0
 266.895507812 -21.65625 234.048828125 -11.4150390625 195.706054688 17.525390625 c 0
 168.434570312 38.1083984375 161.756835938 47.6533203125 144.58203125 90.58984375 c 0
 138.796875 105.05078125 136.278320312 114.0390625 137.750976562 114.951171875 c 0
 139.329101562 115.927734375 139.267578125 119.2890625 137.5625 125.295898438 c 0
 132.962890625 141.498046875 137.372070312 325.965820312 144.735351562 425.41015625 c 0
 146.528320312 449.62109375 146.548828125 468.125 144.809570312 492.8203125 c 0
 142.272460938 528.860351562 139.399414062 539.227539062 130.298828125 545.177734375 c 0
 122.603515625 550.208984375 119.395507812 560.228515625 121.060546875 574.022460938 c 0
 121.8671875 580.6953125 124.170898438 589.1015625 126.244140625 592.931640625 c 0
 132.0078125 603.583984375 171.901367188 634.5078125 194.59375 645.9140625 c 0
 220.2578125 658.814453125 227.295898438 659.725585938 253.548828125 653.541015625 c 0
 290.256835938 644.892578125 325.810546875 624.112304688 332.881835938 607.169921875 c 0
 338.717773438 593.188476562 331.423828125 569.572265625 309.861328125 532.642578125 c 0
 304.276367188 523.075195312 297.825195312 508.83203125 295.706054688 501.384765625 c 0
 293.565429688 493.859375 288.095703125 477.69140625 283.553710938 465.455078125 c 0
 272.073242188 434.532226562 257.061523438 386.04296875 252.4921875 365.12109375 c 0
 250.40234375 355.553710938 247.3359375 342.984375 245.76171875 337.534179688 c 0
 244.171875 332.02734375 241.875 321.515625 240.661132812 314.174804688 c 0
 237.458984375 294.8203125 232.708984375 181.036132812 234.345703125 162.893554688 c 0
 235.127929688 154.216796875 236.064453125 141.409179688 236.458984375 133.97265625 c 0
 237.65234375 111.50390625 252.184570312 91.1875 273.571289062 82.0908203125 c 0
 300.306640625 70.71875 348.543945312 66.123046875 397.265625 70.3056640625 c 0
 433.083984375 73.3828125 447.400390625 76.8955078125 470.681640625 88.3203125 c 0
 493.3359375 99.4375 507.829101562 114.6171875 524.883789062 145.095703125 c 0
 553.030273438 195.401367188 557.706054688 214.506835938 562.719726562 299.713867188 c 0
 563.984375 321.223632812 566.130859375 356.666992188 567.515625 378.9140625 c 0xc8
 570.215820312 422.295898438 569.365234375 454.147460938 565.3046875 461.672851562 c 0
 563.264648438 465.455078125 563.440429688 467.001953125 566.232421875 469.793945312 c 0
 568.45703125 472.017578125 568.772460938 473.2421875 567.122070312 473.2421875 c 0
 565.141601562 473.2421875 565.19140625 474.021484375 567.345703125 476.689453125 c 0
 569.538085938 479.409179688 569.584960938 482.5859375 567.567382812 491.70703125 c 0
 565.844726562 499.493164062 565.700195312 505.676757812 567.122070312 510.6171875 c 0
 568.275390625 514.622070312 568.397460938 520.18359375 567.391601562 522.853515625 c 0
 565.794921875 527.090820312 565.555664062 558.44921875 566.990234375 575.579101562 c 0xe0
 567.418945312 580.6953125 567.616210938 580.784179688 569.458007812 576.69140625 c 0
 570.663085938 574.013671875 571.49609375 590.485351562 571.552734375 618.071289062 c 0
 571.651367188 667.682617188 573.778320312 685.537109375 580.359375 692.004882812 c 0
 582.671875 694.276367188 589.926757812 697.453125 596.377929688 699.017578125 c 0xd0
276.908203125 476.022460938 m 0
 277.7578125 479.360351562 277.858398438 482.141601562 277.130859375 482.141601562 c 0
 273.57421875 482.141601562 247.612304688 381.360351562 245.780273438 360.44921875 c 2
 244.6484375 347.544921875 l 1
 247.763671875 363.118164062 l 2
 249.477539062 371.68359375 253.584960938 386.700195312 256.893554688 396.489257812 c 0
 264.185546875 418.069335938 273.7578125 453.982421875 274.68359375 463.23046875 c 0
 275.061523438 467.013671875 276.025390625 472.555664062 276.908203125 476.022460938 c 0
EndSplineSet
EndChar

StartChar: V
Encoding: 86 86 21
Width: 792
VWidth: 884
Flags: H
HStem: 450.581 21G<94.7739 98.2338>
LayerCount: 2
Back
Fore
SplineSet
688.474609375 713.619140625 m 0
 702.178710938 726.75390625 702.403320312 726.860351562 716.677734375 726.860351562 c 0
 724.505859375 726.860351562 731.068359375 726.440429688 731.068359375 725.938476562 c 0
 731.068359375 725.430664062 729.440429688 721.103515625 727.4296875 716.26953125 c 0
 723.23828125 706.1875 723.997070312 691.864257812 729.921875 669.301757812 c 0
 734.275390625 652.725585938 733.29296875 626.072265625 727.8515625 613.125976562 c 0
 726.190429688 609.171875 711.54296875 592.634765625 695.022460938 576.056640625 c 0
 643.904296875 524.766601562 553.583984375 409.369140625 520.587890625 353.192382812 c 0
 488.095703125 297.875976562 455.681640625 214.36328125 432.836914062 127.103515625 c 0
 428.1953125 109.376953125 420.409179688 80.8857421875 415.534179688 63.7900390625 c 0
 410.674804688 46.7529296875 405.577148438 27.5078125 404.252929688 21.197265625 c 0
 402.899414062 14.75 401.27734375 7.2548828125 400.56640625 4.16015625 c 0
 399.060546875 -2.4072265625 373.517578125 -29.740234375 364.538085938 -34.3935546875 c 0
 356.01953125 -38.8095703125 346.890625 -38.408203125 338.521484375 -33.25 c 0
 334.72265625 -30.91015625 325.3984375 -26.6708984375 317.799804688 -23.8330078125 c 0
 300.302734375 -17.296875 289.469726562 -9.041015625 285.30078125 0.9365234375 c 0
 280.586914062 12.2177734375 270.702148438 54.26171875 270.5234375 63.7900390625 c 0
 270.407226562 70.005859375 269.96875 70.849609375 268.604492188 67.4736328125 c 0
 266.23046875 61.603515625 265.390625 63.330078125 259.19140625 86.8134765625 c 0
 256.334960938 97.634765625 252.584960938 111.529296875 250.802734375 117.895507812 c 0
 249.029296875 124.2265625 244.499023438 143.911132812 240.733398438 161.638671875 c 0
 233.203125 197.095703125 228.045898438 215.056640625 217.921875 241.069335938 c 0
 214.244140625 250.521484375 208.911132812 268.236328125 206.137695312 280.209960938 c 0
 203.342773438 292.279296875 193.385742188 325.450195312 183.920898438 354.228515625 c 0
 167.866210938 403.038085938 165.986328125 407.356445312 154.565429688 421.686523438 c 0
 147.775390625 430.206054688 140.422851562 440.98046875 137.989257812 445.9765625 c 0
 135.6328125 450.810546875 132.01953125 455.43359375 130.161132812 455.9921875 c 0
 128.26171875 456.560546875 124.634765625 457.856445312 122.102539062 458.869140625 c 0
 117.958984375 460.52734375 117.814453125 460.319335938 120.666015625 456.796875 c 0
 124.372070312 452.217773438 123.25390625 451.97265625 115.1953125 455.592773438 c 0
 110.360351562 457.764648438 108.758789062 457.5703125 105.180664062 454.379882812 c 0
 102.877929688 452.326171875 99.2294921875 450.581054688 97.23828125 450.581054688 c 0
 92.3095703125 450.581054688 61.669921875 496.856445312 59.73828125 507.217773438 c 0
 58.259765625 515.141601562 61.169921875 544.28515625 65.9228515625 569.150390625 c 0
 69.046875 585.497070312 90.396484375 627.016601562 101.438476562 638.219726562 c 0
 112.6796875 649.625 134.765625 661.088867188 152.723632812 664.841796875 c 0
 183.114257812 671.192382812 233.495117188 662.4765625 253.10546875 647.473632812 c 0
 269.84375 634.669921875 271.134765625 626.478515625 267.25390625 557.638671875 c 0
 264.103515625 501.75390625 262.768554688 518.959960938 280.842773438 382.663085938 c 0
 285.46484375 347.811523438 290.616210938 322.341796875 302.029296875 277.90625 c 0
 310.309570312 245.672851562 318.611328125 212.966796875 320.438476562 205.383789062 c 0
 326.709960938 179.3671875 328.305664062 174.301757812 330.232421875 174.301757812 c 0
 331.405273438 174.301757812 332.880859375 176.603515625 333.62890625 179.596679688 c 0
 335.470703125 186.963867188 344.115234375 197.784179688 346.809570312 196.09375 c 0
 347.9609375 195.37109375 348.295898438 192.030273438 347.561523438 188.577148438 c 0
 343.525390625 169.57421875 344.03515625 169.928710938 360.198242188 197.325195312 c 0
 361.318359375 199.224609375 363.259765625 204.922851562 364.51171875 209.98828125 c 0
 368.780273438 227.255859375 378.90234375 251.4296875 386.686523438 262.942382812 c 0
 391.043945312 269.387695312 395.177734375 277.4921875 396.079101562 281.360351562 c 0
 396.974609375 285.197265625 403.114257812 297.4765625 409.892578125 308.98828125 c 0
 416.584960938 320.3515625 430.098632812 345.825195312 439.81640625 365.395507812 c 0
 459.479492188 404.995117188 485.817382812 449.930664062 508.100585938 481.892578125 c 0
 545.981445312 536.228515625 613.995117188 625.956054688 627.232421875 639.060546875 c 0
 635.291015625 647.036132812 643.645507812 656.879882812 645.670898438 660.783203125 c 0
 651.625 672.259765625 673.509765625 699.2734375 688.474609375 713.619140625 c 0
613.6484375 599.081054688 m 0
 613.6484375 600.922851562 613.21875 602.53515625 612.727539062 602.53515625 c 0
 610.205078125 602.53515625 586.197265625 572.143554688 569.985351562 548.4296875 c 0
 559.754882812 533.463867188 548.225585938 519.047851562 544.579101562 516.657226562 c 0
 540.513671875 513.994140625 531.376953125 501.346679688 521.2109375 484.310546875 c 0
 512.005859375 468.884765625 502.291015625 453.75390625 499.55078125 450.581054688 c 0
 494.084960938 444.25 478.03515625 414.895507812 473.114257812 402.232421875 c 0
 471.401367188 397.821289062 463.9921875 384.2734375 456.74609375 372.301757812 c 0
 449.5 360.330078125 442.801757812 346.783203125 441.948242188 342.37109375 c 0
 439.80078125 331.278320312 441.923828125 334.083007812 454.494140625 358.948242188 c 0
 480.217773438 409.830078125 514.568359375 467.458984375 529.009765625 483.963867188 c 0
 533.844726562 489.490234375 537.672851562 495.4921875 537.672851562 497.548828125 c 0
 537.672851562 499.583007812 541.161132812 505.146484375 545.469726562 509.981445312 c 0
 555.3203125 521.032226562 582.568359375 556.884765625 586.063476562 563.395507812 c 0
 587.540039062 566.141601562 594.473632812 574.676757812 601.217773438 582.043945312 c 0
 607.959960938 589.411132812 613.6484375 597.208007812 613.6484375 599.081054688 c 0
234.802734375 224.262695312 m 0
 231.547851562 234.853515625 228.416992188 243.37109375 227.779296875 243.37109375 c 0
 225.369140625 243.37109375 227.129882812 233.2421875 231.702148438 220.809570312 c 0
 234.326171875 213.671875 237.369140625 204.010742188 238.37109375 199.627929688 c 0
 240.159179688 191.799804688 240.21875 191.762695312 240.442382812 198.361328125 c 0
 240.5703125 202.125 238.055664062 213.671875 234.802734375 224.262695312 c 0
242.053710938 179.596679688 m 0
 242.797851562 180.341796875 242.904296875 182.360351562 242.284179688 183.971679688 c 0
 241.556640625 185.862304688 241.047851562 185.353515625 240.903320312 182.58984375 c 0
 240.78125 180.288085938 241.326171875 178.870117188 242.053710938 179.596679688 c 0
250.854492188 149.436523438 m 0
 244.293945312 174.071289062 243.40234375 176.681640625 243.15625 172 c 0
 243.0546875 170.076171875 245.065429688 161.41015625 247.694335938 152.4296875 c 0
 250.32421875 143.450195312 252.465820312 132.235351562 252.529296875 127.103515625 c 0
 252.624023438 119.505859375 252.987304688 118.78125 254.602539062 122.959960938 c 0
 255.927734375 126.391601562 254.71875 134.931640625 250.854492188 149.436523438 c 0
265.768554688 85.6630859375 m 0
 265.768554688 86.9609375 264.3125 89.921875 262.428710938 92.453125 c 0
 260.545898438 94.986328125 259.090820312 95.9404296875 259.090820312 94.6416015625 c 0
 259.090820312 93.3427734375 260.545898438 90.3818359375 262.428710938 87.849609375 c 0
 264.3125 85.31640625 265.768554688 84.36328125 265.768554688 85.6630859375 c 0
EndSplineSet
EndChar

StartChar: W
Encoding: 87 87 22
Width: 792
VWidth: 884
Flags: H
HStem: 722.778 4.08203<690.67 693.697>
VStem: 56.8354 175.286<494.17 601.107> 504.917 52.8516<-1.62682 41.6793> 690.669 3.0625<723.028 726.772>
LayerCount: 2
Back
Fore
SplineSet
685.76953125 710.020507812 m 0
 687.869140625 714.71484375 690.209960938 718.694335938 690.873046875 718.694335938 c 0
 697.143554688 718.694335938 692.795898438 678.279296875 683.7578125 652.55859375 c 0
 679.811523438 641.33203125 676.94140625 631.779296875 677.37890625 631.331054688 c 0
 681.126953125 627.482421875 689.3984375 644.39453125 695.948242188 669.296875 c 0
 700.994140625 688.484375 703.541992188 694.1875 705.978515625 691.750976562 c 0
 706.65625 691.073242188 709.317382812 681.953125 711.935546875 671.337890625 c 0
 716.669921875 652.150390625 722.029296875 639.401367188 730.212890625 627.860351562 c 0
 733.852539062 622.727539062 734.655273438 618.266601562 735.16796875 600.302734375 c 0
 735.681640625 582.33984375 735.185546875 578.01171875 732.106445312 573.5625 c 0
 717.291015625 552.163085938 711.01171875 540.903320312 699.6640625 515.387695312 c 0
 684.2890625 480.815429688 670.6640625 441.903320312 660.853515625 404.548828125 c 0
 656.939453125 389.646484375 649.228515625 366.165039062 643.760742188 352.497070312 c 0
 629.544921875 316.955078125 622.793945312 295.137695312 610.225585938 244.107421875 c 0
 596.259765625 187.401367188 587.5 147.557617188 572.209960938 71.21484375 c 0
 565.5078125 37.73828125 559.012695312 8.1826171875 557.768554688 5.486328125 c 0
 554.463867188 -1.6728515625 545.7421875 -4.646484375 532.880859375 -2.9970703125 c 0
 522.0625 -1.6103515625 504.916992188 6.720703125 504.916992188 10.58984375 c 0
 504.916992188 11.71484375 500.700195312 17.12109375 495.52734375 22.6328125 c 0
 487.84375 30.81640625 484.69921875 36.7177734375 478.225585938 55.0888671875 c 0
 467.903320312 84.384765625 444.380859375 180.012695312 429.220703125 254.313476562 c 0
 422.556640625 286.97265625 416.227539062 316.1171875 415.1015625 319.327148438 c 0
 413.986328125 322.506835938 411.625 333.616210938 409.895507812 343.821289062 c 0
 408.16796875 354.026367188 403.538085938 371.990234375 399.690429688 383.421875 c 0
 395.842773438 394.852539062 392.615234375 405.918945312 392.576171875 407.814453125 c 0
 392.392578125 416.694335938 388.73046875 403.936523438 384.549804688 379.849609375 c 0
 379.904296875 353.100585938 369.32421875 308.610351562 361.00390625 280.849609375 c 0
 358.295898438 271.813476562 353.360351562 250.842773438 349.954101562 233.901367188 c 0
 337.68359375 172.868164062 321.399414062 86.3544921875 318.064453125 64.478515625 c 0
 315.232421875 45.9033203125 313.268554688 39.701171875 306.166992188 26.9208984375 c 0
 296.869140625 10.181640625 290.147460938 4.7373046875 275.48046875 2.0634765625 c 0
 261.8046875 -0.4296875 250.48828125 2.775390625 241.188476562 11.775390625 c 0
 223.926757812 28.478515625 195.065429688 99.3837890625 174.450195312 175.725585938 c 0
 170.97265625 188.609375 162.5859375 218.999023438 155.864257812 243.086914062 c 0
 149.127929688 267.224609375 138.4921875 307.182617188 132.227539062 331.880859375 c 0
 102.61328125 448.638671875 93.462890625 474.741210938 72.2626953125 502.936523438 c 0
 60.82421875 518.149414062 57.498046875 527.431640625 56.8349609375 546.005859375 c 0
 56.2744140625 561.724609375 56.5673828125 562.91796875 64.6591796875 577.849609375 c 0
 82.359375 610.509765625 98.8076171875 629.810546875 116.672851562 638.883789062 c 0
 140.09375 650.778320312 177.91015625 636.969726562 211.38671875 604.298828125 c 0
 228.89453125 587.2109375 232.020507812 580.298828125 232.12109375 558.458007812 c 0
 232.180664062 545.598632812 228.626953125 536.301757812 220.572265625 528.247070312 c 0
 216.13671875 523.813476562 216.081054688 522.940429688 216.081054688 458.436523438 c 0
 216.081054688 392.09765625 217.526367188 370.299804688 225.48828125 316.572265625 c 0
 230.48046875 282.890625 245.946289062 207.752929688 251.329101562 191.03515625 c 2
 255.2734375 178.788085938 l 1
 257.82421875 184.912109375 l 2
 259.2265625 188.274414062 268.1484375 221.857421875 277.616210938 259.416992188 c 0
 315.495117188 409.651367188 349.295898438 523.346679688 365.97265625 556.62109375 c 0
 374.567382812 573.768554688 389.85546875 591.592773438 401.016601562 597.483398438 c 0
 421.421875 608.25 456.387695312 593.362304688 467.748046875 569.073242188 c 0
 471.966796875 560.05078125 476.338867188 521.715820312 476.338867188 493.750976562 c 0
 476.338867188 464.368164062 487.924804688 376.788085938 500.182617188 313.509765625 c 0
 503.030273438 298.8125 505.78125 283.51171875 506.348632812 279.216796875 c 0
 508.86328125 260.181640625 514.396484375 269.21484375 530.482421875 318.61328125 c 0
 537.9921875 341.678710938 550.994140625 377.86328125 559.452148438 399.2421875 c 0
 577.234375 444.193359375 584.286132812 463.3359375 601.190429688 512.53125 c 0
 619.284179688 565.194335938 629.795898438 590.822265625 651 633.983398438 c 0
 661.529296875 655.416992188 672.700195312 679.16015625 675.971679688 687.056640625 c 0
 679.26953125 695.016601562 683.608398438 705.186523438 685.76953125 710.020507812 c 0
667.092773438 439.862304688 m 0
 670.072265625 447.619140625 672.213867188 455.872070312 671.861328125 458.233398438 c 0
 671.151367188 462.98046875 655.079101562 416.18359375 647.041015625 385.97265625 c 0
 644.217773438 375.358398438 640.451171875 362.0078125 638.719726562 356.477539062 c 0
 636.993164062 350.965820312 636.326171875 347.208984375 637.251953125 348.209960938 c 0
 639.598632812 350.752929688 651.220703125 385.97265625 657.122070312 408.427734375 c 0
 659.64453125 418.020507812 664.1015625 432.07421875 667.092773438 439.862304688 c 0
690.668945312 724.819335938 m 0
 690.668945312 725.985351562 691.587890625 726.860351562 692.811523438 726.860351562 c 0
 694.037109375 726.860351562 694.430664062 725.985351562 693.731445312 724.819335938 c 0
 692.99609375 723.594726562 692.138671875 722.778320312 691.587890625 722.778320312 c 0
 691.036132812 722.778320312 690.668945312 723.594726562 690.668945312 724.819335938 c 0
EndSplineSet
EndChar

StartChar: X
Encoding: 88 88 23
Width: 792
VWidth: 884
Flags: H
VStem: 106.427 83.6826<15.9634 73.9359> 128.841 9.95215<125.929 157.106> 589.793 10.4756<202.668 209.244>
LayerCount: 2
Back
Fore
SplineSet
562.345703125 690.489257812 m 0x60
 584.5546875 700.251953125 594.55078125 700.1015625 614.7265625 689.698242188 c 0
 626.65625 683.547851562 634.4609375 677.203125 650.202148438 660.860351562 c 0
 672.807617188 637.393554688 685.833984375 619.193359375 687.547851562 608.688476562 c 0
 689.018554688 599.678710938 681.740234375 574.629882812 675.799804688 568.25 c 0
 673.44921875 565.7265625 667.525390625 562.565429688 662.70703125 561.262695312 c 0
 627.955078125 551.875 608.440429688 539.028320312 562.553710938 495.333984375 c 0
 550.40234375 483.76171875 534.458007812 469.126953125 526.935546875 462.639648438 c 0
 504.09765625 442.948242188 436.587890625 372.125976562 420.4921875 350.974609375 c 0
 412.036132812 339.861328125 414.048828125 331.698242188 430.147460938 311.79296875 c 0
 437.9765625 302.11328125 451.359375 284.765625 459.887695312 273.241210938 c 0
 468.415039062 261.716796875 480.719726562 246.630859375 487.229492188 239.716796875 c 0
 493.794921875 232.745117188 507.28125 216.879882812 517.505859375 204.098632812 c 0
 527.731445312 191.317382812 540.28515625 176.3828125 545.6875 170.575195312 c 0
 551.143554688 164.708007812 558.012695312 155.672851562 561.296875 150.041015625 c 0
 564.474609375 144.592773438 567.432617188 140.271484375 567.75 140.611328125 c 0
 570.1953125 143.237304688 577.338867188 175.393554688 578.03515625 186.91796875 c 0
 578.50390625 194.669921875 579.518554688 201.833007812 580.258789062 202.631835938 c 0
 581.022460938 203.452148438 583.418945312 201.793945312 585.70703125 198.859375 c 0
 589.465820312 194.041015625 589.79296875 193.95703125 589.79296875 197.8125 c 0
 589.79296875 202.631835938 595.208007812 211.431640625 598.173828125 211.431640625 c 0
 599.333984375 211.431640625 600.268554688 208.392578125 600.268554688 204.62109375 c 0
 600.268554688 200.846679688 602.056640625 187.545898438 604.283203125 174.764648438 c 0
 615.048828125 112.956054688 624.786132812 85.1220703125 648.630859375 48.00390625 c 2
 658.7265625 32.2880859375 l 1
 656.109375 18.6689453125 l 2
 652.810546875 1.48828125 652.220703125 0.568359375 643.430664062 -1.123046875 c 0
 639.44921875 -1.888671875 635.797851562 -3.83203125 635.154296875 -5.5302734375 c 0
 634.485351562 -7.294921875 632.640625 -8.5693359375 630.754882812 -8.5693359375 c 0
 628.869140625 -8.5693359375 627.5078125 -9.447265625 627.5078125 -10.6640625 c 0
 627.5078125 -13.5107421875 597.125 -13.3544921875 583.087890625 -10.435546875 c 0
 569.049804688 -7.515625 544.3046875 4.6484375 535.31640625 13.046875 c 0
 531.544921875 16.5703125 525.592773438 25.79296875 522.224609375 33.3359375 c 0
 505.188476562 71.4697265625 486.67578125 101.626953125 466.276367188 124.479492188 c 0
 459.10546875 132.51171875 447.609375 147.107421875 440.862304688 156.745117188 c 0
 424.58203125 180.002929688 391.32421875 218.692382812 368.745117188 240.640625 c 2
 350.724609375 258.154296875 l 1
 344.229492188 252.080078125 l 2
 340.6875 248.765625 334.306640625 240.764648438 330.192382812 234.479492188 c 0
 326.063476562 228.171875 315.491210938 213.9453125 306.8359375 203.05078125 c 0
 286.813476562 177.848632812 272.8515625 158.841796875 248.352539062 123.431640625 c 0
 237.625976562 107.926757812 222.392578125 87.0986328125 214.639648438 77.3369140625 c 0
 206.819335938 67.48828125 195.852539062 52.501953125 190.109375 43.8125 c 0
 181.333984375 30.5361328125 165.989257812 11.96484375 149.599609375 -5.2158203125 c 0
 145.647460938 -9.3603515625 145.393554688 -9.3046875 126.954101562 -0.3037109375 c 0
 103.068359375 11.35546875 101.72265625 13.6708984375 106.426757812 35.0126953125 c 0xa0
 108.395507812 43.947265625 111.98046875 63.298828125 114.459960938 78.3837890625 c 0
 120.212890625 113.374023438 119.931640625 112.474609375 123.541015625 107.5078125 c 0
 127.734375 101.73828125 130.163085938 105.413085938 126.7265625 112.327148438 c 0
 125.165039062 115.469726562 123.421875 118.922851562 122.973632812 119.764648438 c 0
 122.501953125 120.649414062 123.6015625 120.786132812 125.487304688 120.079101562 c 0
 128.244140625 119.045898438 128.840820312 120.499023438 128.840820312 128.250976562 c 0
 128.840820312 138.7265625 132.98828125 159.05078125 135.125976562 159.05078125 c 0
 135.935546875 159.05078125 137.577148438 154.125976562 138.79296875 148.05078125 c 0
 140.002929688 141.99609375 142.264648438 131.916992188 143.8203125 125.631835938 c 2
 146.650390625 114.212890625 l 1
 151.36328125 119.2421875 l 2
 153.916992188 121.96484375 156.078125 125.998046875 156.078125 128.040039062 c 0
 156.078125 132.650390625 159.310546875 133.067382812 160.963867188 128.669921875 c 0
 162.907226562 123.50390625 166.00390625 124.8984375 167.477539062 131.603515625 c 0
 168.260742188 135.165039062 170.583007812 138.43359375 172.840820312 139.146484375 c 0
 175.03125 139.837890625 178.704101562 143.650390625 181.01171875 147.630859375 c 0
 183.319335938 151.612304688 186.66015625 154.859375 188.450195312 154.859375 c 0
 190.334960938 154.859375 191.697265625 156.001953125 191.697265625 157.583984375 c 0
 191.697265625 165.01171875 226.606445312 209.96484375 269.9609375 258.364257812 c 0
 292.294921875 283.298828125 306.935546875 302.793945312 306.935546875 307.602539062 c 0
 306.935546875 315.926757812 248.477539062 367.069335938 221.240234375 382.57421875 c 0
 215.922851562 385.6015625 197.982421875 396.231445312 181.221679688 406.2890625 c 0
 164.458984375 416.346679688 147.740234375 426.114257812 143.92578125 428.079101562 c 0
 140.076171875 430.063476562 133.34375 434.936523438 128.735351562 439.079101562 c 2
 120.458984375 446.518554688 l 1
 120.458984375 471.451171875 l 2
 120.458984375 530.536132812 135.649414062 561.850585938 181.221679688 596.706054688 c 2
 197.982421875 609.526367188 l 1
 221.448242188 609.526367188 l 2
 246.258789062 609.526367188 243.868164062 610.181640625 283.258789062 592.614257812 c 0
 288.077148438 590.466796875 294.333007812 585.518554688 297.505859375 581.344726562 c 0
 302.653320312 574.579101562 303.342773438 571.498046875 305.153320312 547.193359375 c 0
 306.248046875 532.52734375 308.17578125 517.171875 309.432617188 513.145507812 c 0
 312.584960938 503.04296875 330.78515625 467.05078125 348.6328125 435.622070312 c 0
 356.842773438 421.1640625 365.055664062 405.395507812 366.963867188 400.421875 c 0
 368.892578125 395.39453125 371.439453125 391.743164062 372.725585938 392.16015625 c 0
 376.556640625 393.405273438 404.8046875 431.640625 411.798828125 445.05078125 c 0
 418.380859375 457.666992188 423.081054688 465.165039062 445.430664062 498.688476562 c 0
 451.91796875 508.419921875 465.40625 532.211914062 475.6015625 551.908203125 c 0
 485.796875 571.602539062 495.666992188 589.869140625 497.6796875 592.764648438 c 0
 502.000976562 598.982421875 501.1640625 600.7890625 491.106445312 606.96484375 c 0
 482.8046875 612.0625 478.745117188 619.1640625 478.745117188 628.592773438 c 0
 478.745117188 642.013671875 486.70703125 650.509765625 512.268554688 664.37109375 c 0
 519.810546875 668.4609375 530.46875 674.373046875 536.154296875 677.622070312 c 0
 541.828125 680.86328125 553.544921875 686.620117188 562.345703125 690.489257812 c 0x60
472.459960938 515.869140625 m 0
 472.459960938 516.75 471.872070312 517.32421875 470.993164062 517.307617188 c 0
 468.5703125 517.255859375 447.65625 488.421875 442.138671875 477.52734375 c 0
 439.487304688 472.2890625 435.775390625 466.646484375 434.01171875 465.165039062 c 0
 432.231445312 463.671875 423.381835938 450.184570312 414.420898438 435.306640625 c 0
 405.461914062 420.431640625 393.959960938 403.44140625 388.963867188 397.698242188 c 0
 383.858398438 391.83203125 380.403320312 386.668945312 381.107421875 385.96484375 c 0
 382.521484375 384.549804688 388.649414062 389.317382812 388.649414062 391.83203125 c 0
 388.649414062 392.881835938 392.31640625 397.384765625 396.926757812 401.993164062 c 0
 401.478515625 406.545898438 407.12109375 414.041015625 409.467773438 418.650390625 c 0
 417.0390625 433.52734375 430.336914062 453.11328125 439.624023438 463.0703125 c 0
 447.24609375 471.241210938 472.459960938 511.784179688 472.459960938 515.869140625 c 0
EndSplineSet
EndChar

StartChar: Y
Encoding: 89 89 24
Width: 792
VWidth: 884
Flags: H
VStem: 145.842 6.70312<512.549 515.427> 315.566 121.378<43.9589 338.88>
LayerCount: 2
Back
Fore
SplineSet
145.915039062 515.4609375 m 0
 147.434570312 517.018554688 152.544921875 514.860351562 152.544921875 512.66015625 c 0
 152.544921875 510.260742188 147.278320312 510.1015625 145.841796875 512.459960938 c 0
 145.18359375 513.540039062 145.212890625 514.740234375 145.915039062 515.4609375 c 0
630.145507812 678.904296875 m 0
 650.344726562 684.999023438 687.391601562 673.498046875 696.654296875 658.259765625 c 0
 699.90234375 652.916992188 700.544921875 648.060546875 700.544921875 628.859375 c 2
 700.544921875 605.860351562 l 1
 674.9453125 584.802734375 l 2
 643.14453125 558.646484375 551.614257812 467.658203125 526.118164062 436.861328125 c 0
 482.076171875 383.661132812 456.1328125 344.743164062 444.524414062 314.459960938 c 0
 441.228515625 305.860351562 436.661132812 296.975585938 434.344726562 294.66015625 c 0
 430.166992188 290.481445312 430.150390625 289.959960938 431.14453125 195.16015625 c 0
 431.6953125 142.760742188 433.08984375 93.3779296875 434.245117188 85.4599609375 c 0
 435.392578125 77.5947265625 436.6171875 59.7607421875 436.944335938 46.16015625 c 0
 437.52734375 21.9599609375 437.404296875 21.1083984375 432.55078125 15.8603515625 c 0
 423.505859375 6.078125 414.544921875 3.375 397.9453125 5.423828125 c 0
 378.231445312 7.857421875 367.545898438 14.05078125 344.14453125 36.6015625 c 0
 323.14453125 56.8408203125 317.649414062 65.775390625 315.56640625 83.060546875 c 0
 313.088867188 103.624023438 321.891601562 193.659179688 331.775390625 248.860351562 c 0
 338.544921875 286.66015625 338.544921875 286.66015625 326.379882812 299.259765625 c 0
 320.779296875 305.060546875 313.473632812 313.708984375 310.245117188 318.359375 c 0
 307.009765625 323.01953125 289.66015625 345.16015625 271.844726562 367.360351562 c 0
 254.029296875 389.559570312 229.549804688 421.416015625 217.670898438 437.859375 c 0
 188.336914062 478.459960938 180.6640625 488.762695312 176.862304688 492.66015625 c 0
 175.01953125 494.548828125 170.022460938 500.060546875 165.619140625 505.059570312 c 0
 157.165039062 514.66015625 145.522460938 522.860351562 140.345703125 522.860351562 c 0
 138.59375 522.860351562 131.345703125 525.22265625 124.344726562 528.07421875 c 0
 99.345703125 538.260742188 99.345703125 538.260742188 94.5048828125 551.059570312 c 0
 88.5185546875 566.899414062 90.869140625 576.259765625 105.809570312 596.059570312 c 0
 126.938476562 624.060546875 146.584960938 638.259765625 170.544921875 642.849609375 c 0
 187.14453125 646.029296875 222.118164062 645.383789062 234.544921875 641.66796875 c 0
 249.344726562 637.243164062 274.696289062 624.307617188 283.345703125 616.766601562 c 0
 292.31640625 608.947265625 297.853515625 592.059570312 300.62890625 564.060546875 c 0
 305.05078125 519.459960938 306.658203125 508.93359375 312.482421875 486.459960938 c 0
 316.865234375 469.543945312 322.944335938 453.859375 334.420898438 429.860351562 c 0
 351.5390625 394.059570312 372.2734375 358.666015625 375.543945312 359.655273438 c 0
 376.650390625 359.990234375 382.471679688 368.860351562 388.544921875 379.459960938 c 0
 398.5 396.834960938 439.028320312 451.259765625 462.564453125 478.860351562 c 0
 467.791015625 484.989257812 476.639648438 496.060546875 482.544921875 503.860351562 c 0
 488.451171875 511.661132812 496.865234375 521.845703125 501.544921875 526.860351562 c 0
 506.158203125 531.8046875 517.291015625 546.360351562 526.245117188 559.161132812 c 0
 535.19921875 571.959960938 546.420898438 586.831054688 551.14453125 592.16015625 c 0
 555.8359375 597.450195312 564.689453125 609.860351562 570.623046875 619.459960938 c 0
 588.423828125 648.260742188 614.333007812 674.13671875 630.145507812 678.904296875 c 0
534.544921875 542.860351562 m 0
 534.544921875 543.926757812 533.145507812 544.861328125 531.544921875 544.861328125 c 0
 529.9453125 544.861328125 528.544921875 544.067382812 528.544921875 543.16015625 c 0
 528.544921875 542.23828125 523.6484375 536.059570312 517.845703125 529.659179688 c 0
 511.928710938 523.134765625 501.958984375 510.260742188 495.544921875 500.859375 c 0
 489.131835938 491.458984375 480.010742188 479.434570312 475.14453125 473.959960938 c 0
 470.344726562 468.560546875 463.935546875 459.923828125 461.043945312 454.959960938 c 0
 458.139648438 449.97265625 449.54296875 436.458984375 442.021484375 425.059570312 c 0
 428.298828125 404.260742188 425.6015625 395.482421875 437.165039062 409.260742188 c 0
 440.69140625 413.459960938 444.439453125 416.94921875 445.544921875 417.060546875 c 0
 446.643554688 417.169921875 457.315429688 431.860351562 469.2265625 449.66015625 c 0
 505.765625 504.259765625 520.3359375 525.111328125 527.508789062 533.059570312 c 0
 531.296875 537.260742188 534.544921875 541.783203125 534.544921875 542.860351562 c 0
188.544921875 493.66015625 m 0
 188.544921875 494.213867188 185.645507812 496.66796875 182.044921875 499.16015625 c 0
 177.4453125 502.344726562 176.389648438 502.607421875 178.43359375 500.060546875 c 0
 181.323242188 496.459960938 188.544921875 491.889648438 188.544921875 493.66015625 c 0
EndSplineSet
EndChar

StartChar: Z
Encoding: 90 90 25
Width: 792
VWidth: 884
LayerCount: 2
Back
Fore
SplineSet
565.712890625 720.405273438 m 0
 589.865234375 728.456054688 596.908203125 726.135742188 618.734375 702.92578125 c 0
 648.9453125 670.806640625 668.924804688 630.90625 674.520507812 591.5234375 c 0
 676.94140625 574.477539062 675.59375 572.22265625 654.48828125 558.033203125 c 0
 645.73046875 552.146484375 620.544921875 529.7890625 598.3515625 508.203125 c 0
 552.875976562 463.971679688 400.3125 317.243164062 384.467773438 302.500976562 c 0
 378.684570312 297.119140625 365.578125 283.318359375 355.094726562 271.569335938 c 0
 344.705078125 259.926757812 318.740234375 231.750976562 297.543945312 209.123046875 c 0
 276.34765625 186.494140625 258.923828125 167.252929688 258.923828125 166.4765625 c 0
 258.923828125 165.693359375 262.077148438 165.64453125 265.995117188 166.3671875 c 0
 269.904296875 167.08984375 289.603515625 169.163085938 310.055664062 171.00390625 c 0
 343.890625 174.05078125 409.70703125 181.573242188 481.944335938 190.649414062 c 0
 529.8125 196.6640625 532.943359375 197.138671875 534.2734375 198.569335938 c 0
 535.053710938 199.41015625 532.594726562 205.750976562 528.783203125 212.712890625 c 0
 516.287109375 235.55859375 491.073242188 309.162109375 494.565429688 312.6015625 c 0
 495.284179688 313.3125 499.719726562 306.2734375 504.446289062 296.916992188 c 0
 515.444335938 275.159179688 525.049804688 258.868164062 523.5625 264.497070312 c 0
 522.913085938 266.963867188 521.754882812 271.677734375 520.891601562 275.376953125 c 2
 519.369140625 281.903320312 l 1
 527.418945312 273.201171875 l 2
 531.905273438 268.3515625 540.6171875 257.752929688 547.09375 249.266601562 c 0
 571.647460938 217.092773438 597.69921875 197.905273438 653.181640625 171.131835938 c 0
 688.865234375 153.911132812 699.168945312 146.005859375 702.779296875 133.077148438 c 0
 703.984375 128.760742188 704.966796875 108.055664062 704.966796875 86.951171875 c 2
 704.966796875 48.65625 l 1
 698.6328125 39.0830078125 l 2
 691.001953125 27.55078125 681.594726562 18.484375 675.375976562 16.671875 c 0
 670.78515625 15.33203125 663.84375 18.5341796875 617.93359375 43.1708984375 c 0
 576.130859375 65.603515625 553.529296875 69.5966796875 459.099609375 71.2275390625 c 0
 392.735351562 72.37109375 392.735351562 72.37109375 349.4375 65.5458984375 c 0
 275.67578125 53.9169921875 230.53125 41.560546875 184.727539062 20.462890625 c 0
 170.802734375 14.048828125 156.46484375 8.8369140625 152.743164062 8.8369140625 c 0
 144.69140625 8.8369140625 122.3984375 19.65625 115.9765625 26.6796875 c 0
 113.005859375 29.931640625 109.840820312 39.19140625 106.94140625 53.1162109375 c 0
 104.359375 65.5185546875 99.2275390625 81.1025390625 94.7568359375 90.10546875 c 0
 90.54296875 98.5908203125 87.033203125 108.036132812 87.033203125 110.884765625 c 0
 87.033203125 121.470703125 113.577148438 150.174804688 152.307617188 181.46875 c 0
 161.229492188 188.67578125 176.0234375 201.657226562 184.944335938 210.1015625 c 0
 193.983398438 218.657226562 213.883789062 237.622070312 229.549804688 252.60546875 c 0
 258.271484375 280.078125 276.329101562 295.504882812 276.329101562 292.565429688 c 0
 276.329101562 291.715820312 272.504882812 286.909179688 267.673828125 281.686523438 c 0
 258.815429688 272.112304688 256.830078125 267.760742188 261.31640625 267.760742188 c 0
 264.158203125 267.760742188 357.758789062 361.756835938 379.399414062 386.34375 c 0
 387.899414062 396.000976562 404.650390625 414.737304688 416.453125 427.79296875 c 0
 428.254882812 440.848632812 443.452148438 458.995117188 450.069335938 467.9375 c 0
 456.754882812 476.97265625 470.254882812 492.850585938 480.3125 503.51171875 c 0
 490.372070312 514.173828125 498.091796875 523.15625 497.611328125 523.63671875 c 0
 496.709960938 524.541015625 468.672851562 516.057617188 406.87890625 496.186523438 c 0
 357.705078125 480.373046875 315.45703125 464.43359375 269.150390625 444.220703125 c 0
 233.68359375 428.740234375 228.274414062 427.526367188 214.754882812 432.008789062 c 0
 199.740234375 436.984375 188.459960938 446.3359375 184.016601562 457.493164062 c 0
 182.008789062 462.534179688 178.5078125 480.774414062 176.209960938 498.180664062 c 0
 171.615234375 532.994140625 166.603515625 554.241210938 155.481445312 586.084960938 c 0
 151.375 597.833007812 147.956054688 610.493164062 147.956054688 613.934570312 c 0
 147.956054688 621.55078125 152.076171875 631.124023438 155.354492188 631.124023438 c 0
 156.672851562 631.124023438 159.161132812 632.001953125 160.903320312 633.083007812 c 0
 163.42578125 634.649414062 163.516601562 635.693359375 161.357421875 638.303710938 c 0
 158.180664062 642.146484375 159.705078125 646.35546875 164.275390625 646.35546875 c 0
 165.958984375 646.35546875 173.3046875 642.219726562 180.703125 637.107421875 c 2
 194.083984375 627.860351562 l 1
 223.67578125 628.142578125 l 2
 267.889648438 628.565429688 313.100585938 637.90625 384.033203125 661.276367188 c 0
 401.95703125 667.181640625 447.567382812 682.033203125 485.208007812 694.22265625 c 0
 522.849609375 706.412109375 559.140625 718.21484375 565.712890625 720.405273438 c 0
305.703125 163.321289062 m 0
 305.006835938 164.481445312 302.875976562 165.497070312 301.133789062 165.497070312 c 0
 299.393554688 165.497070312 298.479492188 164.481445312 299.17578125 163.321289062 c 0
 299.872070312 162.16015625 302.004882812 161.145507812 303.745117188 161.145507812 c 0
 305.486328125 161.145507812 306.399414062 162.16015625 305.703125 163.321289062 c 0
290.526367188 161.145507812 m 0
 292.086914062 163.643554688 286.338867188 163.640625 278.504882812 161.140625 c 0
 273.654296875 159.592773438 273.935546875 159.381835938 281.116210938 159.188476562 c 0
 285.467773438 159.0703125 289.791015625 159.970703125 290.526367188 161.145507812 c 0
EndSplineSet
Validated: 524321
EndChar

StartChar: a
Encoding: 97 97 26
Width: 729
VWidth: 900
Flags: HW
HStem: 1.18555 67.2207<480.457 509.488>
LayerCount: 2
Back
Fore
SplineSet
401.555664062 485.44140625 m 4
 413.313476562 487.18359375 444.38671875 484.573242188 460.295898438 480.5078125 c 4
 497.743164062 470.9375 522.426757812 451.635742188 539.7109375 418.405273438 c 4
 554.71875 389.551757812 554.120117188 383.895507812 530.416992188 330.5390625 c 4
 501.8203125 266.16796875 494.581054688 243.66796875 485.846679688 192.006835938 c 4
 476.907226562 139.139648438 477.1328125 68.40625 486.240234375 68.40625 c 4
 489.244140625 68.40625 511.4453125 90.6787109375 523.811523438 106.09765625 c 4
 528.915039062 112.4609375 536.26171875 118.912109375 539.841796875 120.171875 c 4
 543.42578125 121.432617188 548.9140625 125.80078125 551.834960938 129.716796875 c 4
 554.754882812 133.6328125 558.67578125 136.9375 560.401367188 136.9375 c 4
 562.161132812 136.9375 569.381835938 146.237304688 576.555664062 157.741210938 c 4
 583.728515625 169.245117188 590.94921875 179.731445312 592.708984375 181.196289062 c 4
 598.61328125 186.1171875 598.403320312 179.524414062 592.374023438 170.712890625 c 4
 589.0390625 165.838867188 585.251953125 156.762695312 583.897460938 150.3984375 c 4
 582.543945312 144.03515625 579.700195312 134.903320312 577.534179688 129.9609375 c 4
 575.397460938 125.088867188 570.943359375 111.237304688 567.733398438 99.4892578125 c 4
 558.104492188 64.2451171875 538.4609375 19.0654296875 528.583007812 9.443359375 c 4
 520.528320312 1.595703125 519.038085938 1.103515625 503.618164062 1.185546875 c 4
 461.286132812 1.4130859375 423.465820312 38.30078125 416.631835938 86.0283203125 c 4
 415.0546875 97.0419921875 412.596679688 106.288085938 411.100585938 106.83203125 c 4
 409.619140625 107.37109375 405.495117188 103.40625 401.934570312 98.021484375 c 4
 366.004882812 43.685546875 303.63671875 2.1689453125 257.638671875 1.96875 c 4
 235.12109375 1.87109375 217.84375 7.4951171875 196.206054688 21.966796875 c 4
 164.11328125 43.431640625 146.807617188 66.9375 136.78515625 102.671875 c 4
 129.885742188 127.26953125 130.541992188 202.53125 137.954101562 236.797851562 c 4
 159.184570312 334.943359375 196.286132812 385.626953125 293.127929688 448.779296875 c 4
 322.895507812 468.190429688 352.359375 478.153320312 401.555664062 485.44140625 c 4
401.310546875 401.391601562 m 4
 393.477539062 402.654296875 386.869140625 403.608398438 386.869140625 403.475585938 c 4
 386.869140625 403.341796875 380.995117188 402.344726562 373.897460938 401.274414062 c 4
 357.666015625 398.825195312 325.436523438 383.303710938 305.85546875 368.505859375 c 4
 286.520507812 353.892578125 258.094726562 323.884765625 246.2421875 305.573242188 c 4
 221.209960938 266.90234375 196.921875 181.4375 200.752929688 145.50390625 c 4
 208.840820312 69.6298828125 249.362304688 57.9990234375 318.338867188 111.754882812 c 4
 344.52734375 132.165039062 357.407226562 145.732421875 371.752929688 168.021484375 c 4
 377.581054688 177.076171875 384.360351562 186.2265625 386.625 188.090820312 c 4
 389.806640625 190.7109375 390.037109375 192.006835938 387.603515625 193.59765625 c 4
 385.401367188 195.038085938 385.250976562 196.23828125 387.114257812 197.5 c 4
 390.08984375 199.51171875 396.276367188 217.4609375 400.23828125 235.573242188 c 4
 408.106445312 271.552734375 424.806640625 369.211914062 424.806640625 379.245117188 c 4
 424.806640625 393.96875 420.15625 398.3515625 401.310546875 401.391601562 c 4
EndSplineSet
EndChar

StartChar: b
Encoding: 98 98 27
Width: 905
VWidth: 1067
Flags: HW
VStem: 347.295 101.14<561.707 653.101>
LayerCount: 2
Back
Fore
SplineSet
392.055664062 764.1171875 m 4
 407.333007812 776.362304688 408.041015625 776.672851562 417.876953125 775.462890625 c 4
 444.131835938 772.236328125 465.564453125 761.732421875 474.176757812 747.872070312 c 4
 476.798828125 743.657226562 480.022460938 733.9921875 481.251953125 726.67578125 c 4
 483.455078125 713.55859375 483.317382812 712.795898438 475.655273438 695.794921875 c 4
 471.35546875 686.25 465.415039062 670.186523438 462.53125 660.2890625 c 4
 459.642578125 650.389648438 455.262695312 638.369140625 452.845703125 633.712890625 c 4
 450.389648438 628.978515625 448.434570312 622.067382812 448.434570312 618.112304688 c 4
 448.434570312 614.272460938 446.0625 607.353515625 443.274414062 603.048828125 c 4
 432.926757812 587.083007812 414.178710938 524.719726562 397.150390625 449.618164062 c 4
 387.637695312 407.655273438 385.569335938 395.818359375 387.751953125 395.818359375 c 4
 389.358398438 395.818359375 401.954101562 403.259765625 406.04296875 406.625976562 c 4
 430.143554688 426.466796875 444.771484375 435.727539062 448.434570312 433.46484375 c 4
 449.434570312 432.84765625 450.698242188 433.797851562 451.448242188 435.735351562 c 4
 452.282226562 437.893554688 455.213867188 438.920898438 459.732421875 438.640625 c 4
 464.759765625 438.333007812 470.598632812 440.72265625 480.498046875 447.141601562 c 4
 488.028320312 452.024414062 495.440429688 456.073242188 496.852539062 456.073242188 c 4
 498.25 456.073242188 501.801757812 457.897460938 504.599609375 460.053710938 c 4
 507.766601562 462.494140625 514.928710938 464.4921875 523.106445312 465.216796875 c 4
 531.068359375 465.922851562 539.875 468.311523438 544.947265625 471.135742188 c 4
 553.291992188 475.783203125 553.665039062 475.80078125 565.0703125 472.063476562 c 4
 590.891601562 463.603515625 636.848632812 436.692382812 642.720703125 426.590820312 c 4
 647.990234375 417.524414062 650.03125 386.565429688 646.634765625 367.197265625 c 4
 642.848632812 345.598632812 632.305664062 315.76953125 618.336914062 287.146484375 c 4
 603.737304688 257.234375 568.102539062 197.0703125 556.90234375 183.424804688 c 4
 534.645507812 156.309570312 494.486328125 121.407226562 464.57421875 103.180664062 c 4
 447.264648438 92.6328125 439.180664062 89.521484375 417.232421875 84.953125 c 4
 401.982421875 81.779296875 400.231445312 81.8583984375 375.915039062 86.8037109375 c 4
 361.927734375 89.6474609375 345.883789062 93.2451171875 340.193359375 94.810546875 c 4
 325.504882812 98.8486328125 324.693359375 97.34765625 324.581054688 65.9296875 c 4
 324.528320312 51.513671875 323.749023438 37.2529296875 322.849609375 34.296875 c 4
 317.034179688 15.1455078125 312.375 11.5185546875 298.446289062 15.302734375 c 4
 286.31640625 18.5966796875 276.091796875 30.8544921875 265.737304688 54.525390625 c 6
 256.700195312 75.1845703125 l 5
 257.66796875 105.848632812 l 6
 258.196289062 122.6328125 259.8046875 145.766601562 261.21875 156.956054688 c 4
 263.583984375 175.6796875 264.421875 178.051757812 271.177734375 185.146484375 c 4
 279.758789062 194.154296875 282.202148438 202.79296875 290.287109375 252.715820312 c 4
 293.353515625 271.655273438 297.723632812 296.830078125 299.997070312 308.666015625 c 4
 312.397460938 373.223632812 322.147460938 438.913085938 320.119140625 444.237304688 c 4
 319.216796875 446.603515625 319.750976562 447.1484375 322.118164062 446.280273438 c 4
 324.765625 445.30859375 325.615234375 448.109375 326.853515625 461.8828125 c 4
 327.681640625 471.135742188 329.658203125 483.979492188 331.259765625 490.502929688 c 4
 339.435546875 523.858398438 347.294921875 567.62890625 347.294921875 579.807617188 c 4
 347.294921875 587.32421875 348.294921875 603.048828125 349.537109375 615.098632812 c 4
 352.446289062 643.288085938 350.637695312 647.9140625 335.889648438 650.020507812 c 4
 327.33984375 651.2421875 324.293945312 653.081054688 316.198242188 661.90234375 c 4
 310.276367188 668.357421875 306.598632812 674.389648438 306.556640625 677.719726562 c 4
 306.461914062 685.42578125 313.080078125 695.1953125 324.915039062 704.823242188 c 4
 330.647460938 709.486328125 344.389648438 721.75 355.794921875 732.376953125 c 4
 367.19921875 743.006835938 383.3359375 757.131835938 392.055664062 764.1171875 c 4
532.237304688 398.185546875 m 4
 529.51171875 403.259765625 528.271484375 403.193359375 510.409179688 397.0078125 c 4
 478.130859375 385.833007812 404.93359375 346.302734375 382.5859375 327.981445312 c 4
 369.997070312 317.66015625 367.307617188 311.893554688 363.32421875 286.715820312 c 4
 361.487304688 275.095703125 358.05859375 257.801757812 355.6875 248.198242188 c 4
 353.327148438 238.643554688 350.071289062 220.653320312 348.477539062 208.387695312 c 4
 346.885742188 196.12109375 344.892578125 184.305664062 344.06640625 182.241210938 c 4
 342.87890625 179.267578125 344.283203125 177.74609375 350.73828125 175.020507812 c 4
 362.731445312 169.951171875 388.396484375 173.512695312 406.04296875 182.694335938 c 4
 442.408203125 201.61328125 481.1015625 236.383789062 498.329101562 265.627929688 c 4
 503.91015625 275.095703125 512.831054688 287.00390625 518.157226562 292.08984375 c 4
 529.34765625 302.776367188 530.258789062 306.62890625 522.459960938 310.25390625 c 4
 518.372070312 312.154296875 517.416992188 313.814453125 518.48046875 317.16796875 c 4
 519.255859375 319.610351562 520.6640625 328.678710938 521.640625 337.500976562 c 4
 523.877929688 357.73046875 527.619140625 373.98828125 531.4453125 380.109375 c 4
 535.076171875 385.918945312 535.360351562 392.375 532.237304688 398.185546875 c 4
EndSplineSet
EndChar

StartChar: c
Encoding: 99 99 28
Width: 700
VWidth: 900
Flags: H
VStem: 161.121 71.0742<137.966 304.335>
LayerCount: 2
Back
Fore
SplineSet
355.088867188 489.5625 m 4
 410.159179688 500.512695312 490.962890625 477.295898438 507.19140625 445.860351562 c 4
 512.983398438 434.639648438 509.940429688 391.03515625 501.366210938 362.3984375 c 4
 495.87109375 344.041992188 493.689453125 339.91015625 487.501953125 336.127929688 c 4
 477.634765625 330.098632812 467.676757812 330.33984375 457.15234375 336.866210938 c 4
 452.2578125 339.901367188 445.241210938 342.111328125 441.366210938 341.838867188 c 4
 435.858398438 341.453125 430.473632812 344.756835938 415.788085938 357.53515625 c 4
 384.7890625 384.509765625 370.018554688 389.025390625 335.018554688 382.231445312 c 4
 322.076171875 379.719726562 317.396484375 377.176757812 303.201171875 364.9375 c 4
 256.771484375 324.907226562 235.104492188 282.608398438 232.1953125 226.314453125 c 4
 230.5 193.517578125 233.823242188 176.484375 247.237304688 149.216796875 c 4
 265.176757812 112.748046875 292.850585938 96.1318359375 326.453125 101.653320312 c 4
 354.805664062 106.311523438 374.9140625 120.206054688 435.614257812 177.077148438 c 4
 454.459960938 194.734375 470.760742188 209.181640625 471.837890625 209.181640625 c 4
 472.918945312 209.181640625 470.125 203.430664062 465.596679688 196.33203125 c 4
 461.067382812 189.234375 456.08203125 180.962890625 454.459960938 177.852539062 c 4
 451.650390625 172.46875 451.767578125 172.384765625 457.15234375 175.9296875 c 4
 464.583007812 180.8203125 484.458007812 203.552734375 500.5625 225.580078125 c 4
 507.719726562 235.370117188 515.784179688 243.91015625 518.708007812 244.793945312 c 4
 521.579101562 245.661132812 527.029296875 249.27734375 530.701171875 252.748046875 c 4
 534.373046875 256.219726562 538.185546875 258.333007812 539.08984375 257.3984375 c 4
 541.068359375 255.354492188 529.083984375 226.314453125 520.705078125 212.852539062 c 4
 513.393554688 201.104492188 508.061523438 184.384765625 508.061523438 173.202148438 c 4
 508.061523438 168.579101562 511.43359375 156.069335938 515.6484375 145.056640625 c 4
 522.486328125 127.188476562 523.075195312 123.634765625 521.6015625 109.077148438 c 4
 519.64453125 89.7412109375 513.764648438 78.6474609375 495.524414062 59.880859375 c 4
 481.857421875 45.8193359375 462.78125 35.1484375 425.579101562 20.75390625 c 4
 401.075195312 11.2734375 382.991210938 8.6953125 340.159179688 8.578125 c 4
 308.340820312 8.490234375 303.541992188 9.0888671875 283.375976562 15.654296875 c 4
 249.110351562 26.810546875 237.623046875 33.7333984375 214.452148438 57.1884765625 c 4
 190.515625 81.419921875 179.125976562 100.754882812 168.89453125 134.53125 c 4
 162.975585938 154.072265625 162.09765625 161.69921875 161.12109375 202.083984375 c 4
 160.131835938 242.958007812 160.576171875 250.18359375 165.467773438 272.817382812 c 4
 182.236328125 350.405273438 212.717773438 407.663085938 255.229492188 441.430664062 c 4
 283.186523438 463.637695312 324.25 483.4296875 355.088867188 489.5625 c 4
EndSplineSet
EndChar

StartChar: d
Encoding: 100 100 29
Width: 810
VWidth: 972
Flags: HW
HStem: 331.267 116.471<312.213 439.95>
VStem: 438.455 54.0811<202.737 326.214> 439.448 69.5244<28.9095 102.769>
LayerCount: 2
Back
Fore
SplineSet
501.713867188 757.598632812 m 6xa0
 521.203125 770.493164062 l 5
 545.83984375 769.709960938 l 6
 568.461914062 768.990234375 571.686523438 768.327148438 585.259765625 761.612304688 c 4
 602.506835938 753.083007812 616.638671875 740.331054688 623.576171875 727.041992188 c 4
 627.241210938 720.0234375 628.715820312 712.370117188 629.383789062 696.915039062 c 6
 630.280273438 676.197265625 l 5
 618.813476562 663.654296875 l 6
 593.977539062 636.491210938 572.051757812 602.059570312 557.624023438 567.567382812 c 4
 534.5546875 512.413085938 522.229492188 466.328125 508.625976562 384.350585938 c 4
 496.546875 311.556640625 492.704101562 277.475585938 492.536132812 241.67578125 c 4xc0
 492.3359375 198.223632812 494.93359375 193.434570312 513.809570312 202.478515625 c 4
 519.634765625 205.26953125 524.561523438 206.861328125 524.561523438 205.950195312 c 4
 524.561523438 205.032226562 518.624023438 197.775390625 511.458007812 189.935546875 c 4
 504.291992188 182.096679688 497.166992188 173.368164062 495.733398438 170.672851562 c 4
 492.681640625 164.93359375 495.944335938 95.8642578125 499.889648438 82.6494140625 c 4
 503.08984375 71.9404296875 508.583007812 38.748046875 508.97265625 27.7734375 c 4
 509.537109375 11.8701171875 509.284179688 11.3486328125 499.69921875 8.724609375 c 4
 491.048828125 6.3564453125 490.291992188 6.603515625 477.750976562 15.9150390625 c 4
 441.463867188 42.8515625 439.448242188 46.091796875 439.448242188 77.498046875 c 4
 439.448242188 91.3828125 438.791015625 102.806640625 437.993164062 102.806640625 c 4
 437.193359375 102.806640625 429.369140625 96.005859375 420.6328125 87.71484375 c 4
 402.736328125 70.7314453125 379.869140625 56.2783203125 357.247070312 47.6513671875 c 4
 328.044921875 36.5166015625 286.91796875 38.1162109375 254.216796875 51.658203125 c 4
 220.565429688 65.5966796875 198.38671875 89.591796875 186.237304688 125.205078125 c 4
 179.252929688 145.68359375 177.489257812 200.239257812 182.872070312 229.35546875 c 4
 195.004882812 294.983398438 228.87109375 353.383789062 283.782226562 403.376953125 c 4
 303.185546875 421.041992188 314.69140625 429.051757812 336.192382812 439.866210938 c 4
 368.447265625 456.083984375 399.732421875 460.547851562 423.098632812 452.263671875 c 4
 430.041015625 449.802734375 436.581054688 447.737304688 437.432617188 447.737304688 c 4
 439.650390625 447.737304688 440.752929688 455.352539062 448.4609375 523.890625 c 4
 456.220703125 592.877929688 463.4453125 639.080078125 468.77734375 653.798828125 c 4
 469.900390625 656.897460938 471.677734375 674.405273438 472.760742188 692.99609375 c 4
 475.37890625 738.015625 476.750976562 741.078125 501.713867188 757.598632812 c 6xa0
503.731445312 366.544921875 m 4
 504.370117188 368.143554688 504.370117188 371.024414062 503.731445312 373.264648438 c 4
 503.096679688 375.484375 502.610351562 374.272460938 502.610351562 370.463867188 c 4
 502.610351562 366.65625 503.096679688 364.958984375 503.731445312 366.544921875 c 4
369.118164062 334.697265625 m 4
 354.112304688 338.659179688 354.112304688 338.659179688 340.671875 334.962890625 c 4
 325.015625 330.658203125 311.778320312 321.860351562 296.693359375 305.733398438 c 4
 262.39453125 269.068359375 245.662109375 223.756835938 243.100585938 160.594726562 c 6
 241.672851562 125.428710938 l 5
 247.803710938 117.365234375 l 6
 256.36328125 106.109375 272.806640625 98.328125 288.038085938 98.328125 c 4
 319.841796875 98.328125 397.2109375 134.375976562 425.11328125 162.196289062 c 6
 436.536132812 173.5859375 l 5
 438.455078125 230.700195312 l 6
 441.278320312 314.693359375 441.310546875 313.534179688 436.088867188 316.447265625 c 4
 433.654296875 317.80859375 426.90625 321.759765625 421.306640625 325.108398438 c 4
 412.83984375 330.16796875 408.427734375 331.266601562 396.556640625 331.266601562 c 4
 388.717773438 331.266601562 376.166992188 332.836914062 369.118164062 334.697265625 c 4
EndSplineSet
EndChar

StartChar: e
Encoding: 101 101 30
Width: 560
VWidth: 760
Flags: H
VStem: 97.4874 81.5273<277.273 314.796> 387.849 74.666<95.7397 158.172>
LayerCount: 2
Back
Fore
SplineSet
315.514648438 470.364257812 m 4
 329.063476562 471.385742188 348.6484375 468.297851562 362.880859375 462.895507812 c 4
 378.748046875 456.872070312 409.053710938 434.943359375 421.41796875 420.540039062 c 4
 433.415039062 406.563476562 445.568359375 381.106445312 449.712890625 361.2734375 c 4
 454.198242188 339.806640625 454.185546875 301.365234375 449.689453125 285.206054688 c 4
 447.740234375 278.206054688 445.091796875 268.76953125 443.731445312 263.973632812 c 4
 441.612304688 256.505859375 440.115234375 255.134765625 432.6484375 253.823242188 c 4
 427.870117188 252.984375 408.380859375 247.251953125 389.014648438 240.990234375 c 4
 369.6484375 234.728515625 342.029296875 226.545898438 327.181640625 222.673828125 c 4
 312.481445312 218.837890625 292.435546875 213.408203125 282.848632812 210.665039062 c 4
 249.71484375 201.184570312 220.038085938 194.439453125 211.448242188 194.439453125 c 4
 203.859375 194.439453125 200.598632812 196.557617188 184.498046875 211.939453125 c 4
 174.46484375 221.525390625 165.232421875 229.439453125 164.081054688 229.439453125 c 4
 161.938476562 229.439453125 160.119140625 218.005859375 157.881835938 190.473632812 c 4
 152.649414062 126.073242188 182.830078125 80.1064453125 230.348632812 80.1064453125 c 4
 259.014648438 80.1064453125 313.415039062 94.3251953125 347.71484375 110.783203125 c 4
 367.081054688 120.076171875 387.848632812 137.04296875 387.848632812 143.573242188 c 4
 387.848632812 145.477539062 380.615234375 154.041015625 371.981445312 162.356445312 c 6
 356.115234375 177.639648438 l 5
 369.880859375 179.053710938 l 6
 387.380859375 180.852539062 392.884765625 179.483398438 409.78125 169.131835938 c 4
 418.415039062 163.841796875 426.35546875 160.797851562 431.71484375 160.723632812 c 4
 438.915039062 160.623046875 441.349609375 158.973632812 448.756835938 149.173828125 c 4
 458.845703125 135.826171875 462.514648438 123.505859375 462.514648438 102.973632812 c 4
 462.514648438 88.505859375 462.514648438 88.505859375 450.264648438 76.6064453125 c 4
 443.498046875 70.033203125 432.791992188 61.7734375 426.348632812 58.154296875 c 4
 394.977539062 40.53515625 335.348632812 19.126953125 292.181640625 9.986328125 c 4
 263.7734375 3.970703125 237.115234375 4.74609375 206.78125 12.470703125 c 4
 181.443359375 18.9228515625 168.981445312 26.375 138.880859375 53.072265625 c 4
 127.232421875 63.404296875 116.893554688 83.1396484375 105.163085938 117.439453125 c 4
 97.70703125 139.237304688 97.580078125 140.306640625 97.4873046875 181.606445312 c 4
 97.3798828125 229.90625 101.145507812 256.7265625 114.030273438 299.439453125 c 4
 128.53125 347.505859375 149.55078125 383.736328125 181.115234375 415.068359375 c 4
 217.3984375 451.0859375 252.748046875 465.629882812 315.514648438 470.364257812 c 4
312.014648438 408.228515625 m 4
 283.754882812 421.786132812 276.494140625 419.139648438 241.420898438 382.505859375 c 4
 207.018554688 346.573242188 180.223632812 304.46484375 179.357421875 284.973632812 c 6
 179.014648438 277.2734375 l 5
 190.681640625 277.572265625 l 6
 225.681640625 278.470703125 336.1875 310.318359375 355.181640625 324.982421875 c 6
 360.78125 329.306640625 l 5
 355.602539062 348.673828125 l 6
 345.806640625 385.306640625 338.236328125 395.650390625 312.014648438 408.228515625 c 4
EndSplineSet
EndChar

StartChar: f
Encoding: 102 102 31
Width: 995
VWidth: 1157
Flags: HW
LayerCount: 2
Back
Fore
SplineSet
555.47265625 771.241210938 m 4
 567.661132812 774.49609375 586.487304688 773.359375 600.400390625 768.526367188 c 4
 622.06640625 761.000976562 667.157226562 720.76171875 677.458007812 699.758789062 c 4
 684.955078125 684.478515625 684.984375 654.912109375 677.518554688 644.795898438 c 4
 674.65625 640.91796875 672.467773438 636.075195312 672.467773438 633.62109375 c 4
 672.467773438 628.10546875 660.837890625 616.396484375 650.34765625 611.348632812 c 4
 643.27734375 607.94921875 642.108398438 607.94140625 637.118164062 611.270507812 c 4
 634.090820312 613.288085938 626.856445312 614.919921875 620.924804688 614.919921875 c 4
 611.075195312 614.919921875 608.83984375 616.120117188 593.330078125 629.743164062 c 6
 576.454101562 644.568359375 l 5
 556.270507812 644.568359375 l 5
 536.086914062 644.568359375 l 5
 523.4296875 630.883789062 l 6
 489.661132812 594.370117188 464.829101562 528.7109375 467.018554688 481.731445312 c 4
 467.171875 478.446289062 468.465820312 477.897460938 473.483398438 478.993164062 c 4
 476.95703125 479.751953125 486.369140625 481.278320312 494.578125 482.413085938 c 4
 502.775390625 483.55078125 518.068359375 486.555664062 528.788085938 489.141601562 c 4
 539.672851562 491.766601562 561.172851562 494.516601562 577.823242188 495.413085938 c 4
 595.381835938 496.359375 609.979492188 498.266601562 613.627929688 500.087890625 c 4
 621.610351562 504.080078125 630.109375 503.935546875 633.567382812 499.74609375 c 4
 635.720703125 497.141601562 634.608398438 495.732421875 627.537109375 492.086914062 c 4
 607.96484375 481.99609375 598.08203125 468.046875 594.83203125 445.923828125 c 4
 589.606445312 410.34765625 588.404296875 403.69921875 586.131835938 397.801757812 c 4
 583.372070312 390.647460938 572.349609375 382.176757812 559.12109375 377.049804688 c 4
 542.837890625 370.734375 505.0703125 364.05078125 485.686523438 364.05078125 c 4
 469.491210938 364.05078125 467.150390625 363.509765625 464.8671875 359.259765625 c 4
 458.576171875 347.547851562 460.086914062 187.299804688 466.873046875 146.477539062 c 6
 468.350585938 137.580078125 l 5
 477.24609375 145.90625 l 6
 482.03515625 150.38671875 486.666992188 153.704101562 487.280273438 153.090820312 c 4
 488.958984375 151.412109375 480.938476562 91.9677734375 477.125976562 77.828125 c 4
 475.40625 71.4423828125 472.935546875 61.408203125 471.51171875 55.0244140625 c 4
 468.611328125 42.0234375 460.413085938 24.564453125 451.916992188 13.28515625 c 4
 445.505859375 4.7802734375 439.84375 4.798828125 428.211914062 13.37109375 c 4
 423.587890625 16.7783203125 420.001953125 17.7109375 415.2109375 16.7529296875 c 4
 405.384765625 14.7880859375 399.5078125 20.12890625 395.190429688 34.9521484375 c 4
 388.020507812 59.583984375 392.200195312 75.587890625 411.569335938 97.6708984375 c 4
 420.498046875 107.848632812 421.4453125 116.143554688 422.206054688 190.720703125 c 4
 422.700195312 239.0703125 419.75 332.120117188 417.721679688 332.120117188 c 4
 417.216796875 332.120117188 404.493164062 327.947265625 389.211914062 322.770507812 c 6
 361.619140625 313.418945312 l 5
 350.213867188 318.778320312 l 6
 343.022460938 322.16015625 333.84375 329.612304688 325.35546875 338.962890625 c 6
 311.900390625 353.786132812 l 5
 312.584960938 393.698242188 l 6
 313.256835938 432.92578125 313.391601562 433.86328125 320.338867188 448.432617188 c 4
 324.254882812 456.642578125 329.900390625 465.49609375 332.995117188 468.274414062 c 6
 338.584960938 473.291992188 l 5
 353.40625 467.306640625 l 6
 371.423828125 460.033203125 407.364257812 457.124023438 411.881835938 462.573242188 c 4
 413.348632812 464.342773438 415.630859375 476.939453125 417.002929688 490.852539062 c 4
 424.311523438 564.97265625 438.294921875 620.72265625 462.762695312 673.3046875 c 4
 476.346679688 702.497070312 488.00390625 719.4140625 507.578125 738.338867188 c 4
 527.875976562 757.965820312 541.939453125 767.626953125 555.47265625 771.241210938 c 4
443.373046875 542.623046875 m 4
 444.174804688 545.814453125 444.387695312 549.918945312 443.834960938 551.517578125 c 4
 443.274414062 553.134765625 442.04296875 551.061523438 441.122070312 546.958007812 c 4
 439.125976562 538.061523438 441.219726562 534.037109375 443.373046875 542.623046875 c 4
EndSplineSet
EndChar

StartChar: g
Encoding: 103 103 32
Width: 700
VWidth: 900
Flags: H
HStem: -186.418 46.3857<253.005 353.279> 8.81738 40.2686<246.288 299.316>
VStem: 179.315 61.4443<64.3603 216.853>
LayerCount: 2
Back
Fore
SplineSet
329.422851562 377.404296875 m 4
 334.390625 378.772460938 345.229492188 379.961914062 353.509765625 380.045898438 c 4
 370.9921875 380.22265625 380.794921875 376.528320312 401.1171875 362.099609375 c 4
 415.499023438 351.889648438 419.469726562 344.515625 421.434570312 324.381835938 c 6
 422.756835938 310.833007812 l 5
 429.801757812 321.747070312 l 6
 441.461914062 339.811523438 451.696289062 344.651367188 468.10546875 339.859375 c 4
 481.278320312 336.013671875 498.8515625 321.446289062 505.844726562 308.575195312 c 4
 514.123046875 293.33984375 513.452148438 285.995117188 499.756835938 241.961914062 c 4
 493.319335938 221.262695312 486.369140625 197.129882812 484.3125 188.333007812 c 4
 480.264648438 171.021484375 479.366210938 149.829101562 482.595703125 147.8359375 c 4
 483.745117188 147.126953125 486.922851562 148.7265625 489.74609375 151.435546875 c 4
 496.33203125 157.756835938 520.690429688 168.377929688 521.715820312 165.376953125 c 4
 522.149414062 164.108398438 520.135742188 161.42578125 517.125 159.260742188 c 4
 514.208007812 157.163085938 506.870117188 150.834960938 501.036132812 145.388671875 c 4
 487.864257812 133.090820312 474.879882812 108.543945312 474.879882812 95.9404296875 c 4
 474.879882812 91.5849609375 471.416992188 73.171875 467.165039062 54.919921875 c 4
 462.921875 36.7041015625 454.912109375 -0.21484375 449.366210938 -27.123046875 c 4
 435.169921875 -95.9951171875 435.432617188 -94.76171875 430.396484375 -116.12890625 c 4
 425.916015625 -135.134765625 409.133789062 -176.212890625 404.692382812 -179.044921875 c 4
 403.413085938 -179.860351562 399.987304688 -180.03515625 396.7890625 -179.44921875 c 4
 393.276367188 -178.805664062 387.9453125 -179.799804688 382.67578125 -182.083007812 c 4
 375.161132812 -185.33984375 369.127929688 -185.828125 329.046875 -186.41796875 c 4
 252.836914062 -187.540039062 212.71484375 -179.833007812 193.33984375 -160.349609375 c 4
 188.155273438 -155.13671875 186.977539062 -152.540039062 186.977539062 -146.330078125 c 4
 186.977539062 -142.190429688 188.317382812 -135.873046875 189.913085938 -132.5 c 4
 193.827148438 -124.220703125 249.450195312 -77.9013671875 273.34765625 -63.021484375 c 4
 277.837890625 -60.2265625 288.684570312 -52.0380859375 297.715820312 -44.623046875 c 4
 306.674804688 -37.2705078125 324.907226562 -24.1337890625 338.267578125 -15.40625 c 4
 371.950195312 6.59765625 389.6015625 19.927734375 391.025390625 24.435546875 c 4
 391.73828125 26.693359375 393.40234375 28.3876953125 394.907226562 28.3876953125 c 4
 397.970703125 28.3876953125 398.545898438 33.6552734375 395.934570312 37.7958984375 c 4
 394.639648438 39.8486328125 395.232421875 41.7470703125 398.10546875 44.7578125 c 4
 401.0703125 47.8623046875 401.715820312 50.21484375 400.689453125 54.1669921875 c 4
 398.83203125 61.3173828125 398.768554688 64.4853515625 400.405273438 68.279296875 c 4
 402.794921875 73.8212890625 396.517578125 72.23046875 392.232421875 66.2099609375 c 4
 386.495117188 58.1484375 353.321289062 36.380859375 324.530273438 21.787109375 c 6
 299.315429688 9.0048828125 l 5
 273.724609375 8.8173828125 l 6
 248.509765625 8.6318359375 247.953125 8.7177734375 235.90234375 14.6640625 c 4
 214.732421875 25.1083984375 200.130859375 40.0537109375 188.115234375 63.5751953125 c 4
 179.690429688 80.0673828125 176.284179688 113.064453125 179.314453125 148.817382812 c 4
 183.174804688 194.354492188 191.521484375 224.436523438 211.424804688 264.54296875 c 4
 226.2734375 294.461914062 243.430664062 318.791992188 259.235351562 332.338867188 c 4
 265.237304688 337.483398438 275.229492188 346.2265625 281.439453125 351.766601562 c 4
 293.002929688 362.083984375 313.428710938 372.997070312 329.422851562 377.404296875 c 4
381.735351562 286.911132812 m 4
 367.622070312 294.274414062 337.327148438 292.698242188 318.509765625 283.623046875 c 4
 290.061523438 269.903320312 261.767578125 228.602539062 250.907226562 184.946289062 c 4
 244.025390625 157.28515625 240.9140625 133.2265625 240.758789062 106.478515625 c 4
 240.610351562 80.8876953125 240.768554688 79.8115234375 246.286132812 68.8447265625 c 4
 252.817382812 55.8603515625 261.321289062 49.0859375 271.08984375 49.0859375 c 4
 278.5078125 49.0859375 297.810546875 56.2529296875 313.052734375 64.6669921875 c 4
 327.286132812 72.5234375 339.020507812 81.0078125 361.224609375 99.4970703125 c 4
 371.762695312 108.271484375 386.014648438 118.456054688 393.213867188 122.35546875 c 4
 410.713867188 131.834960938 412.009765625 135.45703125 414.58984375 182.123046875 c 4
 415.663085938 201.504882812 417.014648438 223.030273438 417.58203125 229.73046875 c 6
 418.6171875 241.961914062 l 5
 403.939453125 262.47265625 l 6
 393.301757812 277.338867188 387.190429688 284.065429688 381.735351562 286.911132812 c 4
381.713867188 -54.78515625 m 4
 382.446289062 -50.45703125 382.754882812 -46.9248046875 382.393554688 -46.9755859375 c 4
 382.033203125 -47.02734375 373.643554688 -51.478515625 363.858398438 -56.8095703125 c 4
 320.014648438 -80.6962890625 291.84765625 -100.296875 267.327148438 -123.985351562 c 6
 252.084960938 -138.709960938 l 5
 270.90234375 -140.032226562 l 6
 304.9609375 -142.424804688 340.204101562 -135.11328125 349.836914062 -123.655273438 c 4
 358.928710938 -112.840820312 379.35546875 -68.7099609375 381.713867188 -54.78515625 c 4
EndSplineSet
EndChar

StartChar: h
Encoding: 104 104 33
Width: 1058
VWidth: 1220
Flags: HW
VStem: 344.154 101.851<48.279 194.646> 565.331 75.6719<137.822 269.66>
LayerCount: 2
Back
Fore
SplineSet
493.517578125 780.404296875 m 4
 499.9609375 780.983398438 519.611328125 781.250976562 537.004882812 780.9921875 c 4
 567.328125 780.54296875 569.428710938 780.190429688 584.251953125 773.072265625 c 4
 613.637695312 758.958984375 637.78125 736.49609375 642.6953125 718.700195312 c 4
 648.530273438 697.56640625 643.688476562 683.911132812 616.190429688 643.94921875 c 4
 580.604492188 592.237304688 546.194335938 536.913085938 529.932617188 505.264648438 c 4
 520.752929688 487.3984375 508.5859375 464.375 502.8515625 454.01953125 c 4
 492.83203125 435.919921875 482.94140625 411.048828125 482.94140625 403.951171875 c 4
 482.94140625 401.9765625 488.112304688 405.499023438 494.693359375 411.95703125 c 4
 507.151367188 424.1796875 553.018554688 454.346679688 562.861328125 456.790039062 c 4
 566.154296875 457.610351562 569.7734375 459.03515625 571.087890625 460.033203125 c 4
 575.587890625 463.442382812 599.061523438 469.298828125 608.229492188 469.298828125 c 4
 618.372070312 469.298828125 644.194335938 456.624023438 674.047851562 436.997070312 c 4
 705.19140625 416.518554688 711.760742188 391.4921875 695.495117188 355.291992188 c 4
 684.6796875 331.2265625 656.750976562 255.861328125 648.458007812 228.359375 c 4
 642.598632812 208.926757812 641.9921875 202.971679688 641.002929688 155.254882812 c 4
 639.823242188 98.3681640625 641.465820312 87.3857421875 648.48828125 105.185546875 c 4
 657.022460938 126.811523438 664.620117188 142.560546875 666.525390625 142.560546875 c 4
 667.6953125 142.560546875 668.639648438 135.154296875 668.639648438 125.987304688 c 4
 668.639648438 115.643554688 669.526367188 109.947265625 670.9921875 110.827148438 c 4
 672.236328125 111.57421875 673.342773438 114.1171875 673.342773438 116.233398438 c 4
 673.342773438 118.442382812 677.125976562 129.161132812 681.8046875 140.209960938 c 4
 686.482421875 151.258789062 691.288085938 164.395507812 692.5546875 169.592773438 c 4
 695.640625 182.286132812 709.40234375 203.676757812 714.478515625 203.676757812 c 4
 716.993164062 203.676757812 715.4765625 192.393554688 709.891601562 169.592773438 c 4
 706.71484375 156.624023438 702.453125 130.80859375 700.384765625 112.002929688 c 4
 695.6953125 69.4560546875 688.958984375 34.2109375 683.390625 23.1494140625 c 4
 676.629882812 9.712890625 668.405273438 5.0849609375 651.479492188 5.1904296875 c 4
 639.727539062 5.2666015625 634.76953125 6.5439453125 625.859375 11.791015625 c 4
 597.087890625 28.7392578125 581.541992188 50.1806640625 571.951171875 86.1455078125 c 4
 566.846679688 105.290039062 566.568359375 111.178710938 565.331054688 226.83203125 c 6
 564.038085938 347.536132812 l 5
 558.396484375 352.014648438 l 6
 550.155273438 358.560546875 544.998046875 357.430664062 533.009765625 346.4453125 c 4
 515.28125 330.205078125 497.666992188 304.28515625 481.833984375 271.140625 c 4
 455.87890625 216.795898438 447.659179688 173.823242188 446.004882812 83.7939453125 c 4
 445.375 49.474609375 443.861328125 19.603515625 442.63671875 17.2724609375 c 4
 439.205078125 10.7392578125 430.755859375 10.1904296875 416.416992188 15.5673828125 c 4
 387.036132812 26.5859375 350.33203125 57.1787109375 344.154296875 75.8037109375 c 4
 339.97265625 88.400390625 342.422851562 104.244140625 358.110351562 166.06640625 c 4
 371.952148438 220.6015625 382.840820312 255.0625 391.760742188 272.55078125 c 4
 400.360351562 289.413085938 428.42578125 381.150390625 436.850585938 419.934570312 c 4
 459.213867188 522.892578125 468.356445312 571.54296875 478.282226562 640.424804688 c 4
 479.806640625 651.001953125 482.014648438 659.698242188 483.17578125 659.698242188 c 4
 486.669921875 659.698242188 485.653320312 703.891601562 481.997070312 710.944335938 c 4
 480.154296875 714.504882812 474.48046875 720.681640625 469.071289062 725.015625 c 4
 455.361328125 736.01171875 455.69921875 744.79296875 470.594726562 764.538085938 c 4
 481.234375 778.641601562 482.32421875 779.397460938 493.517578125 780.404296875 c 4
492.514648438 453.78515625 m 4
 498.943359375 468.358398438 497.168945312 470.249023438 490.310546875 456.134765625 c 4
 487.455078125 450.2578125 485.646484375 444.732421875 486.348632812 444.028320312 c 4
 487.06640625 443.313476562 489.818359375 447.671875 492.514648438 453.78515625 c 4
460.962890625 421.696289062 m 4
 461.686523438 423.34375 461.169921875 424.63671875 459.78515625 424.63671875 c 4
 458.415039062 424.63671875 455.599609375 418.642578125 453.44140625 411.120117188 c 4
 451.295898438 403.650390625 445.4609375 385.616210938 440.395507812 370.807617188 c 4
 435.328125 355.998046875 431.6484375 343.588867188 432.169921875 343.0703125 c 4
 433.392578125 341.844726562 441.416992188 362.813476562 451.233398438 392.90234375 c 4
 455.911132812 407.241210938 460.244140625 420.068359375 460.962890625 421.696289062 c 4
EndSplineSet
EndChar

StartChar: i
Encoding: 105 105 34
Width: 700
VWidth: 900
Flags: H
HStem: 401.765 20G<318.111 319.023>
VStem: 264.766 89.1055<27.5687 306.181> 281.718 115.622<502.531 580.686> 283.776 95.5098<161.938 402.873>
LayerCount: 2
Back
Fore
SplineSet
309.688476562 412.911132812 m 4x90
 313.727539062 417.853515625 317.651367188 421.764648438 318.571289062 421.764648438 c 4
 319.475585938 421.764648438 322.5859375 419.907226562 325.467773438 417.646484375 c 4
 328.802734375 415.03125 333.909179688 413.529296875 339.467773438 413.529296875 c 4
 346.879882812 413.529296875 349.272460938 412.412109375 355.115234375 406.220703125 c 4
 358.947265625 402.16015625 365.901367188 392.323242188 370.76171875 384.088867188 c 4
 379.415039062 369.4296875 379.509765625 369.05859375 379.286132812 350.735351562 c 4x90
 379.083007812 334.041015625 373.694335938 283.618164062 368.065429688 245.735351562 c 4
 366.892578125 237.846679688 364.594726562 222.470703125 362.987304688 211.764648438 c 4
 358.721679688 183.353515625 353.828125 126.977539062 353.872070312 106.764648438 c 4
 353.909179688 90.0888671875 350.26953125 36.646484375 348.446289062 27.0888671875 c 4
 347.018554688 19.60546875 341.8359375 16.1767578125 331.953125 16.1767578125 c 4
 325.365234375 16.1767578125 322.89453125 15.390625 322.89453125 13.2939453125 c 4
 322.89453125 5.4443359375 306.764648438 5.8818359375 300.143554688 13.9111328125 c 4
 298.26953125 16.18359375 294.071289062 18.67578125 290.776367188 19.470703125 c 4
 287.482421875 20.265625 282.22265625 22.71484375 279.041992188 24.93359375 c 4
 268.41015625 32.3505859375 266.844726562 38.6181640625 264.766601562 82.05859375 c 4xc0
 261.290039062 154.735351562 267.334960938 263.422851562 277.715820312 314.911132812 c 4
 281.037109375 331.381835938 283.776367188 347.94921875 283.776367188 351.55859375 c 4
 283.776367188 365.612304688 297.405273438 397.881835938 309.688476562 412.911132812 c 4x90
289.5390625 624.146484375 m 4
 295.026367188 629.911132812 303.397460938 631.60546875 304.8046875 627.235351562 c 4
 305.415039062 625.340820312 307.041992188 625.365234375 311.776367188 627.338867188 c 4
 317.213867188 629.603515625 320.526367188 629.049804688 339.467773438 622.706054688 c 4
 351.203125 618.775390625 366.129882812 614.905273438 372.306640625 614.19140625 c 4
 383.8359375 612.860351562 427.217773438 603.959960938 433.041992188 601.732421875 c 4
 439.067382812 599.426757812 436.3359375 593.024414062 426.453125 586.290039062 c 4
 402.571289062 570.016601562 396.91015625 562.92578125 397.33984375 549.823242188 c 4
 397.563476562 543.005859375 395.547851562 536.853515625 388.573242188 523.05859375 c 4
 368.482421875 483.323242188 347.715820312 473.717773438 315.071289062 489.060546875 c 4
 290.982421875 500.381835938 281.717773438 515.029296875 281.717773438 541.793945312 c 4xa0
 281.717773438 559.293945312 278.290039062 585.373046875 275.22265625 591.206054688 c 4
 272.83203125 595.750976562 281.504882812 615.706054688 289.5390625 624.146484375 c 4
EndSplineSet
EndChar

StartChar: j
Encoding: 106 106 35
Width: 700
VWidth: 1201
Flags: W
HStem: -80.3613 31.0244<185.421 222.169> 558.114 138.02<406.692 508.496>
VStem: 379.295 146.896<586.182 682.101> 388.665 85.4727<-81.2259 236.816> 402.144 122.807<348.77 453.757>
LayerCount: 2
Back
Fore
SplineSet
406.728515625 485.432617188 m 6xc8
 417.661132812 496.705078125 419.321289062 497.189453125 429.133789062 491.963867188 c 4
 432.822265625 490 442.661132812 486.586914062 450.775390625 484.456054688 c 4
 471.29296875 479.067382812 487.501953125 469.63671875 502.966796875 454.09375 c 4
 517.770507812 439.21484375 524.950195312 426.920898438 524.950195312 416.4453125 c 4xc8
 524.950195312 412.502929688 521.440429688 400.436523438 517.208984375 389.841796875 c 4
 486.966796875 314.09375 476.786132812 222.106445312 474.137695312 0.7138671875 c 4
 473.193359375 -78.193359375 472.065429688 -108.701171875 469.713867188 -118.775390625 c 4
 467.978515625 -126.21484375 465.4375 -137.881835938 464.068359375 -144.702148438 c 4
 458.99609375 -169.952148438 443.208984375 -187.387695312 423.721679688 -189.256835938 c 4
 411.202148438 -190.458007812 410.646484375 -190.209960938 357.21484375 -159.565429688 c 4
 312.575195312 -133.963867188 241.01953125 -96.8671875 227.354492188 -92.2421875 c 4
 206.163085938 -85.068359375 182.353515625 -79.06640625 180.237304688 -80.361328125 c 4
 177.708984375 -81.904296875 164.228515625 -75.71484375 164.228515625 -73.0078125 c 4
 164.228515625 -67.951171875 172.571289062 -61.099609375 185.420898438 -55.603515625 c 6
 200.07421875 -49.3369140625 l 5
 222.168945312 -56.3251953125 l 6
 269.740234375 -71.375 323.927734375 -81.576171875 356.313476562 -81.576171875 c 6
 373.447265625 -81.576171875 l 5
 376.715820312 -73.12109375 l 6
 378.544921875 -68.38671875 380.6796875 -60.9970703125 381.563476562 -56.32421875 c 4
 382.756835938 -50.013671875 383.990234375 -48.3125 386.637695312 -49.3369140625 c 4
 389.56640625 -50.4697265625 389.893554688 -49.560546875 388.665039062 -43.7001953125 c 4xd0
 387.657226562 -38.890625 388.640625 -33.44140625 391.8203125 -26.2265625 c 4
 394.405273438 -20.3662109375 395.9453125 -14.94921875 395.314453125 -13.94140625 c 4
 394.697265625 -12.953125 395.684570312 0.4892578125 397.502929688 15.818359375 c 4
 400.563476562 41.640625 400.9296875 63.83984375 400.75390625 213.764648438 c 4
 400.73828125 226.8203125 401.361328125 270.803710938 402.143554688 311.834960938 c 4
 403.912109375 404.49609375 403.671875 418.383789062 399.788085938 449.811523438 c 6
 396.666992188 475.061523438 l 5
 406.728515625 485.432617188 l 6xc8
477.154296875 699.384765625 m 4
 479.471679688 701.701171875 502.086914062 700.737304688 503.599609375 698.256835938 c 4
 504.482421875 696.807617188 508.155273438 696.338867188 512.438476562 697.129882812 c 4
 518.215820312 698.197265625 521.455078125 697.149414062 527.767578125 692.170898438 c 6
 535.771484375 685.859375 l 5
 529.228515625 678.64453125 l 6
 521.260742188 669.860351562 520.70703125 661.509765625 527.23828125 648.659179688 c 4
 531.065429688 641.1328125 531.665039062 637.047851562 530.47265625 626.676757812 c 4
 529.670898438 619.689453125 527.736328125 611.395507812 526.190429688 608.303710938 c 4
 524.631835938 605.1875 521.5234375 598.833007812 519.236328125 594.099609375 c 4
 513.944335938 583.12890625 492.935546875 563.8203125 480.0859375 558.114257812 c 4
 458.342773438 548.458984375 425.8515625 558.02734375 406.12109375 579.895507812 c 4
 394.076171875 593.249023438 381.310546875 618.673828125 379.294921875 633.328125 c 4xe0
 377.186523438 648.659179688 382.142578125 674.7578125 388.630859375 682.4765625 c 4
 395.66015625 690.840820312 406.588867188 693.483398438 445.139648438 696.133789062 c 4
 462.049804688 697.295898438 476.536132812 698.767578125 477.154296875 699.384765625 c 4
EndSplineSet
Validated: 524321
EndChar

